<?xml version="1.0" standalone="no"?>
<!DOCTYPE svg PUBLIC "-//W3C//DTD SVG 1.1//EN" "http://www.w3.org/Graphics/SVG/1.1/DTD/svg11.dtd" >
<svg>
<metadata>
Created by FontForge 20090622 at Tue Dec 19 05:02:23 2017
 By ffonts
Copyright 2016 The Cabin Project Authors (impallari@gmail.com)
</metadata>
<defs>
<font id="CabinVFBeta-Regular" horiz-adv-x="0" >
  <font-face 
    font-family="Cabin VF Beta"
    font-weight="400"
    font-stretch="normal"
    units-per-em="1000"
    panose-1="0 0 0 0 0 0 0 0 0 0"
    ascent="800"
    descent="-200"
    x-height="490"
    cap-height="700"
    bbox="-215 -304 1259 1138"
    underline-thickness="50"
    underline-position="-75"
    unicode-range="U+000D-U+25CA"
  />
    <missing-glyph />
    <glyph glyph-name="verticallinemod" horiz-adv-x="603" 
d="M50 0v700h503v-700h-503zM130 70h343v560h-343v-560z" />
    <glyph glyph-name="A" unicode="A" horiz-adv-x="616" 
d="M458 189h-300v86h300v-86zM294 607h28l-215 -607h-100l251 700h100l251 -700h-100z" />
    <glyph glyph-name="Aacute" unicode="&#xc1;" horiz-adv-x="616" 
d="M458 189h-300v86h300v-86zM294 607h28l-215 -607h-100l251 700h100l251 -700h-100zM215 764v58l187 95v-95z" />
    <glyph glyph-name="Abreve" unicode="&#x102;" horiz-adv-x="616" 
d="M458 189h-300v86h300v-86zM294 607h28l-215 -607h-100l251 700h100l251 -700h-100zM308 764q-50 0 -82.5 17t-48 44.5t-15.5 58.5h80q0 -29 19.5 -43.5t46.5 -14.5t46.5 14.5t19.5 43.5h80q0 -31 -15.5 -58.5t-48 -44.5t-82.5 -17z" />
    <glyph glyph-name="uni1EAE" unicode="&#x1eae;" horiz-adv-x="616" 
d="M458 189h-300v86h300v-86zM294 607h28l-215 -607h-100l251 700h100l251 -700h-100zM308 764q-50 0 -82.5 17t-48 44.5t-15.5 58.5h80q0 -29 19.5 -43.5t46.5 -14.5t46.5 14.5t19.5 43.5h80q0 -31 -15.5 -58.5t-48 -44.5t-82.5 -17zM215 928v58l187 95v-95z" />
    <glyph glyph-name="uni1EB6" unicode="&#x1eb6;" horiz-adv-x="616" 
d="M458 189h-300v86h300v-86zM294 607h28l-215 -607h-100l251 700h100l251 -700h-100zM308 786q-50 0 -82.5 18t-48 47t-15.5 62h80q0 -31 19.5 -46t46.5 -15t46.5 15t19.5 46h80q0 -33 -15.5 -62t-48 -47t-82.5 -18zM260 -171v90h96v-90h-96z" />
    <glyph glyph-name="uni1EB0" unicode="&#x1eb0;" horiz-adv-x="616" 
d="M458 189h-300v86h300v-86zM294 607h28l-215 -607h-100l251 700h100l251 -700h-100zM308 763q-50 0 -82.5 17t-48 44.5t-15.5 58.5h80q0 -29 19.5 -43.5t46.5 -14.5t46.5 14.5t19.5 43.5h80q0 -31 -15.5 -58.5t-48 -44.5t-82.5 -17zM401 927l-187 58v95l187 -95v-58z" />
    <glyph glyph-name="uni1EB2" unicode="&#x1eb2;" horiz-adv-x="616" 
d="M458 189h-300v86h300v-86zM294 607h28l-215 -607h-100l251 700h100l251 -700h-100zM308 764q-50 0 -82.5 17t-48 44.5t-15.5 58.5h80q0 -29 19.5 -43.5t46.5 -14.5t46.5 14.5t19.5 43.5h80q0 -31 -15.5 -58.5t-48 -44.5t-82.5 -17zM317 900l-9 40q17 6 26 15.5t9 23.5
q0 17 -11 24.5t-30 7.5q-16 0 -31.5 -5.5t-31.5 -13.5l-17 51q16 9 36.5 14t43.5 5q41 0 70 -20t29 -57q0 -33 -20 -54t-64 -31z" />
    <glyph glyph-name="uni1EB4" unicode="&#x1eb4;" horiz-adv-x="616" 
d="M458 189h-300v86h300v-86zM294 607h28l-215 -607h-100l251 700h100l251 -700h-100zM308 764q-50 0 -82.5 17t-48 44.5t-15.5 58.5h80q0 -29 19.5 -43.5t46.5 -14.5t46.5 14.5t19.5 43.5h80q0 -31 -15.5 -58.5t-48 -44.5t-82.5 -17zM391 931q-23 0 -48 10.5l-49 20.5
t-43 10q-34 0 -34 -36h-65q0 49 19 74.5t54 25.5q23 0 48 -10l49 -20.5t43 -10.5q34 0 34 36h65q0 -49 -19 -74.5t-54 -25.5z" />
    <glyph glyph-name="Acircumflex" unicode="&#xc2;" horiz-adv-x="616" 
d="M458 189h-300v86h300v-86zM294 607h28l-215 -607h-100l251 700h100l251 -700h-100zM181 753v61l127 90l127 -90v-61l-127 66z" />
    <glyph glyph-name="uni1EA4" unicode="&#x1ea4;" horiz-adv-x="616" 
d="M458 189h-300v86h300v-86zM294 607h28l-215 -607h-100l251 700h100l251 -700h-100zM181 753v61l127 90l127 -90v-61l-127 66zM383 899l66 117h98l-98 -117h-66z" />
    <glyph glyph-name="uni1EAC" unicode="&#x1eac;" horiz-adv-x="616" 
d="M458 189h-300v86h300v-86zM294 607h28l-215 -607h-100l251 700h100l251 -700h-100zM181 774v61l127 110l127 -110v-61l-127 80zM260 -171v90h96v-90h-96z" />
    <glyph glyph-name="uni1EA6" unicode="&#x1ea6;" horiz-adv-x="616" 
d="M458 189h-300v86h300v-86zM294 607h28l-215 -607h-100l251 700h100l251 -700h-100zM181 753v61l127 90l127 -90v-61l-127 66zM397 899l-87 117h95l56 -117h-64z" />
    <glyph glyph-name="uni1EA8" unicode="&#x1ea8;" horiz-adv-x="616" 
d="M458 189h-300v86h300v-86zM294 607h28l-215 -607h-100l251 700h100l251 -700h-100zM181 753v61l127 90l127 -90v-61l-127 66zM404 872l-9 40q17 6 26 15.5t9 23.5q0 17 -11 24.5t-30 7.5q-16 0 -31.5 -5.5t-31.5 -13.5l-17 51q17 9 37 14t43 5q41 0 70 -20t29 -57
q0 -33 -20 -54t-64 -31z" />
    <glyph glyph-name="uni1EAA" unicode="&#x1eaa;" horiz-adv-x="616" 
d="M458 189h-300v86h300v-86zM294 607h28l-215 -607h-100l251 700h100l251 -700h-100zM181 753v61l127 90l127 -90v-61l-127 66zM391 945q-23 0 -48 10.5l-49 20.5t-43 10q-34 0 -34 -36h-65q0 49 19 74.5t54 25.5q23 0 48 -10l49 -20.5t43 -10.5q34 0 34 36h65
q0 -49 -19 -74.5t-54 -25.5z" />
    <glyph glyph-name="uni0200" unicode="&#x200;" horiz-adv-x="616" 
d="M458 189h-300v86h300v-86zM294 607h28l-215 -607h-100l251 700h100l251 -700h-100zM412 788h-66l-90 147h98zM272 788h-66l-95 147h98z" />
    <glyph glyph-name="Adieresis" unicode="&#xc4;" horiz-adv-x="616" 
d="M458 189h-300v86h300v-86zM294 607h28l-215 -607h-100l251 700h100l251 -700h-100zM169 794v75h86v-75h-86zM361 794v75h86v-75h-86z" />
    <glyph glyph-name="uni1EA0" unicode="&#x1ea0;" horiz-adv-x="616" 
d="M458 189h-300v86h300v-86zM294 607h28l-215 -607h-100l251 700h100l251 -700h-100zM260 -171v90h96v-90h-96z" />
    <glyph glyph-name="Agrave" unicode="&#xc0;" horiz-adv-x="616" 
d="M458 189h-300v86h300v-86zM294 607h28l-215 -607h-100l251 700h100l251 -700h-100zM401 764l-187 58v95l187 -95v-58z" />
    <glyph glyph-name="uni1EA2" unicode="&#x1ea2;" horiz-adv-x="616" 
d="M458 189h-300v86h300v-86zM294 607h28l-215 -607h-100l251 700h100l251 -700h-100zM307 760l-9 40q17 6 26 15.5t9 23.5q0 17 -11 24.5t-30 7.5q-16 0 -31.5 -5.5t-31.5 -13.5l-17 51q16 9 36.5 14t43.5 5q41 0 70 -20t29 -57q0 -33 -20 -54t-64 -31z" />
    <glyph glyph-name="uni0202" unicode="&#x202;" horiz-adv-x="616" 
d="M458 189h-300v86h300v-86zM294 607h28l-215 -607h-100l251 700h100l251 -700h-100zM308 899q50 0 82.5 -17t48 -44.5t15.5 -58.5h-80q0 29 -19.5 43.5t-46.5 14.5t-46.5 -14.5t-19.5 -43.5h-80q0 31 15.5 58.5t48 44.5t82.5 17z" />
    <glyph glyph-name="Amacron" unicode="&#x100;" horiz-adv-x="616" 
d="M458 189h-300v86h300v-86zM294 607h28l-215 -607h-100l251 700h100l251 -700h-100zM148 793v68h320v-68h-320z" />
    <glyph glyph-name="Aogonek" unicode="&#x104;" horiz-adv-x="616" 
d="M458 189h-300v86h300v-86zM294 607h28l-215 -607h-100l251 700h100l251 -700h-100zM537 0h53q-35 -27 -56.5 -52.5t-21.5 -53.5q0 -26 13 -38.5t35 -12.5q17 0 32.5 4.5t30.5 12.5l15 -49q-14 -7 -35 -13t-48 -6q-42 0 -71.5 22t-29.5 64q0 40 26.5 72.5t56.5 49.5z" />
    <glyph glyph-name="Aring" unicode="&#xc5;" horiz-adv-x="616" 
d="M458 189h-300v86h300v-86zM294 607h28l-215 -607h-100l251 700h100l251 -700h-100zM308 756q-52 0 -78 30t-26 68t26.5 68t77.5 30q52 0 78 -30t26 -68t-26 -68t-78 -30zM308 800q21 0 37.5 14t16.5 40q0 24 -16 39t-38 15t-38 -15t-16 -39q0 -26 16.5 -40t37.5 -14z" />
    <glyph glyph-name="Aringacute" unicode="&#x1fa;" horiz-adv-x="616" 
d="M458 189h-300v86h300v-86zM294 607h28l-215 -607h-100l251 700h100l251 -700h-100zM308 756q-52 0 -78 30t-26 68t26.5 68t77.5 30q52 0 78 -30t26 -68t-26 -68t-78 -30zM308 800q21 0 37.5 14t16.5 40q0 24 -16 39t-38 15t-38 -15t-16 -39q0 -26 16.5 -40t37.5 -14z
M215 985v58l187 95v-95z" />
    <glyph glyph-name="Atilde" unicode="&#xc3;" horiz-adv-x="616" 
d="M458 189h-300v86h300v-86zM294 607h28l-215 -607h-100l251 700h100l251 -700h-100zM391 788q-23 0 -48 10l-49 20.5t-43 10.5q-34 0 -34 -36h-65q0 49 19 74.5t54 25.5q23 0 48 -10.5l49 -20.5t43 -10q34 0 34 36h65q0 -49 -19 -74.5t-54 -25.5z" />
    <glyph glyph-name="AE" unicode="&#xc6;" horiz-adv-x="866" 
d="M-7 0l342 700h483v-87h-312v-204h241v-86h-241v-237h322v-86h-436v611l-306 -611h-93zM155 180v92h253v-92h-253z" />
    <glyph glyph-name="AEacute" unicode="&#x1fc;" horiz-adv-x="866" 
d="M-7 0l342 700h483v-87h-312v-204h241v-86h-241v-237h322v-86h-436v611l-306 -611h-93zM155 180v92h253v-92h-253zM484 764v58l187 95v-95z" />
    <glyph glyph-name="B" unicode="B" horiz-adv-x="597" 
d="M80 0v700h221q94 0 147.5 -42.5t53.5 -128.5q0 -59 -25.5 -103t-76.5 -58l14 16q73 -12 113 -58t40 -126q0 -92 -59.5 -146t-163.5 -54h-264zM175 86h161q58 0 92.5 29t34.5 88q0 66 -35.5 93t-91.5 27h-161v-237zM175 409h114q51 0 83 20.5t32 82.5t-32 82.5t-83 20.5
h-114v-206z" />
    <glyph glyph-name="C" unicode="C" horiz-adv-x="616" 
d="M392 -14q-102 0 -182 45t-125.5 126.5t-45.5 192.5t46.5 192.5t127 126.5t183.5 45q53 0 101.5 -11.5t85.5 -29.5l-10 -88q-37 18 -82.5 30.5t-95.5 12.5q-83 0 -139 -37t-84.5 -100t-28.5 -141t28.5 -141t84 -100t137.5 -37q52 0 96 11t84 31l10 -88
q-37 -17 -84.5 -28.5t-106.5 -11.5z" />
    <glyph glyph-name="Cacute" unicode="&#x106;" horiz-adv-x="616" 
d="M392 -14q-102 0 -182 45t-125.5 126.5t-45.5 192.5t46.5 192.5t127 126.5t183.5 45q53 0 101.5 -11.5t85.5 -29.5l-10 -88q-37 18 -82.5 30.5t-95.5 12.5q-83 0 -139 -37t-84.5 -100t-28.5 -141t28.5 -141t84 -100t137.5 -37q52 0 96 11t84 31l10 -88
q-37 -17 -84.5 -28.5t-106.5 -11.5zM283 764v58l187 95v-95z" />
    <glyph glyph-name="Ccaron" unicode="&#x10c;" horiz-adv-x="616" 
d="M392 -14q-102 0 -182 45t-125.5 126.5t-45.5 192.5t46.5 192.5t127 126.5t183.5 45q53 0 101.5 -11.5t85.5 -29.5l-10 -88q-37 18 -82.5 30.5t-95.5 12.5q-83 0 -139 -37t-84.5 -100t-28.5 -141t28.5 -141t84 -100t137.5 -37q52 0 96 11t84 31l10 -88
q-37 -17 -84.5 -28.5t-106.5 -11.5zM249 930v-61l127 -90l127 90v61l-127 -66z" />
    <glyph glyph-name="Ccedilla" unicode="&#xc7;" horiz-adv-x="616" 
d="M392 -14q-102 0 -182 45t-125.5 126.5t-45.5 192.5t46.5 192.5t127 126.5t183.5 45q53 0 101.5 -11.5t85.5 -29.5l-10 -88q-37 18 -82.5 30.5t-95.5 12.5q-83 0 -139 -37t-84.5 -100t-28.5 -141t28.5 -141t84 -100t137.5 -37q52 0 96 11t84 31l10 -88
q-37 -17 -84.5 -28.5t-106.5 -11.5zM386 -79l-33 15q12 4 24 7t25 3q41 0 64 -22t23 -59q0 -44 -31 -67.5t-75 -23.5q-26 0 -45 6t-33 13l15 49q15 -8 30.5 -12.5t32.5 -4.5q22 0 35 9.5t13 28.5q0 18 -12 29t-38 11q-11 0 -22 -1.5t-24 -6.5l26 105h50z" />
    <glyph glyph-name="uni1E08" unicode="&#x1e08;" horiz-adv-x="616" 
d="M392 -14q-102 0 -182 45t-125.5 126.5t-45.5 192.5t46.5 192.5t127 126.5t183.5 45q53 0 101.5 -11.5t85.5 -29.5l-10 -88q-37 18 -82.5 30.5t-95.5 12.5q-83 0 -139 -37t-84.5 -100t-28.5 -141t28.5 -141t84 -100t137.5 -37q52 0 96 11t84 31l10 -88
q-37 -17 -84.5 -28.5t-106.5 -11.5zM386 -79l-33 15q12 4 24 7t25 3q41 0 64 -22t23 -59q0 -44 -31 -67.5t-75 -23.5q-26 0 -45 6t-33 13l15 49q15 -8 30.5 -12.5t32.5 -4.5q22 0 35 9.5t13 28.5q0 18 -12 29t-38 11q-11 0 -22 -1.5t-24 -6.5l26 105h50zM283 764v58l187 95
v-95z" />
    <glyph glyph-name="Ccircumflex" unicode="&#x108;" horiz-adv-x="616" 
d="M392 -14q-102 0 -182 45t-125.5 126.5t-45.5 192.5t46.5 192.5t127 126.5t183.5 45q53 0 101.5 -11.5t85.5 -29.5l-10 -88q-37 18 -82.5 30.5t-95.5 12.5q-83 0 -139 -37t-84.5 -100t-28.5 -141t28.5 -141t84 -100t137.5 -37q52 0 96 11t84 31l10 -88
q-37 -17 -84.5 -28.5t-106.5 -11.5zM249 753v61l127 90l127 -90v-61l-127 66z" />
    <glyph glyph-name="Cdotaccent" unicode="&#x10a;" horiz-adv-x="616" 
d="M392 -14q-102 0 -182 45t-125.5 126.5t-45.5 192.5t46.5 192.5t127 126.5t183.5 45q53 0 101.5 -11.5t85.5 -29.5l-10 -88q-37 18 -82.5 30.5t-95.5 12.5q-83 0 -139 -37t-84.5 -100t-28.5 -141t28.5 -141t84 -100t137.5 -37q52 0 96 11t84 31l10 -88
q-37 -17 -84.5 -28.5t-106.5 -11.5zM328 791v90h96v-90h-96z" />
    <glyph glyph-name="D" unicode="D" horiz-adv-x="727" 
d="M80 0v700h259q101 0 180 -41.5t123.5 -120t44.5 -188.5q0 -111 -44.5 -189t-123.5 -119.5t-180 -41.5h-259zM175 86h164q80 0 134.5 33.5t82 93t27.5 137.5t-27.5 137.5t-82 93t-134.5 33.5h-164v-528z" />
    <glyph glyph-name="uni01C4" unicode="&#x1c4;" horiz-adv-x="1255" 
d="M80 0v700h259q101 0 180 -41.5t123.5 -120t44.5 -188.5q0 -111 -44.5 -189t-123.5 -119.5t-180 -41.5h-259zM175 86h164q80 0 134.5 33.5t82 93t27.5 137.5t-27.5 137.5t-82 93t-134.5 33.5h-164v-528zM715 0l401 650l18 -36h-374v86h488l-403 -650l-17 36h415v-86h-528z
M877 930v-61l127 -90l127 90v61l-127 -66z" />
    <glyph glyph-name="Eth" unicode="&#xd0;" horiz-adv-x="729" 
d="M88 0v313h-70v84h70v303h256q100 0 178 -41.5t122.5 -120t44.5 -188.5q0 -111 -44.5 -189t-122.5 -119.5t-178 -41.5h-256zM178 87h166q121 0 182 72t61 191t-61 191.5t-182 72.5h-166v-217h133v-84h-133v-226z" />
    <glyph glyph-name="Dcaron" unicode="&#x10e;" horiz-adv-x="727" 
d="M80 0v700h259q101 0 180 -41.5t123.5 -120t44.5 -188.5q0 -111 -44.5 -189t-123.5 -119.5t-180 -41.5h-259zM175 86h164q80 0 134.5 33.5t82 93t27.5 137.5t-27.5 137.5t-82 93t-134.5 33.5h-164v-528zM237 930v-61l127 -90l127 90v61l-127 -66z" />
    <glyph glyph-name="Dcroat" unicode="&#x110;" horiz-adv-x="729" 
d="M88 0v313h-70v84h70v303h256q100 0 178 -41.5t122.5 -120t44.5 -188.5q0 -111 -44.5 -189t-122.5 -119.5t-178 -41.5h-256zM178 87h166q121 0 182 72t61 191t-61 191.5t-182 72.5h-166v-217h133v-84h-133v-226z" />
    <glyph glyph-name="uni1E0C" unicode="&#x1e0c;" horiz-adv-x="727" 
d="M80 0v700h259q101 0 180 -41.5t123.5 -120t44.5 -188.5q0 -111 -44.5 -189t-123.5 -119.5t-180 -41.5h-259zM175 86h164q80 0 134.5 33.5t82 93t27.5 137.5t-27.5 137.5t-82 93t-134.5 33.5h-164v-528zM316 -171v90h96v-90h-96z" />
    <glyph glyph-name="uni1E0E" unicode="&#x1e0e;" horiz-adv-x="727" 
d="M80 0v700h259q101 0 180 -41.5t123.5 -120t44.5 -188.5q0 -111 -44.5 -189t-123.5 -119.5t-180 -41.5h-259zM175 86h164q80 0 134.5 33.5t82 93t27.5 137.5t-27.5 137.5t-82 93t-134.5 33.5h-164v-528zM204 -162v71h320v-71h-320z" />
    <glyph glyph-name="uni01C5" unicode="&#x1c5;" horiz-adv-x="1192" 
d="M80 0v700h259q101 0 180 -41.5t123.5 -120t44.5 -188.5q0 -111 -44.5 -189t-123.5 -119.5t-180 -41.5h-259zM175 86h164q80 0 134.5 33.5t82 93t27.5 137.5t-27.5 137.5t-82 93t-134.5 33.5h-164v-528zM743 0l303 456l11 -45h-298v79h408l-303 -456l-11 45h309v-79h-419z
M962 568l-127 110v61l127 -80l127 80v-61z" />
    <glyph glyph-name="E" unicode="E" horiz-adv-x="554" 
d="M80 0v700h427v-86h-332v-205h264v-86h-264v-237h341v-86h-436z" />
    <glyph glyph-name="Eacute" unicode="&#xc9;" horiz-adv-x="554" 
d="M80 0v700h427v-86h-332v-205h264v-86h-264v-237h341v-86h-436zM211 764v58l187 95v-95z" />
    <glyph glyph-name="Ebreve" unicode="&#x114;" horiz-adv-x="554" 
d="M80 0v700h427v-86h-332v-205h264v-86h-264v-237h341v-86h-436zM304 764q-50 0 -82.5 17t-48 44.5t-15.5 58.5h80q0 -29 19.5 -43.5t46.5 -14.5t46.5 14.5t19.5 43.5h80q0 -31 -15.5 -58.5t-48 -44.5t-82.5 -17z" />
    <glyph glyph-name="Ecaron" unicode="&#x11a;" horiz-adv-x="554" 
d="M80 0v700h427v-86h-332v-205h264v-86h-264v-237h341v-86h-436zM177 930v-61l127 -90l127 90v61l-127 -66z" />
    <glyph glyph-name="uni1E1C" unicode="&#x1e1c;" horiz-adv-x="554" 
d="M80 0v700h427v-86h-332v-205h264v-86h-264v-237h341v-86h-436zM309 -79l-33 15q12 4 24 7t25 3q41 0 64 -22t23 -59q0 -44 -31 -67.5t-75 -23.5q-26 0 -45 6t-33 13l15 49q15 -8 30.5 -12.5t32.5 -4.5q22 0 35 9.5t13 28.5q0 18 -12 29t-38 11q-11 0 -22 -1.5t-24 -6.5
l26 105h50zM304 764q-50 0 -82.5 17t-48 44.5t-15.5 58.5h80q0 -29 19.5 -43.5t46.5 -14.5t46.5 14.5t19.5 43.5h80q0 -31 -15.5 -58.5t-48 -44.5t-82.5 -17z" />
    <glyph glyph-name="Ecircumflex" unicode="&#xca;" horiz-adv-x="554" 
d="M80 0v700h427v-86h-332v-205h264v-86h-264v-237h341v-86h-436zM177 753v61l127 90l127 -90v-61l-127 66z" />
    <glyph glyph-name="uni1EBE" unicode="&#x1ebe;" horiz-adv-x="554" 
d="M80 0v700h427v-86h-332v-205h264v-86h-264v-237h341v-86h-436zM177 753v61l127 90l127 -90v-61l-127 66zM379 899l66 117h98l-98 -117h-66z" />
    <glyph glyph-name="uni1EC6" unicode="&#x1ec6;" horiz-adv-x="554" 
d="M80 0v700h427v-86h-332v-205h264v-86h-264v-237h341v-86h-436zM177 753v61l127 90l127 -90v-61l-127 66zM258 -171v90h96v-90h-96z" />
    <glyph glyph-name="uni1EC0" unicode="&#x1ec0;" horiz-adv-x="554" 
d="M80 0v700h427v-86h-332v-205h264v-86h-264v-237h341v-86h-436zM177 753v61l127 90l127 -90v-61l-127 66zM393 899l-87 117h95l56 -117h-64z" />
    <glyph glyph-name="uni1EC2" unicode="&#x1ec2;" horiz-adv-x="554" 
d="M80 0v700h427v-86h-332v-205h264v-86h-264v-237h341v-86h-436zM177 753v61l127 90l127 -90v-61l-127 66zM400 872l-9 40q17 6 26 15.5t9 23.5q0 17 -11 24.5t-30 7.5q-16 0 -31.5 -5.5t-31.5 -13.5l-17 51q17 9 37 14t43 5q41 0 70 -20t29 -57q0 -33 -20 -54t-64 -31z
" />
    <glyph glyph-name="uni1EC4" unicode="&#x1ec4;" horiz-adv-x="554" 
d="M80 0v700h427v-86h-332v-205h264v-86h-264v-237h341v-86h-436zM177 753v61l127 90l127 -90v-61l-127 66zM387 945q-23 0 -48 10.5l-49 20.5t-43 10q-34 0 -34 -36h-65q0 49 19 74.5t54 25.5q23 0 48 -10l49 -20.5t43 -10.5q34 0 34 36h65q0 -49 -19 -74.5t-54 -25.5z" />
    <glyph glyph-name="uni0204" unicode="&#x204;" horiz-adv-x="554" 
d="M80 0v700h427v-86h-332v-205h264v-86h-264v-237h341v-86h-436zM408 788h-66l-90 147h98zM268 788h-66l-95 147h98z" />
    <glyph glyph-name="Edieresis" unicode="&#xcb;" horiz-adv-x="554" 
d="M80 0v700h427v-86h-332v-205h264v-86h-264v-237h341v-86h-436zM165 794v75h86v-75h-86zM357 794v75h86v-75h-86z" />
    <glyph glyph-name="Edotaccent" unicode="&#x116;" horiz-adv-x="554" 
d="M80 0v700h427v-86h-332v-205h264v-86h-264v-237h341v-86h-436zM256 791v90h96v-90h-96z" />
    <glyph glyph-name="uni1EB8" unicode="&#x1eb8;" horiz-adv-x="554" 
d="M80 0v700h427v-86h-332v-205h264v-86h-264v-237h341v-86h-436zM258 -171v90h96v-90h-96z" />
    <glyph glyph-name="Egrave" unicode="&#xc8;" horiz-adv-x="554" 
d="M80 0v700h427v-86h-332v-205h264v-86h-264v-237h341v-86h-436zM397 764l-187 58v95l187 -95v-58z" />
    <glyph glyph-name="uni1EBA" unicode="&#x1eba;" horiz-adv-x="554" 
d="M80 0v700h427v-86h-332v-205h264v-86h-264v-237h341v-86h-436zM303 760l-9 40q17 6 26 15.5t9 23.5q0 17 -11 24.5t-30 7.5q-16 0 -31.5 -5.5t-31.5 -13.5l-17 51q16 9 36.5 14t43.5 5q41 0 70 -20t29 -57q0 -33 -20 -54t-64 -31z" />
    <glyph glyph-name="uni0206" unicode="&#x206;" horiz-adv-x="554" 
d="M80 0v700h427v-86h-332v-205h264v-86h-264v-237h341v-86h-436zM304 899q50 0 82.5 -17t48 -44.5t15.5 -58.5h-80q0 29 -19.5 43.5t-46.5 14.5t-46.5 -14.5t-19.5 -43.5h-80q0 31 15.5 58.5t48 44.5t82.5 17z" />
    <glyph glyph-name="Emacron" unicode="&#x112;" horiz-adv-x="554" 
d="M80 0v700h427v-86h-332v-205h264v-86h-264v-237h341v-86h-436zM144 793v68h320v-68h-320z" />
    <glyph glyph-name="uni1E16" unicode="&#x1e16;" horiz-adv-x="554" 
d="M80 0v700h427v-86h-332v-205h264v-86h-264v-237h341v-86h-436zM144 793v68h320v-68h-320zM211 936v58l187 95v-95z" />
    <glyph glyph-name="uni1E14" unicode="&#x1e14;" horiz-adv-x="554" 
d="M80 0v700h427v-86h-332v-205h264v-86h-264v-237h341v-86h-436zM144 793v68h320v-68h-320zM397 936l-187 58v95l187 -95v-58z" />
    <glyph glyph-name="Eogonek" unicode="&#x118;" horiz-adv-x="554" 
d="M80 0v700h427v-86h-332v-205h264v-86h-264v-237h341v-86h-436zM463 0h53q-35 -27 -56.5 -52.5t-21.5 -53.5q0 -26 13 -38.5t35 -12.5q17 0 32.5 4.5t30.5 12.5l15 -49q-14 -7 -35 -13t-48 -6q-42 0 -71.5 22t-29.5 64q0 40 26.5 72.5t56.5 49.5z" />
    <glyph glyph-name="uni1EBC" unicode="&#x1ebc;" horiz-adv-x="554" 
d="M80 0v700h427v-86h-332v-205h264v-86h-264v-237h341v-86h-436zM387 788q-23 0 -48 10l-49 20.5t-43 10.5q-34 0 -34 -36h-65q0 49 19 74.5t54 25.5q23 0 48 -10.5l49 -20.5t43 -10q34 0 34 36h65q0 -49 -19 -74.5t-54 -25.5z" />
    <glyph glyph-name="F" unicode="F" horiz-adv-x="523" 
d="M80 0v700h427v-86h-332v-205h256v-86h-256v-323h-95z" />
    <glyph glyph-name="G" unicode="G" horiz-adv-x="672" 
d="M382 -14q-97 0 -174.5 45t-123 127t-45.5 193t46.5 192.5t128.5 126t187 44.5q56 0 107.5 -12t89.5 -28l-9 -83q-41 16 -87 26.5t-98 10.5q-90 0 -147.5 -37t-85.5 -100t-28 -141q0 -80 28.5 -143t87.5 -99t150 -36q23 0 56 4t61 15v174h-110v86h205v-312
q-41 -23 -102 -38t-137 -15z" />
    <glyph glyph-name="Gbreve" unicode="&#x11e;" horiz-adv-x="672" 
d="M382 -14q-97 0 -174.5 45t-123 127t-45.5 193t46.5 192.5t128.5 126t187 44.5q56 0 107.5 -12t89.5 -28l-9 -83q-41 16 -87 26.5t-98 10.5q-90 0 -147.5 -37t-85.5 -100t-28 -141q0 -80 28.5 -143t87.5 -99t150 -36q23 0 56 4t61 15v174h-110v86h205v-312
q-41 -23 -102 -38t-137 -15zM403 764q-50 0 -82.5 17t-48 44.5t-15.5 58.5h80q0 -29 19.5 -43.5t46.5 -14.5t46.5 14.5t19.5 43.5h80q0 -31 -15.5 -58.5t-48 -44.5t-82.5 -17z" />
    <glyph glyph-name="Gcaron" unicode="&#x1e6;" horiz-adv-x="672" 
d="M382 -14q-97 0 -174.5 45t-123 127t-45.5 193t46.5 192.5t128.5 126t187 44.5q56 0 107.5 -12t89.5 -28l-9 -83q-41 16 -87 26.5t-98 10.5q-90 0 -147.5 -37t-85.5 -100t-28 -141q0 -80 28.5 -143t87.5 -99t150 -36q23 0 56 4t61 15v174h-110v86h205v-312
q-41 -23 -102 -38t-137 -15zM276 930v-61l127 -90l127 90v61l-127 -66z" />
    <glyph glyph-name="Gcircumflex" unicode="&#x11c;" horiz-adv-x="672" 
d="M382 -14q-97 0 -174.5 45t-123 127t-45.5 193t46.5 192.5t128.5 126t187 44.5q56 0 107.5 -12t89.5 -28l-9 -83q-41 16 -87 26.5t-98 10.5q-90 0 -147.5 -37t-85.5 -100t-28 -141q0 -80 28.5 -143t87.5 -99t150 -36q23 0 56 4t61 15v174h-110v86h205v-312
q-41 -23 -102 -38t-137 -15zM276 753v61l127 90l127 -90v-61l-127 66z" />
    <glyph glyph-name="Gcommaaccent" unicode="&#x122;" horiz-adv-x="672" 
d="M382 -14q-97 0 -174.5 45t-123 127t-45.5 193t46.5 192.5t128.5 126t187 44.5q56 0 107.5 -12t89.5 -28l-9 -83q-41 16 -87 26.5t-98 10.5q-90 0 -147.5 -37t-85.5 -100t-28 -141q0 -80 28.5 -143t87.5 -99t150 -36q23 0 56 4t61 15v174h-110v86h205v-312
q-41 -23 -102 -38t-137 -15zM399 -304h-57l36 107h-35v106h108v-96z" />
    <glyph glyph-name="Gdotaccent" unicode="&#x120;" horiz-adv-x="672" 
d="M382 -14q-97 0 -174.5 45t-123 127t-45.5 193t46.5 192.5t128.5 126t187 44.5q56 0 107.5 -12t89.5 -28l-9 -83q-41 16 -87 26.5t-98 10.5q-90 0 -147.5 -37t-85.5 -100t-28 -141q0 -80 28.5 -143t87.5 -99t150 -36q23 0 56 4t61 15v174h-110v86h205v-312
q-41 -23 -102 -38t-137 -15zM355 791v90h96v-90h-96z" />
    <glyph glyph-name="uni1E20" unicode="&#x1e20;" horiz-adv-x="672" 
d="M382 -14q-97 0 -174.5 45t-123 127t-45.5 193t46.5 192.5t128.5 126t187 44.5q56 0 107.5 -12t89.5 -28l-9 -83q-41 16 -87 26.5t-98 10.5q-90 0 -147.5 -37t-85.5 -100t-28 -141q0 -80 28.5 -143t87.5 -99t150 -36q23 0 56 4t61 15v174h-110v86h205v-312
q-41 -23 -102 -38t-137 -15zM243 793v68h320v-68h-320z" />
    <glyph glyph-name="H" unicode="H" horiz-adv-x="706" 
d="M80 0v700h95v-289h356v289h95v-700h-95v321h-356v-321h-95z" />
    <glyph glyph-name="Hbar" unicode="&#x126;" horiz-adv-x="746" 
d="M80 0v700h95v-289h396v289h95v-700h-95v321h-396v-321h-95zM10 500v64h726v-64h-726z" />
    <glyph glyph-name="uni1E2A" unicode="&#x1e2a;" horiz-adv-x="706" 
d="M80 0v700h95v-289h356v289h95v-700h-95v321h-356v-321h-95zM353 -218q-50 0 -82.5 18t-48 47t-15.5 62h80q0 -31 19.5 -46t46.5 -15t46.5 15t19.5 46h80q0 -33 -15.5 -62t-48 -47t-82.5 -18z" />
    <glyph glyph-name="Hcircumflex" unicode="&#x124;" horiz-adv-x="706" 
d="M80 0v700h95v-289h356v289h95v-700h-95v321h-356v-321h-95zM226 753v61l127 90l127 -90v-61l-127 66z" />
    <glyph glyph-name="uni1E24" unicode="&#x1e24;" horiz-adv-x="706" 
d="M80 0v700h95v-289h356v289h95v-700h-95v321h-356v-321h-95zM305 -171v90h96v-90h-96z" />
    <glyph glyph-name="I" unicode="I" horiz-adv-x="255" 
d="M80 0v700h95v-700h-95z" />
    <glyph glyph-name="IJ" unicode="&#x132;" horiz-adv-x="684" 
d="M171 244q5 -48 23 -87t53 -62t95 -23q56 0 90.5 21t53 57t25 80.5t6.5 92.5v377h95v-403q0 -96 -29.5 -165.5t-89 -107.5t-151.5 -38q-121 0 -186.5 65t-79.5 180zM72 323v377h95v-377h-95z" />
    <glyph glyph-name="Iacute" unicode="&#xcd;" horiz-adv-x="255" 
d="M80 0v700h95v-700h-95zM35 764v58l187 95v-95z" />
    <glyph glyph-name="Ibreve" unicode="&#x12c;" horiz-adv-x="255" 
d="M80 0v700h95v-700h-95zM128 764q-50 0 -82.5 17t-48 44.5t-15.5 58.5h80q0 -29 19.5 -43.5t46.5 -14.5t46.5 14.5t19.5 43.5h80q0 -31 -15.5 -58.5t-48 -44.5t-82.5 -17z" />
    <glyph glyph-name="Icircumflex" unicode="&#xce;" horiz-adv-x="255" 
d="M80 0v700h95v-700h-95zM1 753v61l127 90l127 -90v-61l-127 66z" />
    <glyph glyph-name="uni0208" unicode="&#x208;" horiz-adv-x="255" 
d="M80 0v700h95v-700h-95zM232 788h-66l-90 147h98zM92 788h-66l-95 147h98z" />
    <glyph glyph-name="Idieresis" unicode="&#xcf;" horiz-adv-x="255" 
d="M80 0v700h95v-700h-95zM-11 794v75h86v-75h-86zM181 794v75h86v-75h-86z" />
    <glyph glyph-name="uni1E2E" unicode="&#x1e2e;" horiz-adv-x="255" 
d="M80 0v700h95v-700h-95zM-11 794v75h86v-75h-86zM181 794v75h86v-75h-86zM35 924v58l187 95v-95z" />
    <glyph glyph-name="Idotaccent" unicode="&#x130;" horiz-adv-x="255" 
d="M80 0v700h95v-700h-95zM80 791v90h96v-90h-96z" />
    <glyph glyph-name="uni1ECA" unicode="&#x1eca;" horiz-adv-x="255" 
d="M80 0v700h95v-700h-95zM80 -171v90h96v-90h-96z" />
    <glyph glyph-name="Igrave" unicode="&#xcc;" horiz-adv-x="255" 
d="M80 0v700h95v-700h-95zM221 764l-187 58v95l187 -95v-58z" />
    <glyph glyph-name="uni1EC8" unicode="&#x1ec8;" horiz-adv-x="255" 
d="M80 0v700h95v-700h-95zM127 760l-9 40q17 6 26 15.5t9 23.5q0 17 -11 24.5t-30 7.5q-16 0 -31.5 -5.5t-31.5 -13.5l-17 51q16 9 36.5 14t43.5 5q41 0 70 -20t29 -57q0 -33 -20 -54t-64 -31z" />
    <glyph glyph-name="uni020A" unicode="&#x20a;" horiz-adv-x="255" 
d="M80 0v700h95v-700h-95zM128 899q50 0 82.5 -17t48 -44.5t15.5 -58.5h-80q0 29 -19.5 43.5t-46.5 14.5t-46.5 -14.5t-19.5 -43.5h-80q0 31 15.5 58.5t48 44.5t82.5 17z" />
    <glyph glyph-name="Imacron" unicode="&#x12a;" horiz-adv-x="255" 
d="M80 0v700h95v-700h-95zM-32 793v68h320v-68h-320z" />
    <glyph glyph-name="Iogonek" unicode="&#x12e;" horiz-adv-x="255" 
d="M80 0v700h95v-700h-95zM122 0h53q-35 -27 -56.5 -52.5t-21.5 -53.5q0 -26 13 -38.5t35 -12.5q17 0 32.5 4.5t30.5 12.5l15 -49q-14 -7 -35 -13t-48 -6q-42 0 -71.5 22t-29.5 64q0 40 26.5 72.5t56.5 49.5z" />
    <glyph glyph-name="Itilde" unicode="&#x128;" horiz-adv-x="255" 
d="M80 0v700h95v-700h-95zM211 788q-23 0 -48 10l-49 20.5t-43 10.5q-34 0 -34 -36h-65q0 49 19 74.5t54 25.5q23 0 48 -10.5l49 -20.5t43 -10q34 0 34 36h65q0 -49 -19 -74.5t-54 -25.5z" />
    <glyph glyph-name="J" unicode="J" horiz-adv-x="255" 
d="M-7 -172l-13 82q54 0 77 23.5t23 74.5v692h95v-714q0 -82 -38.5 -120t-117.5 -38h-26z" />
    <glyph glyph-name="Jcircumflex" unicode="&#x134;" horiz-adv-x="255" 
d="M-7 -172l-13 82q54 0 77 23.5t23 74.5v692h95v-714q0 -82 -38.5 -120t-117.5 -38h-26zM1 753v61l127 90l127 -90v-61l-127 66z" />
    <glyph glyph-name="K" unicode="K" horiz-adv-x="566" 
d="M444 0l-259 371l259 329h115l-266 -327l269 -373h-118zM80 0v700h95v-700h-95z" />
    <glyph glyph-name="Kcommaaccent" unicode="&#x136;" horiz-adv-x="566" 
d="M444 0l-259 371l259 329h115l-266 -327l269 -373h-118zM80 0v700h95v-700h-95zM327 -304h-57l36 107h-35v106h108v-96z" />
    <glyph glyph-name="L" unicode="L" horiz-adv-x="501" 
d="M80 0v700h95v-614h321v-86h-416z" />
    <glyph glyph-name="uni01C7" unicode="&#x1c7;" horiz-adv-x="756" 
d="M80 0v700h95v-614h321v-86h-416zM494 -172l-13 82q54 0 77 23.5t23 74.5v692h95v-714q0 -82 -38.5 -120t-117.5 -38h-26z" />
    <glyph glyph-name="Lacute" unicode="&#x139;" horiz-adv-x="501" 
d="M80 0v700h95v-614h321v-86h-416zM35 764v58l187 95v-95z" />
    <glyph glyph-name="Lcaron" unicode="&#x13d;" horiz-adv-x="501" 
d="M80 0v700h95v-614h321v-86h-416zM402 533v167h94l-28 -167h-66z" />
    <glyph glyph-name="Lcommaaccent" unicode="&#x13b;" horiz-adv-x="501" 
d="M80 0v700h95v-614h321v-86h-416zM291 -304h-57l36 107h-35v106h108v-96z" />
    <glyph glyph-name="Ldot" unicode="&#x13f;" horiz-adv-x="501" 
d="M80 0v700h95v-614h321v-86h-416zM327 333v102h102v-102h-102z" />
    <glyph glyph-name="uni1E36" unicode="&#x1e36;" horiz-adv-x="501" 
d="M80 0v700h95v-614h321v-86h-416zM240 -171v90h96v-90h-96z" />
    <glyph glyph-name="uni01C8" unicode="&#x1c8;" horiz-adv-x="713" 
d="M80 0v700h95v-614h321v-86h-416zM499 -242l-10 69q30 3 45.5 11.5t21.5 29t6 59.5v563h90v-597q0 -47 -20 -74t-48.5 -39.5t-54.5 -16.5zM562 600v100h90v-100h-90z" />
    <glyph glyph-name="uni1E3A" unicode="&#x1e3a;" horiz-adv-x="501" 
d="M80 0v700h95v-614h321v-86h-416zM128 -162v71h320v-71h-320z" />
    <glyph glyph-name="Lslash" unicode="&#x141;" horiz-adv-x="501" 
d="M80 0v700h95v-614h321v-86h-416zM10 362v67l376 102v-67z" />
    <glyph glyph-name="M" unicode="M" horiz-adv-x="812" 
d="M48 0l94 700h81l184 -347l182 347h82l93 -700h-100l-71 571l25 -4l-210 -401l-214 401l25 4l-71 -571h-100z" />
    <glyph glyph-name="uni1E42" unicode="&#x1e42;" horiz-adv-x="812" 
d="M48 0l94 700h81l184 -347l182 347h82l93 -700h-100l-71 571l25 -4l-210 -401l-214 401l25 4l-71 -571h-100zM358 -171v90h96v-90h-96z" />
    <glyph glyph-name="N" unicode="N" horiz-adv-x="704" 
d="M80 0v700h103l345 -524v524h96v-700h-81l-368 553v-553h-95z" />
    <glyph glyph-name="uni01CA" unicode="&#x1ca;" horiz-adv-x="959" 
d="M80 0v700h103l345 -524v524h96v-700h-81l-368 553v-553h-95zM697 -172l-13 82q54 0 77 23.5t23 74.5v692h95v-714q0 -82 -38.5 -120t-117.5 -38h-26z" />
    <glyph glyph-name="Nacute" unicode="&#x143;" horiz-adv-x="704" 
d="M80 0v700h103l345 -524v524h96v-700h-81l-368 553v-553h-95zM263 764v58l187 95v-95z" />
    <glyph glyph-name="Ncaron" unicode="&#x147;" horiz-adv-x="704" 
d="M80 0v700h103l345 -524v524h96v-700h-81l-368 553v-553h-95zM229 930v-61l127 -90l127 90v61l-127 -66z" />
    <glyph glyph-name="Ncommaaccent" unicode="&#x145;" horiz-adv-x="704" 
d="M80 0v700h103l345 -524v524h96v-700h-81l-368 553v-553h-95zM362 -304h-57l36 107h-35v106h108v-96z" />
    <glyph glyph-name="uni1E44" unicode="&#x1e44;" horiz-adv-x="704" 
d="M80 0v700h103l345 -524v524h96v-700h-81l-368 553v-553h-95zM308 791v90h96v-90h-96z" />
    <glyph glyph-name="uni1E46" unicode="&#x1e46;" horiz-adv-x="704" 
d="M80 0v700h103l345 -524v524h96v-700h-81l-368 553v-553h-95zM311 -171v90h96v-90h-96z" />
    <glyph glyph-name="Eng" unicode="&#x14a;" horiz-adv-x="709" 
d="M645 50q0 -80 -30 -132t-83.5 -77.5t-121.5 -25.5q-42 0 -81 11l13 84q18 -4 36.5 -6.5t37.5 -2.5q60 0 96.5 34.5t36.5 104.5v410q0 86 -46 132t-137 46q-66 0 -114 -20t-76 -52v-556h-96v700h81l6 -67q43 40 99.5 60.5t120.5 20.5q86 0 143.5 -32t86 -89t28.5 -133
v-410z" />
    <glyph glyph-name="uni01CB" unicode="&#x1cb;" horiz-adv-x="907" 
d="M80 0v700h103l345 -524v524h96v-700h-81l-368 553v-553h-95zM693 -242l-10 69q30 3 45.5 11.5t21.5 29t6 59.5v563h90v-597q0 -47 -20 -74t-48.5 -39.5t-54.5 -16.5zM756 600v100h90v-100h-90z" />
    <glyph glyph-name="uni1E48" unicode="&#x1e48;" horiz-adv-x="704" 
d="M80 0v700h103l345 -524v524h96v-700h-81l-368 553v-553h-95zM199 -162v71h320v-71h-320z" />
    <glyph glyph-name="Ntilde" unicode="&#xd1;" horiz-adv-x="704" 
d="M80 0v700h103l345 -524v524h96v-700h-81l-368 553v-553h-95zM439 788q-23 0 -48 10l-49 20.5t-43 10.5q-34 0 -34 -36h-65q0 49 19 74.5t54 25.5q23 0 48 -10.5l49 -20.5t43 -10q34 0 34 36h65q0 -49 -19 -74.5t-54 -25.5z" />
    <glyph glyph-name="O" unicode="O" horiz-adv-x="770" 
d="M385 -14q-100 0 -178 45t-122.5 126.5t-44.5 192.5t44.5 192.5t122.5 126.5t178 45t178 -45t122.5 -126.5t44.5 -192.5t-44.5 -192.5t-122.5 -126.5t-178 -45zM385 78q81 0 135 36.5t81 98t27 137.5t-27 137.5t-81 98t-135 36.5t-135 -36.5t-81 -98t-27 -137.5t27 -137.5
t81 -98t135 -36.5z" />
    <glyph glyph-name="Oacute" unicode="&#xd3;" horiz-adv-x="770" 
d="M385 -14q-100 0 -178 45t-122.5 126.5t-44.5 192.5t44.5 192.5t122.5 126.5t178 45t178 -45t122.5 -126.5t44.5 -192.5t-44.5 -192.5t-122.5 -126.5t-178 -45zM385 78q81 0 135 36.5t81 98t27 137.5t-27 137.5t-81 98t-135 36.5t-135 -36.5t-81 -98t-27 -137.5t27 -137.5
t81 -98t135 -36.5zM292 764v58l187 95v-95z" />
    <glyph glyph-name="Obreve" unicode="&#x14e;" horiz-adv-x="770" 
d="M385 -14q-100 0 -178 45t-122.5 126.5t-44.5 192.5t44.5 192.5t122.5 126.5t178 45t178 -45t122.5 -126.5t44.5 -192.5t-44.5 -192.5t-122.5 -126.5t-178 -45zM385 78q81 0 135 36.5t81 98t27 137.5t-27 137.5t-81 98t-135 36.5t-135 -36.5t-81 -98t-27 -137.5t27 -137.5
t81 -98t135 -36.5zM385 764q-50 0 -82.5 17t-48 44.5t-15.5 58.5h80q0 -29 19.5 -43.5t46.5 -14.5t46.5 14.5t19.5 43.5h80q0 -31 -15.5 -58.5t-48 -44.5t-82.5 -17z" />
    <glyph glyph-name="Ocircumflex" unicode="&#xd4;" horiz-adv-x="770" 
d="M385 -14q-100 0 -178 45t-122.5 126.5t-44.5 192.5t44.5 192.5t122.5 126.5t178 45t178 -45t122.5 -126.5t44.5 -192.5t-44.5 -192.5t-122.5 -126.5t-178 -45zM385 78q81 0 135 36.5t81 98t27 137.5t-27 137.5t-81 98t-135 36.5t-135 -36.5t-81 -98t-27 -137.5t27 -137.5
t81 -98t135 -36.5zM258 753v61l127 90l127 -90v-61l-127 66z" />
    <glyph glyph-name="uni1ED0" unicode="&#x1ed0;" horiz-adv-x="770" 
d="M385 -14q-100 0 -178 45t-122.5 126.5t-44.5 192.5t44.5 192.5t122.5 126.5t178 45t178 -45t122.5 -126.5t44.5 -192.5t-44.5 -192.5t-122.5 -126.5t-178 -45zM385 78q81 0 135 36.5t81 98t27 137.5t-27 137.5t-81 98t-135 36.5t-135 -36.5t-81 -98t-27 -137.5t27 -137.5
t81 -98t135 -36.5zM258 753v61l127 90l127 -90v-61l-127 66zM460 899l66 117h98l-98 -117h-66z" />
    <glyph glyph-name="uni1ED8" unicode="&#x1ed8;" horiz-adv-x="770" 
d="M385 -14q-100 0 -178 45t-122.5 126.5t-44.5 192.5t44.5 192.5t122.5 126.5t178 45t178 -45t122.5 -126.5t44.5 -192.5t-44.5 -192.5t-122.5 -126.5t-178 -45zM385 78q81 0 135 36.5t81 98t27 137.5t-27 137.5t-81 98t-135 36.5t-135 -36.5t-81 -98t-27 -137.5t27 -137.5
t81 -98t135 -36.5zM258 774v61l127 110l127 -110v-61l-127 80zM337 -171v90h96v-90h-96z" />
    <glyph glyph-name="uni1ED2" unicode="&#x1ed2;" horiz-adv-x="770" 
d="M385 -14q-100 0 -178 45t-122.5 126.5t-44.5 192.5t44.5 192.5t122.5 126.5t178 45t178 -45t122.5 -126.5t44.5 -192.5t-44.5 -192.5t-122.5 -126.5t-178 -45zM385 78q81 0 135 36.5t81 98t27 137.5t-27 137.5t-81 98t-135 36.5t-135 -36.5t-81 -98t-27 -137.5t27 -137.5
t81 -98t135 -36.5zM258 753v61l127 90l127 -90v-61l-127 66zM474 899l-87 117h95l56 -117h-64z" />
    <glyph glyph-name="uni1ED4" unicode="&#x1ed4;" horiz-adv-x="770" 
d="M385 -14q-100 0 -178 45t-122.5 126.5t-44.5 192.5t44.5 192.5t122.5 126.5t178 45t178 -45t122.5 -126.5t44.5 -192.5t-44.5 -192.5t-122.5 -126.5t-178 -45zM385 78q81 0 135 36.5t81 98t27 137.5t-27 137.5t-81 98t-135 36.5t-135 -36.5t-81 -98t-27 -137.5t27 -137.5
t81 -98t135 -36.5zM258 753v61l127 90l127 -90v-61l-127 66zM481 872l-9 40q17 6 26 15.5t9 23.5q0 17 -11 24.5t-30 7.5q-16 0 -31.5 -5.5t-31.5 -13.5l-17 51q17 9 37 14t43 5q41 0 70 -20t29 -57q0 -33 -20 -54t-64 -31z" />
    <glyph glyph-name="uni1ED6" unicode="&#x1ed6;" horiz-adv-x="770" 
d="M385 -14q-100 0 -178 45t-122.5 126.5t-44.5 192.5t44.5 192.5t122.5 126.5t178 45t178 -45t122.5 -126.5t44.5 -192.5t-44.5 -192.5t-122.5 -126.5t-178 -45zM385 78q81 0 135 36.5t81 98t27 137.5t-27 137.5t-81 98t-135 36.5t-135 -36.5t-81 -98t-27 -137.5t27 -137.5
t81 -98t135 -36.5zM258 753v61l127 90l127 -90v-61l-127 66zM468 945q-23 0 -48 10.5l-49 20.5t-43 10q-34 0 -34 -36h-65q0 49 19 74.5t54 25.5q23 0 48 -10l49 -20.5t43 -10.5q34 0 34 36h65q0 -49 -19 -74.5t-54 -25.5z" />
    <glyph glyph-name="uni020C" unicode="&#x20c;" horiz-adv-x="770" 
d="M385 -14q-100 0 -178 45t-122.5 126.5t-44.5 192.5t44.5 192.5t122.5 126.5t178 45t178 -45t122.5 -126.5t44.5 -192.5t-44.5 -192.5t-122.5 -126.5t-178 -45zM385 78q81 0 135 36.5t81 98t27 137.5t-27 137.5t-81 98t-135 36.5t-135 -36.5t-81 -98t-27 -137.5t27 -137.5
t81 -98t135 -36.5zM489 788h-66l-90 147h98zM349 788h-66l-95 147h98z" />
    <glyph glyph-name="Odieresis" unicode="&#xd6;" horiz-adv-x="770" 
d="M385 -14q-100 0 -178 45t-122.5 126.5t-44.5 192.5t44.5 192.5t122.5 126.5t178 45t178 -45t122.5 -126.5t44.5 -192.5t-44.5 -192.5t-122.5 -126.5t-178 -45zM385 78q81 0 135 36.5t81 98t27 137.5t-27 137.5t-81 98t-135 36.5t-135 -36.5t-81 -98t-27 -137.5t27 -137.5
t81 -98t135 -36.5zM246 794v75h86v-75h-86zM438 794v75h86v-75h-86z" />
    <glyph glyph-name="uni022A" unicode="&#x22a;" horiz-adv-x="770" 
d="M385 -14q-100 0 -178 45t-122.5 126.5t-44.5 192.5t44.5 192.5t122.5 126.5t178 45t178 -45t122.5 -126.5t44.5 -192.5t-44.5 -192.5t-122.5 -126.5t-178 -45zM385 78q81 0 135 36.5t81 98t27 137.5t-27 137.5t-81 98t-135 36.5t-135 -36.5t-81 -98t-27 -137.5t27 -137.5
t81 -98t135 -36.5zM246 794v75h86v-75h-86zM438 794v75h86v-75h-86zM225 953v68h320v-68h-320z" />
    <glyph glyph-name="uni0230" unicode="&#x230;" horiz-adv-x="770" 
d="M385 -14q-100 0 -178 45t-122.5 126.5t-44.5 192.5t44.5 192.5t122.5 126.5t178 45t178 -45t122.5 -126.5t44.5 -192.5t-44.5 -192.5t-122.5 -126.5t-178 -45zM385 78q81 0 135 36.5t81 98t27 137.5t-27 137.5t-81 98t-135 36.5t-135 -36.5t-81 -98t-27 -137.5t27 -137.5
t81 -98t135 -36.5zM337 791v90h96v-90h-96zM225 959v68h320v-68h-320z" />
    <glyph glyph-name="uni1ECC" unicode="&#x1ecc;" horiz-adv-x="770" 
d="M385 -14q-100 0 -178 45t-122.5 126.5t-44.5 192.5t44.5 192.5t122.5 126.5t178 45t178 -45t122.5 -126.5t44.5 -192.5t-44.5 -192.5t-122.5 -126.5t-178 -45zM385 78q81 0 135 36.5t81 98t27 137.5t-27 137.5t-81 98t-135 36.5t-135 -36.5t-81 -98t-27 -137.5t27 -137.5
t81 -98t135 -36.5zM337 -171v90h96v-90h-96z" />
    <glyph glyph-name="Ograve" unicode="&#xd2;" horiz-adv-x="770" 
d="M385 -14q-100 0 -178 45t-122.5 126.5t-44.5 192.5t44.5 192.5t122.5 126.5t178 45t178 -45t122.5 -126.5t44.5 -192.5t-44.5 -192.5t-122.5 -126.5t-178 -45zM385 78q81 0 135 36.5t81 98t27 137.5t-27 137.5t-81 98t-135 36.5t-135 -36.5t-81 -98t-27 -137.5t27 -137.5
t81 -98t135 -36.5zM478 764l-187 58v95l187 -95v-58z" />
    <glyph glyph-name="uni1ECE" unicode="&#x1ece;" horiz-adv-x="770" 
d="M385 -14q-100 0 -178 45t-122.5 126.5t-44.5 192.5t44.5 192.5t122.5 126.5t178 45t178 -45t122.5 -126.5t44.5 -192.5t-44.5 -192.5t-122.5 -126.5t-178 -45zM385 78q81 0 135 36.5t81 98t27 137.5t-27 137.5t-81 98t-135 36.5t-135 -36.5t-81 -98t-27 -137.5t27 -137.5
t81 -98t135 -36.5zM384 760l-9 40q17 6 26 15.5t9 23.5q0 17 -11 24.5t-30 7.5q-16 0 -31.5 -5.5t-31.5 -13.5l-17 51q16 9 36.5 14t43.5 5q41 0 70 -20t29 -57q0 -33 -20 -54t-64 -31z" />
    <glyph glyph-name="Ohorn" unicode="&#x1a0;" horiz-adv-x="770" 
d="M385 -14q-100 0 -178 45t-122.5 126.5t-44.5 192.5t44.5 192.5t122.5 126.5t178 45t178 -45t122.5 -126.5t44.5 -192.5t-44.5 -192.5t-122.5 -126.5t-178 -45zM385 78q81 0 135 36.5t81 98t27 137.5t-27 137.5t-81 98t-135 36.5t-135 -36.5t-81 -98t-27 -137.5t27 -137.5
t81 -98t135 -36.5zM479 631v69q38 0 59 17t21 57h86q0 -38 -22 -70.5t-59.5 -52.5t-84.5 -20z" />
    <glyph glyph-name="uni1EDA" unicode="&#x1eda;" horiz-adv-x="770" 
d="M385 -14q-100 0 -178 45t-122.5 126.5t-44.5 192.5t44.5 192.5t122.5 126.5t178 45t178 -45t122.5 -126.5t44.5 -192.5t-44.5 -192.5t-122.5 -126.5t-178 -45zM385 78q81 0 135 36.5t81 98t27 137.5t-27 137.5t-81 98t-135 36.5t-135 -36.5t-81 -98t-27 -137.5t27 -137.5
t81 -98t135 -36.5zM479 631v69q38 0 59 17t21 57h86q0 -38 -22 -70.5t-59.5 -52.5t-84.5 -20zM292 764v58l187 95v-95z" />
    <glyph glyph-name="uni1EE2" unicode="&#x1ee2;" horiz-adv-x="770" 
d="M385 -14q-100 0 -178 45t-122.5 126.5t-44.5 192.5t44.5 192.5t122.5 126.5t178 45t178 -45t122.5 -126.5t44.5 -192.5t-44.5 -192.5t-122.5 -126.5t-178 -45zM385 78q81 0 135 36.5t81 98t27 137.5t-27 137.5t-81 98t-135 36.5t-135 -36.5t-81 -98t-27 -137.5t27 -137.5
t81 -98t135 -36.5zM479 631v69q38 0 59 17t21 57h86q0 -38 -22 -70.5t-59.5 -52.5t-84.5 -20zM337 -171v90h96v-90h-96z" />
    <glyph glyph-name="uni1EDC" unicode="&#x1edc;" horiz-adv-x="770" 
d="M385 -14q-100 0 -178 45t-122.5 126.5t-44.5 192.5t44.5 192.5t122.5 126.5t178 45t178 -45t122.5 -126.5t44.5 -192.5t-44.5 -192.5t-122.5 -126.5t-178 -45zM385 78q81 0 135 36.5t81 98t27 137.5t-27 137.5t-81 98t-135 36.5t-135 -36.5t-81 -98t-27 -137.5t27 -137.5
t81 -98t135 -36.5zM479 631v69q38 0 59 17t21 57h86q0 -38 -22 -70.5t-59.5 -52.5t-84.5 -20zM478 764l-187 58v95l187 -95v-58z" />
    <glyph glyph-name="uni1EDE" unicode="&#x1ede;" horiz-adv-x="770" 
d="M385 -14q-100 0 -178 45t-122.5 126.5t-44.5 192.5t44.5 192.5t122.5 126.5t178 45t178 -45t122.5 -126.5t44.5 -192.5t-44.5 -192.5t-122.5 -126.5t-178 -45zM385 78q81 0 135 36.5t81 98t27 137.5t-27 137.5t-81 98t-135 36.5t-135 -36.5t-81 -98t-27 -137.5t27 -137.5
t81 -98t135 -36.5zM479 631v69q38 0 59 17t21 57h86q0 -38 -22 -70.5t-59.5 -52.5t-84.5 -20zM384 760l-9 40q17 6 26 15.5t9 23.5q0 17 -11 24.5t-30 7.5q-16 0 -31.5 -5.5t-31.5 -13.5l-17 51q16 9 36.5 14t43.5 5q41 0 70 -20t29 -57q0 -33 -20 -54t-64 -31z" />
    <glyph glyph-name="uni1EE0" unicode="&#x1ee0;" horiz-adv-x="770" 
d="M385 -14q-100 0 -178 45t-122.5 126.5t-44.5 192.5t44.5 192.5t122.5 126.5t178 45t178 -45t122.5 -126.5t44.5 -192.5t-44.5 -192.5t-122.5 -126.5t-178 -45zM385 78q81 0 135 36.5t81 98t27 137.5t-27 137.5t-81 98t-135 36.5t-135 -36.5t-81 -98t-27 -137.5t27 -137.5
t81 -98t135 -36.5zM479 631v69q38 0 59 17t21 57h86q0 -38 -22 -70.5t-59.5 -52.5t-84.5 -20zM468 788q-23 0 -48 10l-49 20.5t-43 10.5q-34 0 -34 -36h-65q0 49 19 74.5t54 25.5q23 0 48 -10.5l49 -20.5t43 -10q34 0 34 36h65q0 -49 -19 -74.5t-54 -25.5z" />
    <glyph glyph-name="Ohungarumlaut" unicode="&#x150;" horiz-adv-x="770" 
d="M385 -14q-100 0 -178 45t-122.5 126.5t-44.5 192.5t44.5 192.5t122.5 126.5t178 45t178 -45t122.5 -126.5t44.5 -192.5t-44.5 -192.5t-122.5 -126.5t-178 -45zM385 78q81 0 135 36.5t81 98t27 137.5t-27 137.5t-81 98t-135 36.5t-135 -36.5t-81 -98t-27 -137.5t27 -137.5
t81 -98t135 -36.5zM281 788l66 147h98l-98 -147h-66zM421 788l71 147h98l-103 -147h-66z" />
    <glyph glyph-name="uni020E" unicode="&#x20e;" horiz-adv-x="770" 
d="M385 -14q-100 0 -178 45t-122.5 126.5t-44.5 192.5t44.5 192.5t122.5 126.5t178 45t178 -45t122.5 -126.5t44.5 -192.5t-44.5 -192.5t-122.5 -126.5t-178 -45zM385 78q81 0 135 36.5t81 98t27 137.5t-27 137.5t-81 98t-135 36.5t-135 -36.5t-81 -98t-27 -137.5t27 -137.5
t81 -98t135 -36.5zM385 899q50 0 82.5 -17t48 -44.5t15.5 -58.5h-80q0 29 -19.5 43.5t-46.5 14.5t-46.5 -14.5t-19.5 -43.5h-80q0 31 15.5 58.5t48 44.5t82.5 17z" />
    <glyph glyph-name="Omacron" unicode="&#x14c;" horiz-adv-x="770" 
d="M385 -14q-100 0 -178 45t-122.5 126.5t-44.5 192.5t44.5 192.5t122.5 126.5t178 45t178 -45t122.5 -126.5t44.5 -192.5t-44.5 -192.5t-122.5 -126.5t-178 -45zM385 78q81 0 135 36.5t81 98t27 137.5t-27 137.5t-81 98t-135 36.5t-135 -36.5t-81 -98t-27 -137.5t27 -137.5
t81 -98t135 -36.5zM225 793v68h320v-68h-320z" />
    <glyph glyph-name="uni1E52" unicode="&#x1e52;" horiz-adv-x="770" 
d="M385 -14q-100 0 -178 45t-122.5 126.5t-44.5 192.5t44.5 192.5t122.5 126.5t178 45t178 -45t122.5 -126.5t44.5 -192.5t-44.5 -192.5t-122.5 -126.5t-178 -45zM385 78q81 0 135 36.5t81 98t27 137.5t-27 137.5t-81 98t-135 36.5t-135 -36.5t-81 -98t-27 -137.5t27 -137.5
t81 -98t135 -36.5zM225 793v68h320v-68h-320zM292 936v58l187 95v-95z" />
    <glyph glyph-name="uni1E50" unicode="&#x1e50;" horiz-adv-x="770" 
d="M385 -14q-100 0 -178 45t-122.5 126.5t-44.5 192.5t44.5 192.5t122.5 126.5t178 45t178 -45t122.5 -126.5t44.5 -192.5t-44.5 -192.5t-122.5 -126.5t-178 -45zM385 78q81 0 135 36.5t81 98t27 137.5t-27 137.5t-81 98t-135 36.5t-135 -36.5t-81 -98t-27 -137.5t27 -137.5
t81 -98t135 -36.5zM225 793v68h320v-68h-320zM478 936l-187 58v95l187 -95v-58z" />
    <glyph glyph-name="uni01EA" unicode="&#x1ea;" horiz-adv-x="770" 
d="M385 -14q-100 0 -178 45t-122.5 126.5t-44.5 192.5t44.5 192.5t122.5 126.5t178 45t178 -45t122.5 -126.5t44.5 -192.5t-44.5 -192.5t-122.5 -126.5t-178 -45zM385 78q81 0 135 36.5t81 98t27 137.5t-27 137.5t-81 98t-135 36.5t-135 -36.5t-81 -98t-27 -137.5t27 -137.5
t81 -98t135 -36.5zM412 0h53q-35 -27 -56.5 -52.5t-21.5 -53.5q0 -26 13 -38.5t35 -12.5q17 0 32.5 4.5t30.5 12.5l15 -49q-14 -7 -35 -13t-48 -6q-42 0 -71.5 22t-29.5 64q0 40 26.5 72.5t56.5 49.5z" />
    <glyph glyph-name="Oslash" unicode="&#xd8;" horiz-adv-x="770" 
d="M70 -44l539 788h91l-539 -788h-91zM385 -14q-100 0 -178 45t-122.5 126.5t-44.5 192.5t44.5 192.5t122.5 126.5t178 45t178 -45t122.5 -126.5t44.5 -192.5t-44.5 -192.5t-122.5 -126.5t-178 -45zM385 78q81 0 135 36.5t81 98t27 137.5t-27 137.5t-81 98t-135 36.5
t-135 -36.5t-81 -98t-27 -137.5t27 -137.5t81 -98t135 -36.5z" />
    <glyph glyph-name="Oslashacute" unicode="&#x1fe;" horiz-adv-x="770" 
d="M70 -44l539 788h91l-539 -788h-91zM385 -14q-100 0 -178 45t-122.5 126.5t-44.5 192.5t44.5 192.5t122.5 126.5t178 45t178 -45t122.5 -126.5t44.5 -192.5t-44.5 -192.5t-122.5 -126.5t-178 -45zM385 78q81 0 135 36.5t81 98t27 137.5t-27 137.5t-81 98t-135 36.5
t-135 -36.5t-81 -98t-27 -137.5t27 -137.5t81 -98t135 -36.5zM291 764v58l187 95v-95z" />
    <glyph glyph-name="Otilde" unicode="&#xd5;" horiz-adv-x="770" 
d="M385 -14q-100 0 -178 45t-122.5 126.5t-44.5 192.5t44.5 192.5t122.5 126.5t178 45t178 -45t122.5 -126.5t44.5 -192.5t-44.5 -192.5t-122.5 -126.5t-178 -45zM385 78q81 0 135 36.5t81 98t27 137.5t-27 137.5t-81 98t-135 36.5t-135 -36.5t-81 -98t-27 -137.5t27 -137.5
t81 -98t135 -36.5zM468 788q-23 0 -48 10l-49 20.5t-43 10.5q-34 0 -34 -36h-65q0 49 19 74.5t54 25.5q23 0 48 -10.5l49 -20.5t43 -10q34 0 34 36h65q0 -49 -19 -74.5t-54 -25.5z" />
    <glyph glyph-name="uni1E4C" unicode="&#x1e4c;" horiz-adv-x="770" 
d="M385 -14q-100 0 -178 45t-122.5 126.5t-44.5 192.5t44.5 192.5t122.5 126.5t178 45t178 -45t122.5 -126.5t44.5 -192.5t-44.5 -192.5t-122.5 -126.5t-178 -45zM385 78q81 0 135 36.5t81 98t27 137.5t-27 137.5t-81 98t-135 36.5t-135 -36.5t-81 -98t-27 -137.5t27 -137.5
t81 -98t135 -36.5zM468 788q-23 0 -48 10l-49 20.5t-43 10.5q-34 0 -34 -36h-65q0 49 19 74.5t54 25.5q23 0 48 -10.5l49 -20.5t43 -10q34 0 34 36h65q0 -49 -19 -74.5t-54 -25.5zM292 940v58l187 95v-95z" />
    <glyph glyph-name="uni1E4E" unicode="&#x1e4e;" horiz-adv-x="770" 
d="M385 -14q-100 0 -178 45t-122.5 126.5t-44.5 192.5t44.5 192.5t122.5 126.5t178 45t178 -45t122.5 -126.5t44.5 -192.5t-44.5 -192.5t-122.5 -126.5t-178 -45zM385 78q81 0 135 36.5t81 98t27 137.5t-27 137.5t-81 98t-135 36.5t-135 -36.5t-81 -98t-27 -137.5t27 -137.5
t81 -98t135 -36.5zM468 788q-23 0 -48 10l-49 20.5t-43 10.5q-34 0 -34 -36h-65q0 49 19 74.5t54 25.5q23 0 48 -10.5l49 -20.5t43 -10q34 0 34 36h65q0 -49 -19 -74.5t-54 -25.5zM246 970v75h86v-75h-86zM438 970v75h86v-75h-86z" />
    <glyph glyph-name="uni022C" unicode="&#x22c;" horiz-adv-x="770" 
d="M385 -14q-100 0 -178 45t-122.5 126.5t-44.5 192.5t44.5 192.5t122.5 126.5t178 45t178 -45t122.5 -126.5t44.5 -192.5t-44.5 -192.5t-122.5 -126.5t-178 -45zM385 78q81 0 135 36.5t81 98t27 137.5t-27 137.5t-81 98t-135 36.5t-135 -36.5t-81 -98t-27 -137.5t27 -137.5
t81 -98t135 -36.5zM468 788q-23 0 -48 10l-49 20.5t-43 10.5q-34 0 -34 -36h-65q0 49 19 74.5t54 25.5q23 0 48 -10.5l49 -20.5t43 -10q34 0 34 36h65q0 -49 -19 -74.5t-54 -25.5zM225 969v68h320v-68h-320z" />
    <glyph glyph-name="OE" unicode="&#x152;" horiz-adv-x="1071" 
d="M700 350q0 -83 -26 -150t-71 -115t-104.5 -73.5t-126.5 -25.5q-96 0 -171 45t-118 126.5t-43 192.5q0 83 24.5 150t69 115t105.5 73.5t133 25.5q67 0 126.5 -25.5t104.5 -73.5t71 -115t26 -150zM378 72q80 0 132.5 37t78.5 100t26 141t-26 141t-78.5 100t-132.5 37
t-133 -37t-79 -100t-26 -141t26 -141t79 -100t133 -37zM624 699h401v-85h-310v-205h238v-86h-238v-237h319v-86h-410v699z" />
    <glyph glyph-name="P" unicode="P" horiz-adv-x="572" 
d="M80 0v700h231q71 0 124 -22.5t83 -72.5t30 -132q0 -81 -30 -131t-83 -73.5t-124 -23.5h-131v-245h-100zM180 330h117q77 0 115 34.5t38 107.5t-36.5 108t-116.5 35h-117v-285z" />
    <glyph glyph-name="Thorn" unicode="&#xde;" horiz-adv-x="574" 
d="M80 0v700h100v-155h165q107 0 156 -48.5t49 -128.5t-49 -128.5t-156 -48.5h-165v-191h-100zM180 276h158q56 0 85 23.5t29 68.5t-29 68.5t-85 23.5h-158v-184z" />
    <glyph glyph-name="Q" unicode="Q" horiz-adv-x="770" 
d="M441 202l54 55l220 -216l-54 -55zM385 -14q-100 0 -178 45t-122.5 126.5t-44.5 192.5t44.5 192.5t122.5 126.5t178 45t178 -45t122.5 -126.5t44.5 -192.5t-44.5 -192.5t-122.5 -126.5t-178 -45zM385 78q81 0 135 36.5t81 98t27 137.5t-27 137.5t-81 98t-135 36.5
t-135 -36.5t-81 -98t-27 -137.5t27 -137.5t81 -98t135 -36.5z" />
    <glyph glyph-name="R" unicode="R" horiz-adv-x="603" 
d="M80 0v700h227q73 0 127.5 -22.5t84.5 -69.5t30 -121q0 -72 -31.5 -120.5t-90.5 -76.5l157 -290h-116l-142 273h-3h-2h-141v-273h-100zM180 358h126q71 0 107.5 34.5t36.5 94.5q0 61 -36.5 94.5t-107.5 33.5h-126v-257z" />
    <glyph glyph-name="Racute" unicode="&#x154;" horiz-adv-x="603" 
d="M80 0v700h227q73 0 127.5 -22.5t84.5 -69.5t30 -121q0 -72 -31.5 -120.5t-90.5 -76.5l157 -290h-116l-142 273h-3h-2h-141v-273h-100zM180 358h126q71 0 107.5 34.5t36.5 94.5q0 61 -36.5 94.5t-107.5 33.5h-126v-257zM214 764v58l187 95v-95z" />
    <glyph glyph-name="Rcaron" unicode="&#x158;" horiz-adv-x="603" 
d="M80 0v700h227q73 0 127.5 -22.5t84.5 -69.5t30 -121q0 -72 -31.5 -120.5t-90.5 -76.5l157 -290h-116l-142 273h-3h-2h-141v-273h-100zM180 358h126q71 0 107.5 34.5t36.5 94.5q0 61 -36.5 94.5t-107.5 33.5h-126v-257zM180 930v-61l127 -90l127 90v61l-127 -66z" />
    <glyph glyph-name="Rcommaaccent" unicode="&#x156;" horiz-adv-x="603" 
d="M80 0v700h227q73 0 127.5 -22.5t84.5 -69.5t30 -121q0 -72 -31.5 -120.5t-90.5 -76.5l157 -290h-116l-142 273h-3h-2h-141v-273h-100zM180 358h126q71 0 107.5 34.5t36.5 94.5q0 61 -36.5 94.5t-107.5 33.5h-126v-257zM334 -304h-57l36 107h-35v106h108v-96z" />
    <glyph glyph-name="uni0210" unicode="&#x210;" horiz-adv-x="603" 
d="M80 0v700h227q73 0 127.5 -22.5t84.5 -69.5t30 -121q0 -72 -31.5 -120.5t-90.5 -76.5l157 -290h-116l-142 273h-3h-2h-141v-273h-100zM180 358h126q71 0 107.5 34.5t36.5 94.5q0 61 -36.5 94.5t-107.5 33.5h-126v-257zM411 788h-66l-90 147h98zM271 788h-66l-95 147h98z
" />
    <glyph glyph-name="uni1E5A" unicode="&#x1e5a;" horiz-adv-x="603" 
d="M80 0v700h227q73 0 127.5 -22.5t84.5 -69.5t30 -121q0 -72 -31.5 -120.5t-90.5 -76.5l157 -290h-116l-142 273h-3h-2h-141v-273h-100zM180 358h126q71 0 107.5 34.5t36.5 94.5q0 61 -36.5 94.5t-107.5 33.5h-126v-257zM283 -171v90h96v-90h-96z" />
    <glyph glyph-name="uni0212" unicode="&#x212;" horiz-adv-x="603" 
d="M80 0v700h227q73 0 127.5 -22.5t84.5 -69.5t30 -121q0 -72 -31.5 -120.5t-90.5 -76.5l157 -290h-116l-142 273h-3h-2h-141v-273h-100zM180 358h126q71 0 107.5 34.5t36.5 94.5q0 61 -36.5 94.5t-107.5 33.5h-126v-257zM307 899q50 0 82.5 -17t48 -44.5t15.5 -58.5h-80
q0 29 -19.5 43.5t-46.5 14.5t-46.5 -14.5t-19.5 -43.5h-80q0 31 15.5 58.5t48 44.5t82.5 17z" />
    <glyph glyph-name="uni1E5E" unicode="&#x1e5e;" horiz-adv-x="603" 
d="M80 0v700h227q73 0 127.5 -22.5t84.5 -69.5t30 -121q0 -72 -31.5 -120.5t-90.5 -76.5l157 -290h-116l-142 273h-3h-2h-141v-273h-100zM180 358h126q71 0 107.5 34.5t36.5 94.5q0 61 -36.5 94.5t-107.5 33.5h-126v-257zM171 -162v71h320v-71h-320z" />
    <glyph glyph-name="S" unicode="S" horiz-adv-x="584" 
d="M280 -14q-44 0 -87 6.5t-80 17t-62 21.5l13 101q27 -13 65.5 -27t82.5 -23.5t90 -9.5q68 0 107.5 25t39.5 77q0 40 -20 65t-60.5 43t-100.5 36q-58 17 -106 40t-77.5 62.5t-29.5 104.5q0 55 28.5 98t84.5 67t137 24q69 0 127 -15t95 -33l-10 -101q-57 34 -109 48.5
t-107 14.5q-61 0 -101.5 -23t-40.5 -75q0 -35 18 -57t53.5 -38t88.5 -32q73 -22 125.5 -50.5t80.5 -69.5t28 -102q0 -45 -17 -81t-51 -61.5t-85 -39t-120 -13.5z" />
    <glyph glyph-name="Sacute" unicode="&#x15a;" horiz-adv-x="584" 
d="M280 -14q-44 0 -87 6.5t-80 17t-62 21.5l13 101q27 -13 65.5 -27t82.5 -23.5t90 -9.5q68 0 107.5 25t39.5 77q0 40 -20 65t-60.5 43t-100.5 36q-58 17 -106 40t-77.5 62.5t-29.5 104.5q0 55 28.5 98t84.5 67t137 24q69 0 127 -15t95 -33l-10 -101q-57 34 -109 48.5
t-107 14.5q-61 0 -101.5 -23t-40.5 -75q0 -35 18 -57t53.5 -38t88.5 -32q73 -22 125.5 -50.5t80.5 -69.5t28 -102q0 -45 -17 -81t-51 -61.5t-85 -39t-120 -13.5zM223 764v58l187 95v-95z" />
    <glyph glyph-name="uni1E64" unicode="&#x1e64;" horiz-adv-x="584" 
d="M280 -14q-44 0 -87 6.5t-80 17t-62 21.5l13 101q27 -13 65.5 -27t82.5 -23.5t90 -9.5q68 0 107.5 25t39.5 77q0 40 -20 65t-60.5 43t-100.5 36q-58 17 -106 40t-77.5 62.5t-29.5 104.5q0 55 28.5 98t84.5 67t137 24q69 0 127 -15t95 -33l-10 -101q-57 34 -109 48.5
t-107 14.5q-61 0 -101.5 -23t-40.5 -75q0 -35 18 -57t53.5 -38t88.5 -32q73 -22 125.5 -50.5t80.5 -69.5t28 -102q0 -45 -17 -81t-51 -61.5t-85 -39t-120 -13.5zM223 764v58l187 95v-95zM268 963v90h96v-90h-96z" />
    <glyph glyph-name="Scaron" unicode="&#x160;" horiz-adv-x="584" 
d="M280 -14q-44 0 -87 6.5t-80 17t-62 21.5l13 101q27 -13 65.5 -27t82.5 -23.5t90 -9.5q68 0 107.5 25t39.5 77q0 40 -20 65t-60.5 43t-100.5 36q-58 17 -106 40t-77.5 62.5t-29.5 104.5q0 55 28.5 98t84.5 67t137 24q69 0 127 -15t95 -33l-10 -101q-57 34 -109 48.5
t-107 14.5q-61 0 -101.5 -23t-40.5 -75q0 -35 18 -57t53.5 -38t88.5 -32q73 -22 125.5 -50.5t80.5 -69.5t28 -102q0 -45 -17 -81t-51 -61.5t-85 -39t-120 -13.5zM189 930v-61l127 -90l127 90v61l-127 -66z" />
    <glyph glyph-name="uni1E66" unicode="&#x1e66;" horiz-adv-x="584" 
d="M280 -14q-44 0 -87 6.5t-80 17t-62 21.5l13 101q27 -13 65.5 -27t82.5 -23.5t90 -9.5q68 0 107.5 25t39.5 77q0 40 -20 65t-60.5 43t-100.5 36q-58 17 -106 40t-77.5 62.5t-29.5 104.5q0 55 28.5 98t84.5 67t137 24q69 0 127 -15t95 -33l-10 -101q-57 34 -109 48.5
t-107 14.5q-61 0 -101.5 -23t-40.5 -75q0 -35 18 -57t53.5 -38t88.5 -32q73 -22 125.5 -50.5t80.5 -69.5t28 -102q0 -45 -17 -81t-51 -61.5t-85 -39t-120 -13.5zM189 930v-61l127 -90l127 90v61l-127 -66zM268 976v90h96v-90h-96z" />
    <glyph glyph-name="Scedilla" unicode="&#x15e;" horiz-adv-x="584" 
d="M280 -14q-44 0 -87 6.5t-80 17t-62 21.5l13 101q27 -13 65.5 -27t82.5 -23.5t90 -9.5q68 0 107.5 25t39.5 77q0 40 -20 65t-60.5 43t-100.5 36q-58 17 -106 40t-77.5 62.5t-29.5 104.5q0 55 28.5 98t84.5 67t137 24q69 0 127 -15t95 -33l-10 -101q-57 34 -109 48.5
t-107 14.5q-61 0 -101.5 -23t-40.5 -75q0 -35 18 -57t53.5 -38t88.5 -32q73 -22 125.5 -50.5t80.5 -69.5t28 -102q0 -45 -17 -81t-51 -61.5t-85 -39t-120 -13.5zM296 -79l-33 15q12 4 24 7t25 3q41 0 64 -22t23 -59q0 -44 -31 -67.5t-75 -23.5q-26 0 -45 6t-33 13l15 49
q15 -8 30.5 -12.5t32.5 -4.5q22 0 35 9.5t13 28.5q0 18 -12 29t-38 11q-11 0 -22 -1.5t-24 -6.5l26 105h50z" />
    <glyph glyph-name="Scircumflex" unicode="&#x15c;" horiz-adv-x="584" 
d="M280 -14q-44 0 -87 6.5t-80 17t-62 21.5l13 101q27 -13 65.5 -27t82.5 -23.5t90 -9.5q68 0 107.5 25t39.5 77q0 40 -20 65t-60.5 43t-100.5 36q-58 17 -106 40t-77.5 62.5t-29.5 104.5q0 55 28.5 98t84.5 67t137 24q69 0 127 -15t95 -33l-10 -101q-57 34 -109 48.5
t-107 14.5q-61 0 -101.5 -23t-40.5 -75q0 -35 18 -57t53.5 -38t88.5 -32q73 -22 125.5 -50.5t80.5 -69.5t28 -102q0 -45 -17 -81t-51 -61.5t-85 -39t-120 -13.5zM189 753v61l127 90l127 -90v-61l-127 66z" />
    <glyph glyph-name="Scommaaccent" unicode="&#x218;" horiz-adv-x="584" 
d="M280 -14q-44 0 -87 6.5t-80 17t-62 21.5l13 101q27 -13 65.5 -27t82.5 -23.5t90 -9.5q68 0 107.5 25t39.5 77q0 40 -20 65t-60.5 43t-100.5 36q-58 17 -106 40t-77.5 62.5t-29.5 104.5q0 55 28.5 98t84.5 67t137 24q69 0 127 -15t95 -33l-10 -101q-57 34 -109 48.5
t-107 14.5q-61 0 -101.5 -23t-40.5 -75q0 -35 18 -57t53.5 -38t88.5 -32q73 -22 125.5 -50.5t80.5 -69.5t28 -102q0 -45 -17 -81t-51 -61.5t-85 -39t-120 -13.5zM296 -304h-57l36 107h-35v106h108v-96z" />
    <glyph glyph-name="uni1E60" unicode="&#x1e60;" horiz-adv-x="584" 
d="M280 -14q-44 0 -87 6.5t-80 17t-62 21.5l13 101q27 -13 65.5 -27t82.5 -23.5t90 -9.5q68 0 107.5 25t39.5 77q0 40 -20 65t-60.5 43t-100.5 36q-58 17 -106 40t-77.5 62.5t-29.5 104.5q0 55 28.5 98t84.5 67t137 24q69 0 127 -15t95 -33l-10 -101q-57 34 -109 48.5
t-107 14.5q-61 0 -101.5 -23t-40.5 -75q0 -35 18 -57t53.5 -38t88.5 -32q73 -22 125.5 -50.5t80.5 -69.5t28 -102q0 -45 -17 -81t-51 -61.5t-85 -39t-120 -13.5zM268 791v90h96v-90h-96z" />
    <glyph glyph-name="uni1E62" unicode="&#x1e62;" horiz-adv-x="584" 
d="M280 -14q-44 0 -87 6.5t-80 17t-62 21.5l13 101q27 -13 65.5 -27t82.5 -23.5t90 -9.5q68 0 107.5 25t39.5 77q0 40 -20 65t-60.5 43t-100.5 36q-58 17 -106 40t-77.5 62.5t-29.5 104.5q0 55 28.5 98t84.5 67t137 24q69 0 127 -15t95 -33l-10 -101q-57 34 -109 48.5
t-107 14.5q-61 0 -101.5 -23t-40.5 -75q0 -35 18 -57t53.5 -38t88.5 -32q73 -22 125.5 -50.5t80.5 -69.5t28 -102q0 -45 -17 -81t-51 -61.5t-85 -39t-120 -13.5zM245 -171v90h96v-90h-96z" />
    <glyph glyph-name="uni1E68" unicode="&#x1e68;" horiz-adv-x="584" 
d="M280 -14q-44 0 -87 6.5t-80 17t-62 21.5l13 101q27 -13 65.5 -27t82.5 -23.5t90 -9.5q68 0 107.5 25t39.5 77q0 40 -20 65t-60.5 43t-100.5 36q-58 17 -106 40t-77.5 62.5t-29.5 104.5q0 55 28.5 98t84.5 67t137 24q69 0 127 -15t95 -33l-10 -101q-57 34 -109 48.5
t-107 14.5q-61 0 -101.5 -23t-40.5 -75q0 -35 18 -57t53.5 -38t88.5 -32q73 -22 125.5 -50.5t80.5 -69.5t28 -102q0 -45 -17 -81t-51 -61.5t-85 -39t-120 -13.5zM268 791v90h96v-90h-96zM245 -171v90h96v-90h-96z" />
    <glyph glyph-name="uni1E9E" unicode="&#x1e9e;" horiz-adv-x="615" 
d="M80 0v491q0 75 32.5 124.5t90 74t132.5 24.5q65 0 117 -17t89 -42v-76l-178 -214l-22 42q62 0 115.5 -21t86.5 -66.5t33 -121.5q0 -72 -31 -119t-81 -70t-107 -23q-27 0 -51 3.5t-49 10.5v82q43 -10 93 -10q58 0 92 33t34 92q0 66 -39.5 102t-117.5 36h-24v76l192 234
l-8 -42q-24 12 -60 21.5t-84 9.5q-73 0 -116.5 -37.5t-43.5 -103.5v-493h-95z" />
    <glyph glyph-name="uni018F" unicode="&#x18f;" horiz-adv-x="699" 
d="M555 342q0 134 -63.5 210t-183.5 76q-61 0 -118 -15t-111 -38l-18 80q53 25 119 42t139 17q105 0 181 -45.5t117.5 -129t41.5 -199.5q0 -72 -22 -136t-64 -113t-102.5 -77t-138.5 -28q-87 0 -155.5 34.5t-107.5 101t-39 160.5q0 15 1 32.5t5 36.5h563v-84h-465
q0 -89 49 -142t152 -53q102 0 161 72.5t59 197.5z" />
    <glyph glyph-name="T" unicode="T" horiz-adv-x="533" 
d="M219 0v614h-204v86h503v-86h-204v-614h-95z" />
    <glyph glyph-name="Tbar" unicode="&#x166;" horiz-adv-x="533" 
d="M219 0v614h-204v86h503v-86h-204v-614h-95zM89 327v63h355v-63h-355z" />
    <glyph glyph-name="Tcaron" unicode="&#x164;" horiz-adv-x="533" 
d="M219 0v614h-204v86h503v-86h-204v-614h-95zM267 768l-127 110v61l127 -80l127 80v-61z" />
    <glyph glyph-name="Tcommaaccent" unicode="&#x162;" horiz-adv-x="533" 
d="M219 0v614h-204v86h503v-86h-204v-614h-95zM270 -79l-33 15q12 4 24 7t25 3q41 0 64 -22t23 -59q0 -44 -31 -67.5t-75 -23.5q-26 0 -45 6t-33 13l15 49q15 -8 30.5 -12.5t32.5 -4.5q22 0 35 9.5t13 28.5q0 18 -12 29t-38 11q-11 0 -22 -1.5t-24 -6.5l26 105h50z" />
    <glyph glyph-name="uni021A" unicode="&#x21a;" horiz-adv-x="533" 
d="M219 0v614h-204v86h503v-86h-204v-614h-95zM270 -304h-57l36 107h-35v106h108v-96z" />
    <glyph glyph-name="uni1E6C" unicode="&#x1e6c;" horiz-adv-x="533" 
d="M219 0v614h-204v86h503v-86h-204v-614h-95zM219 -171v90h96v-90h-96z" />
    <glyph glyph-name="uni1E6E" unicode="&#x1e6e;" horiz-adv-x="533" 
d="M219 0v614h-204v86h503v-86h-204v-614h-95zM107 -162v71h320v-71h-320z" />
    <glyph glyph-name="U" unicode="U" horiz-adv-x="724" 
d="M362 -14q-98 0 -162.5 38t-96 107.5t-31.5 165.5v403h95v-377q0 -48 7.5 -93t28 -80.5t59 -56.5t100.5 -21t100.5 21t59 57t28 80.5t7.5 92.5v377h95v-403q0 -96 -31.5 -165.5t-96 -107.5t-162.5 -38z" />
    <glyph glyph-name="Uacute" unicode="&#xda;" horiz-adv-x="724" 
d="M362 -14q-98 0 -162.5 38t-96 107.5t-31.5 165.5v403h95v-377q0 -48 7.5 -93t28 -80.5t59 -56.5t100.5 -21t100.5 21t59 57t28 80.5t7.5 92.5v377h95v-403q0 -96 -31.5 -165.5t-96 -107.5t-162.5 -38zM269 764v58l187 95v-95z" />
    <glyph glyph-name="Ubreve" unicode="&#x16c;" horiz-adv-x="724" 
d="M362 -14q-98 0 -162.5 38t-96 107.5t-31.5 165.5v403h95v-377q0 -48 7.5 -93t28 -80.5t59 -56.5t100.5 -21t100.5 21t59 57t28 80.5t7.5 92.5v377h95v-403q0 -96 -31.5 -165.5t-96 -107.5t-162.5 -38zM362 764q-50 0 -82.5 17t-48 44.5t-15.5 58.5h80q0 -29 19.5 -43.5
t46.5 -14.5t46.5 14.5t19.5 43.5h80q0 -31 -15.5 -58.5t-48 -44.5t-82.5 -17z" />
    <glyph glyph-name="Ucircumflex" unicode="&#xdb;" horiz-adv-x="724" 
d="M362 -14q-98 0 -162.5 38t-96 107.5t-31.5 165.5v403h95v-377q0 -48 7.5 -93t28 -80.5t59 -56.5t100.5 -21t100.5 21t59 57t28 80.5t7.5 92.5v377h95v-403q0 -96 -31.5 -165.5t-96 -107.5t-162.5 -38zM235 753v61l127 90l127 -90v-61l-127 66z" />
    <glyph glyph-name="uni0214" unicode="&#x214;" horiz-adv-x="724" 
d="M362 -14q-98 0 -162.5 38t-96 107.5t-31.5 165.5v403h95v-377q0 -48 7.5 -93t28 -80.5t59 -56.5t100.5 -21t100.5 21t59 57t28 80.5t7.5 92.5v377h95v-403q0 -96 -31.5 -165.5t-96 -107.5t-162.5 -38zM466 788h-66l-98 167h98zM326 788h-66l-103 167h98z" />
    <glyph glyph-name="Udieresis" unicode="&#xdc;" horiz-adv-x="724" 
d="M362 -14q-98 0 -162.5 38t-96 107.5t-31.5 165.5v403h95v-377q0 -48 7.5 -93t28 -80.5t59 -56.5t100.5 -21t100.5 21t59 57t28 80.5t7.5 92.5v377h95v-403q0 -96 -31.5 -165.5t-96 -107.5t-162.5 -38zM223 794v75h86v-75h-86zM415 794v75h86v-75h-86z" />
    <glyph glyph-name="uni1EE4" unicode="&#x1ee4;" horiz-adv-x="724" 
d="M362 -14q-98 0 -162.5 38t-96 107.5t-31.5 165.5v403h95v-377q0 -48 7.5 -93t28 -80.5t59 -56.5t100.5 -21t100.5 21t59 57t28 80.5t7.5 92.5v377h95v-403q0 -96 -31.5 -165.5t-96 -107.5t-162.5 -38zM314 -171v90h96v-90h-96z" />
    <glyph glyph-name="Ugrave" unicode="&#xd9;" horiz-adv-x="724" 
d="M362 -14q-98 0 -162.5 38t-96 107.5t-31.5 165.5v403h95v-377q0 -48 7.5 -93t28 -80.5t59 -56.5t100.5 -21t100.5 21t59 57t28 80.5t7.5 92.5v377h95v-403q0 -96 -31.5 -165.5t-96 -107.5t-162.5 -38zM455 764l-187 58v95l187 -95v-58z" />
    <glyph glyph-name="uni1EE6" unicode="&#x1ee6;" horiz-adv-x="724" 
d="M362 -14q-98 0 -162.5 38t-96 107.5t-31.5 165.5v403h95v-377q0 -48 7.5 -93t28 -80.5t59 -56.5t100.5 -21t100.5 21t59 57t28 80.5t7.5 92.5v377h95v-403q0 -96 -31.5 -165.5t-96 -107.5t-162.5 -38zM361 760l-9 40q17 6 26 15.5t9 23.5q0 17 -11 24.5t-30 7.5
q-16 0 -31.5 -5.5t-31.5 -13.5l-17 51q16 9 36.5 14t43.5 5q41 0 70 -20t29 -57q0 -33 -20 -54t-64 -31z" />
    <glyph glyph-name="Uhorn" unicode="&#x1af;" horiz-adv-x="724" 
d="M362 -14q-98 0 -162.5 38t-96 107.5t-31.5 165.5v403h95v-377q0 -48 7.5 -93t28 -80.5t59 -56.5t100.5 -21t100.5 21t59 57t28 80.5t7.5 92.5v377h95v-403q0 -96 -31.5 -165.5t-96 -107.5t-162.5 -38zM605 631v69q38 0 59 17t21 57h86q0 -38 -22 -70.5t-59.5 -52.5
t-84.5 -20z" />
    <glyph glyph-name="uni1EE8" unicode="&#x1ee8;" horiz-adv-x="724" 
d="M362 -14q-98 0 -162.5 38t-96 107.5t-31.5 165.5v403h95v-377q0 -48 7.5 -93t28 -80.5t59 -56.5t100.5 -21t100.5 21t59 57t28 80.5t7.5 92.5v377h95v-403q0 -96 -31.5 -165.5t-96 -107.5t-162.5 -38zM605 631v69q38 0 59 17t21 57h86q0 -38 -22 -70.5t-59.5 -52.5
t-84.5 -20zM269 764v58l187 95v-95z" />
    <glyph glyph-name="uni1EF0" unicode="&#x1ef0;" horiz-adv-x="724" 
d="M362 -14q-98 0 -162.5 38t-96 107.5t-31.5 165.5v403h95v-377q0 -48 7.5 -93t28 -80.5t59 -56.5t100.5 -21t100.5 21t59 57t28 80.5t7.5 92.5v377h95v-403q0 -96 -31.5 -165.5t-96 -107.5t-162.5 -38zM605 631v69q38 0 59 17t21 57h86q0 -38 -22 -70.5t-59.5 -52.5
t-84.5 -20zM314 -171v90h96v-90h-96z" />
    <glyph glyph-name="uni1EEA" unicode="&#x1eea;" horiz-adv-x="724" 
d="M362 -14q-98 0 -162.5 38t-96 107.5t-31.5 165.5v403h95v-377q0 -48 7.5 -93t28 -80.5t59 -56.5t100.5 -21t100.5 21t59 57t28 80.5t7.5 92.5v377h95v-403q0 -96 -31.5 -165.5t-96 -107.5t-162.5 -38zM605 631v69q38 0 59 17t21 57h86q0 -38 -22 -70.5t-59.5 -52.5
t-84.5 -20zM455 764l-187 58v95l187 -95v-58z" />
    <glyph glyph-name="uni1EEC" unicode="&#x1eec;" horiz-adv-x="724" 
d="M362 -14q-98 0 -162.5 38t-96 107.5t-31.5 165.5v403h95v-377q0 -48 7.5 -93t28 -80.5t59 -56.5t100.5 -21t100.5 21t59 57t28 80.5t7.5 92.5v377h95v-403q0 -96 -31.5 -165.5t-96 -107.5t-162.5 -38zM605 631v69q38 0 59 17t21 57h86q0 -38 -22 -70.5t-59.5 -52.5
t-84.5 -20zM361 760l-9 40q17 6 26 15.5t9 23.5q0 17 -11 24.5t-30 7.5q-16 0 -31.5 -5.5t-31.5 -13.5l-17 51q16 9 36.5 14t43.5 5q41 0 70 -20t29 -57q0 -33 -20 -54t-64 -31z" />
    <glyph glyph-name="uni1EEE" unicode="&#x1eee;" horiz-adv-x="724" 
d="M362 -14q-98 0 -162.5 38t-96 107.5t-31.5 165.5v403h95v-377q0 -48 7.5 -93t28 -80.5t59 -56.5t100.5 -21t100.5 21t59 57t28 80.5t7.5 92.5v377h95v-403q0 -96 -31.5 -165.5t-96 -107.5t-162.5 -38zM605 631v69q38 0 59 17t21 57h86q0 -38 -22 -70.5t-59.5 -52.5
t-84.5 -20zM445 788q-23 0 -48 10l-49 20.5t-43 10.5q-34 0 -34 -36h-65q0 49 19 74.5t54 25.5q23 0 48 -10.5l49 -20.5t43 -10q34 0 34 36h65q0 -49 -19 -74.5t-54 -25.5z" />
    <glyph glyph-name="Uhungarumlaut" unicode="&#x170;" horiz-adv-x="724" 
d="M362 -14q-98 0 -162.5 38t-96 107.5t-31.5 165.5v403h95v-377q0 -48 7.5 -93t28 -80.5t59 -56.5t100.5 -21t100.5 21t59 57t28 80.5t7.5 92.5v377h95v-403q0 -96 -31.5 -165.5t-96 -107.5t-162.5 -38zM258 788l66 147h98l-98 -147h-66zM398 788l71 147h98l-103 -147h-66z
" />
    <glyph glyph-name="uni0216" unicode="&#x216;" horiz-adv-x="724" 
d="M362 -14q-98 0 -162.5 38t-96 107.5t-31.5 165.5v403h95v-377q0 -48 7.5 -93t28 -80.5t59 -56.5t100.5 -21t100.5 21t59 57t28 80.5t7.5 92.5v377h95v-403q0 -96 -31.5 -165.5t-96 -107.5t-162.5 -38zM362 899q50 0 82.5 -17t48 -44.5t15.5 -58.5h-80q0 29 -19.5 43.5
t-46.5 14.5t-46.5 -14.5t-19.5 -43.5h-80q0 31 15.5 58.5t48 44.5t82.5 17z" />
    <glyph glyph-name="Umacron" unicode="&#x16a;" horiz-adv-x="724" 
d="M362 -14q-98 0 -162.5 38t-96 107.5t-31.5 165.5v403h95v-377q0 -48 7.5 -93t28 -80.5t59 -56.5t100.5 -21t100.5 21t59 57t28 80.5t7.5 92.5v377h95v-403q0 -96 -31.5 -165.5t-96 -107.5t-162.5 -38zM202 793v68h320v-68h-320z" />
    <glyph glyph-name="uni1E7A" unicode="&#x1e7a;" horiz-adv-x="724" 
d="M362 -14q-98 0 -162.5 38t-96 107.5t-31.5 165.5v403h95v-377q0 -48 7.5 -93t28 -80.5t59 -56.5t100.5 -21t100.5 21t59 57t28 80.5t7.5 92.5v377h95v-403q0 -96 -31.5 -165.5t-96 -107.5t-162.5 -38zM202 793v68h320v-68h-320zM223 966v75h86v-75h-86zM415 966v75h86
v-75h-86z" />
    <glyph glyph-name="Uogonek" unicode="&#x172;" horiz-adv-x="724" 
d="M362 -14q-98 0 -162.5 38t-96 107.5t-31.5 165.5v403h95v-377q0 -48 7.5 -93t28 -80.5t59 -56.5t100.5 -21t100.5 21t59 57t28 80.5t7.5 92.5v377h95v-403q0 -96 -31.5 -165.5t-96 -107.5t-162.5 -38zM409 0h53q-35 -27 -56.5 -52.5t-21.5 -53.5q0 -26 13 -38.5t35 -12.5
q17 0 32.5 4.5t30.5 12.5l15 -49q-14 -7 -35 -13t-48 -6q-42 0 -71.5 22t-29.5 64q0 40 26.5 72.5t56.5 49.5z" />
    <glyph glyph-name="Uring" unicode="&#x16e;" horiz-adv-x="724" 
d="M362 -14q-98 0 -162.5 38t-96 107.5t-31.5 165.5v403h95v-377q0 -48 7.5 -93t28 -80.5t59 -56.5t100.5 -21t100.5 21t59 57t28 80.5t7.5 92.5v377h95v-403q0 -96 -31.5 -165.5t-96 -107.5t-162.5 -38zM362 756q-52 0 -78 30t-26 68t26.5 68t77.5 30q52 0 78 -30t26 -68
t-26 -68t-78 -30zM362 800q21 0 37.5 14t16.5 40q0 24 -16 39t-38 15t-38 -15t-16 -39q0 -26 16.5 -40t37.5 -14z" />
    <glyph glyph-name="Utilde" unicode="&#x168;" horiz-adv-x="724" 
d="M362 -14q-98 0 -162.5 38t-96 107.5t-31.5 165.5v403h95v-377q0 -48 7.5 -93t28 -80.5t59 -56.5t100.5 -21t100.5 21t59 57t28 80.5t7.5 92.5v377h95v-403q0 -96 -31.5 -165.5t-96 -107.5t-162.5 -38zM445 788q-23 0 -48 10l-49 20.5t-43 10.5q-34 0 -34 -36h-65
q0 49 19 74.5t54 25.5q23 0 48 -10.5l49 -20.5t43 -10q34 0 34 36h65q0 -49 -19 -74.5t-54 -25.5z" />
    <glyph glyph-name="uni1E78" unicode="&#x1e78;" horiz-adv-x="724" 
d="M362 -14q-98 0 -162.5 38t-96 107.5t-31.5 165.5v403h95v-377q0 -48 7.5 -93t28 -80.5t59 -56.5t100.5 -21t100.5 21t59 57t28 80.5t7.5 92.5v377h95v-403q0 -96 -31.5 -165.5t-96 -107.5t-162.5 -38zM445 788q-23 0 -48 10l-49 20.5t-43 10.5q-34 0 -34 -36h-65
q0 49 19 74.5t54 25.5q23 0 48 -10.5l49 -20.5t43 -10q34 0 34 36h65q0 -49 -19 -74.5t-54 -25.5zM269 940v58l187 95v-95z" />
    <glyph glyph-name="V" unicode="V" horiz-adv-x="610" 
d="M255 0l-251 700h100l215 -607h-28l215 607h100l-251 -700h-100z" />
    <glyph glyph-name="W" unicode="W" horiz-adv-x="946" 
d="M202 0l-198 700h100l148 -577l171 563h100l171 -563l148 577h100l-198 -700h-101l-170 563l-170 -563h-101z" />
    <glyph glyph-name="Wacute" unicode="&#x1e82;" horiz-adv-x="946" 
d="M202 0l-198 700h100l148 -577l171 563h100l171 -563l148 577h100l-198 -700h-101l-170 563l-170 -563h-101zM383 764v58l187 95v-95z" />
    <glyph glyph-name="Wcircumflex" unicode="&#x174;" horiz-adv-x="946" 
d="M202 0l-198 700h100l148 -577l171 563h100l171 -563l148 577h100l-198 -700h-101l-170 563l-170 -563h-101zM349 753v61l127 90l127 -90v-61l-127 66z" />
    <glyph glyph-name="Wdieresis" unicode="&#x1e84;" horiz-adv-x="946" 
d="M202 0l-198 700h100l148 -577l171 563h100l171 -563l148 577h100l-198 -700h-101l-170 563l-170 -563h-101zM337 794v75h86v-75h-86zM529 794v75h86v-75h-86z" />
    <glyph glyph-name="Wgrave" unicode="&#x1e80;" horiz-adv-x="946" 
d="M202 0l-198 700h100l148 -577l171 563h100l171 -563l148 577h100l-198 -700h-101l-170 563l-170 -563h-101zM569 764l-187 58v95l187 -95v-58z" />
    <glyph glyph-name="X" unicode="X" horiz-adv-x="593" 
d="M4 0l238 353l-234 347h110l179 -265l178 265h110l-233 -347l237 -353h-110l-182 271l-183 -271h-110z" />
    <glyph glyph-name="Y" unicode="Y" horiz-adv-x="567" 
d="M236 0v303l-247 397h108l208 -340h-44l208 340h108l-246 -397v-303h-95z" />
    <glyph glyph-name="Yacute" unicode="&#xdd;" horiz-adv-x="567" 
d="M236 0v303l-247 397h108l208 -340h-44l208 340h108l-246 -397v-303h-95zM190 764v58l187 95v-95z" />
    <glyph glyph-name="Ycircumflex" unicode="&#x176;" horiz-adv-x="567" 
d="M236 0v303l-247 397h108l208 -340h-44l208 340h108l-246 -397v-303h-95zM156 753v61l127 90l127 -90v-61l-127 66z" />
    <glyph glyph-name="Ydieresis" unicode="&#x178;" horiz-adv-x="567" 
d="M236 0v303l-247 397h108l208 -340h-44l208 340h108l-246 -397v-303h-95zM144 794v75h86v-75h-86zM336 794v75h86v-75h-86z" />
    <glyph glyph-name="uni1E8E" unicode="&#x1e8e;" horiz-adv-x="567" 
d="M236 0v303l-247 397h108l208 -340h-44l208 340h108l-246 -397v-303h-95zM235 791v90h96v-90h-96z" />
    <glyph glyph-name="uni1EF4" unicode="&#x1ef4;" horiz-adv-x="567" 
d="M236 0v303l-247 397h108l208 -340h-44l208 340h108l-246 -397v-303h-95zM236 -171v90h96v-90h-96z" />
    <glyph glyph-name="Ygrave" unicode="&#x1ef2;" horiz-adv-x="567" 
d="M236 0v303l-247 397h108l208 -340h-44l208 340h108l-246 -397v-303h-95zM376 764l-187 58v95l187 -95v-58z" />
    <glyph glyph-name="uni1EF6" unicode="&#x1ef6;" horiz-adv-x="567" 
d="M236 0v303l-247 397h108l208 -340h-44l208 340h108l-246 -397v-303h-95zM282 760l-9 40q17 6 26 15.5t9 23.5q0 17 -11 24.5t-30 7.5q-16 0 -31.5 -5.5t-31.5 -13.5l-17 51q16 9 36.5 14t43.5 5q41 0 70 -20t29 -57q0 -33 -20 -54t-64 -31z" />
    <glyph glyph-name="uni0232" unicode="&#x232;" horiz-adv-x="567" 
d="M236 0v303l-247 397h108l208 -340h-44l208 340h108l-246 -397v-303h-95zM123 793v68h320v-68h-320z" />
    <glyph glyph-name="uni1EF8" unicode="&#x1ef8;" horiz-adv-x="567" 
d="M236 0v303l-247 397h108l208 -340h-44l208 340h108l-246 -397v-303h-95zM366 788q-23 0 -48 10l-49 20.5t-43 10.5q-34 0 -34 -36h-65q0 49 19 74.5t54 25.5q23 0 48 -10.5l49 -20.5t43 -10q34 0 34 36h65q0 -49 -19 -74.5t-54 -25.5z" />
    <glyph glyph-name="Z" unicode="Z" horiz-adv-x="549" 
d="M9 0l401 650l18 -36h-374v86h488l-403 -650l-17 36h415v-86h-528z" />
    <glyph glyph-name="Zacute" unicode="&#x179;" horiz-adv-x="549" 
d="M9 0l401 650l18 -36h-374v86h488l-403 -650l-17 36h415v-86h-528zM205 764v58l187 95v-95z" />
    <glyph glyph-name="Zcaron" unicode="&#x17d;" horiz-adv-x="549" 
d="M9 0l401 650l18 -36h-374v86h488l-403 -650l-17 36h415v-86h-528zM171 930v-61l127 -90l127 90v61l-127 -66z" />
    <glyph glyph-name="Zdotaccent" unicode="&#x17b;" horiz-adv-x="549" 
d="M9 0l401 650l18 -36h-374v86h488l-403 -650l-17 36h415v-86h-528zM250 791v90h96v-90h-96z" />
    <glyph glyph-name="uni1E92" unicode="&#x1e92;" horiz-adv-x="549" 
d="M9 0l401 650l18 -36h-374v86h488l-403 -650l-17 36h415v-86h-528zM205 -171v90h96v-90h-96z" />
    <glyph glyph-name="Iacute_J.loclNLD" horiz-adv-x="684" 
d="M171 244q5 -48 23 -87t53 -62t95 -23q56 0 90.5 21t53 57t25 80.5t6.5 92.5v377h95v-403q0 -96 -29.5 -165.5t-89 -107.5t-151.5 -38q-121 0 -186.5 65t-79.5 180zM72 323v377h95v-377h-95zM27 764v58l187 95v-95zM470 764v58l187 95v-95z" />
    <glyph glyph-name="a" unicode="a" horiz-adv-x="480" 
d="M175 -10q-45 0 -79 18.5t-53 50.5t-19 73t18 71t49 50t69 31.5t79 16.5t78 6q0 70 -27.5 91.5t-79.5 21.5q-28 0 -59 -8.5t-70 -35.5l-13 73q29 23 73 37t93 14q62 0 100 -22t55.5 -73t17.5 -140v-100q0 -35 3 -58t15 -34t38 -11h9l-14 -72h-7q-43 0 -67 8.5t-36.5 24.5
t-22.5 39q-28 -32 -65.5 -52t-84.5 -20zM192 62q36 0 69.5 18t55.5 48v117q-72 -3 -116 -14.5t-64.5 -34t-20.5 -59.5q0 -40 21 -57.5t55 -17.5z" />
    <glyph glyph-name="aacute" unicode="&#xe1;" horiz-adv-x="480" 
d="M175 -10q-45 0 -79 18.5t-53 50.5t-19 73t18 71t49 50t69 31.5t79 16.5t78 6q0 70 -27.5 91.5t-79.5 21.5q-28 0 -59 -8.5t-70 -35.5l-13 73q29 23 73 37t93 14q62 0 100 -22t55.5 -73t17.5 -140v-100q0 -35 3 -58t15 -34t38 -11h9l-14 -72h-7q-43 0 -67 8.5t-36.5 24.5
t-22.5 39q-28 -32 -65.5 -52t-84.5 -20zM192 62q36 0 69.5 18t55.5 48v117q-72 -3 -116 -14.5t-64.5 -34t-20.5 -59.5q0 -40 21 -57.5t55 -17.5zM141 576v61l187 110v-98z" />
    <glyph glyph-name="abreve" unicode="&#x103;" horiz-adv-x="480" 
d="M175 -10q-45 0 -79 18.5t-53 50.5t-19 73t18 71t49 50t69 31.5t79 16.5t78 6q0 70 -27.5 91.5t-79.5 21.5q-28 0 -59 -8.5t-70 -35.5l-13 73q29 23 73 37t93 14q62 0 100 -22t55.5 -73t17.5 -140v-100q0 -35 3 -58t15 -34t38 -11h9l-14 -72h-7q-43 0 -67 8.5t-36.5 24.5
t-22.5 39q-28 -32 -65.5 -52t-84.5 -20zM192 62q36 0 69.5 18t55.5 48v117q-72 -3 -116 -14.5t-64.5 -34t-20.5 -59.5q0 -40 21 -57.5t55 -17.5zM234 576q-50 0 -82.5 18t-48 47t-15.5 62h80q0 -31 19.5 -46t46.5 -15t46.5 15t19.5 46h80q0 -33 -15.5 -62t-48 -47t-82.5 -18
z" />
    <glyph glyph-name="uni1EAF" unicode="&#x1eaf;" horiz-adv-x="480" 
d="M175 -10q-45 0 -79 18.5t-53 50.5t-19 73t18 71t49 50t69 31.5t79 16.5t78 6q0 70 -27.5 91.5t-79.5 21.5q-28 0 -59 -8.5t-70 -35.5l-13 73q29 23 73 37t93 14q62 0 100 -22t55.5 -73t17.5 -140v-100q0 -35 3 -58t15 -34t38 -11h9l-14 -72h-7q-43 0 -67 8.5t-36.5 24.5
t-22.5 39q-28 -32 -65.5 -52t-84.5 -20zM192 62q36 0 69.5 18t55.5 48v117q-72 -3 -116 -14.5t-64.5 -34t-20.5 -59.5q0 -40 21 -57.5t55 -17.5zM234 554q-50 0 -82.5 17t-48 44.5t-15.5 58.5h80q0 -29 19.5 -43.5t46.5 -14.5t46.5 14.5t19.5 43.5h80q0 -31 -15.5 -58.5
t-48 -44.5t-82.5 -17zM141 718v58l187 95v-95z" />
    <glyph glyph-name="uni1EB7" unicode="&#x1eb7;" horiz-adv-x="480" 
d="M175 -10q-45 0 -79 18.5t-53 50.5t-19 73t18 71t49 50t69 31.5t79 16.5t78 6q0 70 -27.5 91.5t-79.5 21.5q-28 0 -59 -8.5t-70 -35.5l-13 73q29 23 73 37t93 14q62 0 100 -22t55.5 -73t17.5 -140v-100q0 -35 3 -58t15 -34t38 -11h9l-14 -72h-7q-43 0 -67 8.5t-36.5 24.5
t-22.5 39q-28 -32 -65.5 -52t-84.5 -20zM192 62q36 0 69.5 18t55.5 48v117q-72 -3 -116 -14.5t-64.5 -34t-20.5 -59.5q0 -40 21 -57.5t55 -17.5zM234 576q-50 0 -82.5 18t-48 47t-15.5 62h80q0 -31 19.5 -46t46.5 -15t46.5 15t19.5 46h80q0 -33 -15.5 -62t-48 -47t-82.5 -18
zM192 -171v90h96v-90h-96z" />
    <glyph glyph-name="uni1EB1" unicode="&#x1eb1;" horiz-adv-x="480" 
d="M175 -10q-45 0 -79 18.5t-53 50.5t-19 73t18 71t49 50t69 31.5t79 16.5t78 6q0 70 -27.5 91.5t-79.5 21.5q-28 0 -59 -8.5t-70 -35.5l-13 73q29 23 73 37t93 14q62 0 100 -22t55.5 -73t17.5 -140v-100q0 -35 3 -58t15 -34t38 -11h9l-14 -72h-7q-43 0 -67 8.5t-36.5 24.5
t-22.5 39q-28 -32 -65.5 -52t-84.5 -20zM192 62q36 0 69.5 18t55.5 48v117q-72 -3 -116 -14.5t-64.5 -34t-20.5 -59.5q0 -40 21 -57.5t55 -17.5zM234 553q-50 0 -82.5 17t-48 44.5t-15.5 58.5h80q0 -29 19.5 -43.5t46.5 -14.5t46.5 14.5t19.5 43.5h80q0 -31 -15.5 -58.5
t-48 -44.5t-82.5 -17zM327 717l-187 58v95l187 -95v-58z" />
    <glyph glyph-name="uni1EB3" unicode="&#x1eb3;" horiz-adv-x="480" 
d="M175 -10q-45 0 -79 18.5t-53 50.5t-19 73t18 71t49 50t69 31.5t79 16.5t78 6q0 70 -27.5 91.5t-79.5 21.5q-28 0 -59 -8.5t-70 -35.5l-13 73q29 23 73 37t93 14q62 0 100 -22t55.5 -73t17.5 -140v-100q0 -35 3 -58t15 -34t38 -11h9l-14 -72h-7q-43 0 -67 8.5t-36.5 24.5
t-22.5 39q-28 -32 -65.5 -52t-84.5 -20zM192 62q36 0 69.5 18t55.5 48v117q-72 -3 -116 -14.5t-64.5 -34t-20.5 -59.5q0 -40 21 -57.5t55 -17.5zM234 554q-50 0 -82.5 17t-48 44.5t-15.5 58.5h80q0 -29 19.5 -43.5t46.5 -14.5t46.5 14.5t19.5 43.5h80q0 -31 -15.5 -58.5
t-48 -44.5t-82.5 -17zM243 690l-9 40q17 6 26 15.5t9 23.5q0 17 -11 24.5t-30 7.5q-16 0 -31.5 -5.5t-31.5 -13.5l-17 51q16 9 36.5 14t43.5 5q41 0 70 -20t29 -57q0 -33 -20 -54t-64 -31z" />
    <glyph glyph-name="uni1EB5" unicode="&#x1eb5;" horiz-adv-x="480" 
d="M175 -10q-45 0 -79 18.5t-53 50.5t-19 73t18 71t49 50t69 31.5t79 16.5t78 6q0 70 -27.5 91.5t-79.5 21.5q-28 0 -59 -8.5t-70 -35.5l-13 73q29 23 73 37t93 14q62 0 100 -22t55.5 -73t17.5 -140v-100q0 -35 3 -58t15 -34t38 -11h9l-14 -72h-7q-43 0 -67 8.5t-36.5 24.5
t-22.5 39q-28 -32 -65.5 -52t-84.5 -20zM192 62q36 0 69.5 18t55.5 48v117q-72 -3 -116 -14.5t-64.5 -34t-20.5 -59.5q0 -40 21 -57.5t55 -17.5zM234 554q-50 0 -82.5 17t-48 44.5t-15.5 58.5h80q0 -29 19.5 -43.5t46.5 -14.5t46.5 14.5t19.5 43.5h80q0 -31 -15.5 -58.5
t-48 -44.5t-82.5 -17zM317 721q-23 0 -48 10.5l-49 20.5t-43 10q-34 0 -34 -36h-65q0 49 19 74.5t54 25.5q23 0 48 -10l49 -20.5t43 -10.5q34 0 34 36h65q0 -49 -19 -74.5t-54 -25.5z" />
    <glyph glyph-name="acircumflex" unicode="&#xe2;" horiz-adv-x="480" 
d="M175 -10q-45 0 -79 18.5t-53 50.5t-19 73t18 71t49 50t69 31.5t79 16.5t78 6q0 70 -27.5 91.5t-79.5 21.5q-28 0 -59 -8.5t-70 -35.5l-13 73q29 23 73 37t93 14q62 0 100 -22t55.5 -73t17.5 -140v-100q0 -35 3 -58t15 -34t38 -11h9l-14 -72h-7q-43 0 -67 8.5t-36.5 24.5
t-22.5 39q-28 -32 -65.5 -52t-84.5 -20zM192 62q36 0 69.5 18t55.5 48v117q-72 -3 -116 -14.5t-64.5 -34t-20.5 -59.5q0 -40 21 -57.5t55 -17.5zM107 564v61l127 110l127 -110v-61l-127 80z" />
    <glyph glyph-name="uni1EA5" unicode="&#x1ea5;" horiz-adv-x="480" 
d="M175 -10q-45 0 -79 18.5t-53 50.5t-19 73t18 71t49 50t69 31.5t79 16.5t78 6q0 70 -27.5 91.5t-79.5 21.5q-28 0 -59 -8.5t-70 -35.5l-13 73q29 23 73 37t93 14q62 0 100 -22t55.5 -73t17.5 -140v-100q0 -35 3 -58t15 -34t38 -11h9l-14 -72h-7q-43 0 -67 8.5t-36.5 24.5
t-22.5 39q-28 -32 -65.5 -52t-84.5 -20zM192 62q36 0 69.5 18t55.5 48v117q-72 -3 -116 -14.5t-64.5 -34t-20.5 -59.5q0 -40 21 -57.5t55 -17.5zM107 543v61l127 90l127 -90v-61l-127 66zM309 689l66 117h98l-98 -117h-66z" />
    <glyph glyph-name="uni1EAD" unicode="&#x1ead;" horiz-adv-x="480" 
d="M175 -10q-45 0 -79 18.5t-53 50.5t-19 73t18 71t49 50t69 31.5t79 16.5t78 6q0 70 -27.5 91.5t-79.5 21.5q-28 0 -59 -8.5t-70 -35.5l-13 73q29 23 73 37t93 14q62 0 100 -22t55.5 -73t17.5 -140v-100q0 -35 3 -58t15 -34t38 -11h9l-14 -72h-7q-43 0 -67 8.5t-36.5 24.5
t-22.5 39q-28 -32 -65.5 -52t-84.5 -20zM192 62q36 0 69.5 18t55.5 48v117q-72 -3 -116 -14.5t-64.5 -34t-20.5 -59.5q0 -40 21 -57.5t55 -17.5zM107 564v61l127 110l127 -110v-61l-127 80zM192 -171v90h96v-90h-96z" />
    <glyph glyph-name="uni1EA7" unicode="&#x1ea7;" horiz-adv-x="480" 
d="M175 -10q-45 0 -79 18.5t-53 50.5t-19 73t18 71t49 50t69 31.5t79 16.5t78 6q0 70 -27.5 91.5t-79.5 21.5q-28 0 -59 -8.5t-70 -35.5l-13 73q29 23 73 37t93 14q62 0 100 -22t55.5 -73t17.5 -140v-100q0 -35 3 -58t15 -34t38 -11h9l-14 -72h-7q-43 0 -67 8.5t-36.5 24.5
t-22.5 39q-28 -32 -65.5 -52t-84.5 -20zM192 62q36 0 69.5 18t55.5 48v117q-72 -3 -116 -14.5t-64.5 -34t-20.5 -59.5q0 -40 21 -57.5t55 -17.5zM107 543v61l127 90l127 -90v-61l-127 66zM323 689l-87 117h95l56 -117h-64z" />
    <glyph glyph-name="uni1EA9" unicode="&#x1ea9;" horiz-adv-x="480" 
d="M175 -10q-45 0 -79 18.5t-53 50.5t-19 73t18 71t49 50t69 31.5t79 16.5t78 6q0 70 -27.5 91.5t-79.5 21.5q-28 0 -59 -8.5t-70 -35.5l-13 73q29 23 73 37t93 14q62 0 100 -22t55.5 -73t17.5 -140v-100q0 -35 3 -58t15 -34t38 -11h9l-14 -72h-7q-43 0 -67 8.5t-36.5 24.5
t-22.5 39q-28 -32 -65.5 -52t-84.5 -20zM192 62q36 0 69.5 18t55.5 48v117q-72 -3 -116 -14.5t-64.5 -34t-20.5 -59.5q0 -40 21 -57.5t55 -17.5zM107 543v61l127 90l127 -90v-61l-127 66zM330 662l-9 40q17 6 26 15.5t9 23.5q0 17 -11 24.5t-30 7.5q-16 0 -31.5 -5.5
t-31.5 -13.5l-17 51q17 9 37 14t43 5q41 0 70 -20t29 -57q0 -33 -20 -54t-64 -31z" />
    <glyph glyph-name="uni1EAB" unicode="&#x1eab;" horiz-adv-x="480" 
d="M175 -10q-45 0 -79 18.5t-53 50.5t-19 73t18 71t49 50t69 31.5t79 16.5t78 6q0 70 -27.5 91.5t-79.5 21.5q-28 0 -59 -8.5t-70 -35.5l-13 73q29 23 73 37t93 14q62 0 100 -22t55.5 -73t17.5 -140v-100q0 -35 3 -58t15 -34t38 -11h9l-14 -72h-7q-43 0 -67 8.5t-36.5 24.5
t-22.5 39q-28 -32 -65.5 -52t-84.5 -20zM192 62q36 0 69.5 18t55.5 48v117q-72 -3 -116 -14.5t-64.5 -34t-20.5 -59.5q0 -40 21 -57.5t55 -17.5zM107 543v61l127 90l127 -90v-61l-127 66zM317 735q-23 0 -48 10.5l-49 20.5t-43 10q-34 0 -34 -36h-65q0 49 19 74.5t54 25.5
q23 0 48 -10l49 -20.5t43 -10.5q34 0 34 36h65q0 -49 -19 -74.5t-54 -25.5z" />
    <glyph glyph-name="uni0201" unicode="&#x201;" horiz-adv-x="480" 
d="M175 -10q-45 0 -79 18.5t-53 50.5t-19 73t18 71t49 50t69 31.5t79 16.5t78 6q0 70 -27.5 91.5t-79.5 21.5q-28 0 -59 -8.5t-70 -35.5l-13 73q29 23 73 37t93 14q62 0 100 -22t55.5 -73t17.5 -140v-100q0 -35 3 -58t15 -34t38 -11h9l-14 -72h-7q-43 0 -67 8.5t-36.5 24.5
t-22.5 39q-28 -32 -65.5 -52t-84.5 -20zM192 62q36 0 69.5 18t55.5 48v117q-72 -3 -116 -14.5t-64.5 -34t-20.5 -59.5q0 -40 21 -57.5t55 -17.5zM338 578h-66l-98 167h98zM198 578h-66l-103 167h98z" />
    <glyph glyph-name="adieresis" unicode="&#xe4;" horiz-adv-x="480" 
d="M175 -10q-45 0 -79 18.5t-53 50.5t-19 73t18 71t49 50t69 31.5t79 16.5t78 6q0 70 -27.5 91.5t-79.5 21.5q-28 0 -59 -8.5t-70 -35.5l-13 73q29 23 73 37t93 14q62 0 100 -22t55.5 -73t17.5 -140v-100q0 -35 3 -58t15 -34t38 -11h9l-14 -72h-7q-43 0 -67 8.5t-36.5 24.5
t-22.5 39q-28 -32 -65.5 -52t-84.5 -20zM192 62q36 0 69.5 18t55.5 48v117q-72 -3 -116 -14.5t-64.5 -34t-20.5 -59.5q0 -40 21 -57.5t55 -17.5zM287 591v80h86v-80h-86zM95 591v80h86v-80h-86z" />
    <glyph glyph-name="uni1EA1" unicode="&#x1ea1;" horiz-adv-x="480" 
d="M175 -10q-45 0 -79 18.5t-53 50.5t-19 73t18 71t49 50t69 31.5t79 16.5t78 6q0 70 -27.5 91.5t-79.5 21.5q-28 0 -59 -8.5t-70 -35.5l-13 73q29 23 73 37t93 14q62 0 100 -22t55.5 -73t17.5 -140v-100q0 -35 3 -58t15 -34t38 -11h9l-14 -72h-7q-43 0 -67 8.5t-36.5 24.5
t-22.5 39q-28 -32 -65.5 -52t-84.5 -20zM192 62q36 0 69.5 18t55.5 48v117q-72 -3 -116 -14.5t-64.5 -34t-20.5 -59.5q0 -40 21 -57.5t55 -17.5zM192 -171v90h96v-90h-96z" />
    <glyph glyph-name="agrave" unicode="&#xe0;" horiz-adv-x="480" 
d="M175 -10q-45 0 -79 18.5t-53 50.5t-19 73t18 71t49 50t69 31.5t79 16.5t78 6q0 70 -27.5 91.5t-79.5 21.5q-28 0 -59 -8.5t-70 -35.5l-13 73q29 23 73 37t93 14q62 0 100 -22t55.5 -73t17.5 -140v-100q0 -35 3 -58t15 -34t38 -11h9l-14 -72h-7q-43 0 -67 8.5t-36.5 24.5
t-22.5 39q-28 -32 -65.5 -52t-84.5 -20zM192 62q36 0 69.5 18t55.5 48v117q-72 -3 -116 -14.5t-64.5 -34t-20.5 -59.5q0 -40 21 -57.5t55 -17.5zM327 576l-187 73v98l187 -110v-61z" />
    <glyph glyph-name="uni1EA3" unicode="&#x1ea3;" horiz-adv-x="480" 
d="M175 -10q-45 0 -79 18.5t-53 50.5t-19 73t18 71t49 50t69 31.5t79 16.5t78 6q0 70 -27.5 91.5t-79.5 21.5q-28 0 -59 -8.5t-70 -35.5l-13 73q29 23 73 37t93 14q62 0 100 -22t55.5 -73t17.5 -140v-100q0 -35 3 -58t15 -34t38 -11h9l-14 -72h-7q-43 0 -67 8.5t-36.5 24.5
t-22.5 39q-28 -32 -65.5 -52t-84.5 -20zM192 62q36 0 69.5 18t55.5 48v117q-72 -3 -116 -14.5t-64.5 -34t-20.5 -59.5q0 -40 21 -57.5t55 -17.5zM249 525l-34 33q23 23 33.5 36t10.5 31t-11 27t-30 9q-16 0 -31.5 -5.5t-31.5 -13.5l-17 51q16 9 36.5 14t43.5 5q41 0 70 -22
t29 -62q0 -32 -16.5 -54.5t-51.5 -48.5z" />
    <glyph glyph-name="uni0203" unicode="&#x203;" horiz-adv-x="480" 
d="M175 -10q-45 0 -79 18.5t-53 50.5t-19 73t18 71t49 50t69 31.5t79 16.5t78 6q0 70 -27.5 91.5t-79.5 21.5q-28 0 -59 -8.5t-70 -35.5l-13 73q29 23 73 37t93 14q62 0 100 -22t55.5 -73t17.5 -140v-100q0 -35 3 -58t15 -34t38 -11h9l-14 -72h-7q-43 0 -67 8.5t-36.5 24.5
t-22.5 39q-28 -32 -65.5 -52t-84.5 -20zM192 62q36 0 69.5 18t55.5 48v117q-72 -3 -116 -14.5t-64.5 -34t-20.5 -59.5q0 -40 21 -57.5t55 -17.5zM234 703q50 0 82.5 -18t48 -47t15.5 -62h-80q0 31 -19.5 46t-46.5 15t-46.5 -15t-19.5 -46h-80q0 33 15.5 62t48 47t82.5 18z
" />
    <glyph glyph-name="amacron" unicode="&#x101;" horiz-adv-x="480" 
d="M175 -10q-45 0 -79 18.5t-53 50.5t-19 73t18 71t49 50t69 31.5t79 16.5t78 6q0 70 -27.5 91.5t-79.5 21.5q-28 0 -59 -8.5t-70 -35.5l-13 73q29 23 73 37t93 14q62 0 100 -22t55.5 -73t17.5 -140v-100q0 -35 3 -58t15 -34t38 -11h9l-14 -72h-7q-43 0 -67 8.5t-36.5 24.5
t-22.5 39q-28 -32 -65.5 -52t-84.5 -20zM192 62q36 0 69.5 18t55.5 48v117q-72 -3 -116 -14.5t-64.5 -34t-20.5 -59.5q0 -40 21 -57.5t55 -17.5zM74 591v71h320v-71h-320z" />
    <glyph glyph-name="aogonek" unicode="&#x105;" horiz-adv-x="480" 
d="M175 -10q-45 0 -79 18.5t-53 50.5t-19 73t18 71t49 50t69 31.5t79 16.5t78 6q0 70 -27.5 91.5t-79.5 21.5q-28 0 -59 -8.5t-70 -35.5l-13 73q29 23 73 37t93 14q62 0 100 -22t55.5 -73t17.5 -140v-100q0 -35 3 -58t15 -34t38 -11h9l-14 -72h-7q-43 0 -67 8.5t-36.5 24.5
t-22.5 39q-28 -32 -65.5 -52t-84.5 -20zM192 62q36 0 69.5 18t55.5 48v117q-72 -3 -116 -14.5t-64.5 -34t-20.5 -59.5q0 -40 21 -57.5t55 -17.5zM396 0h53q-35 -27 -56.5 -52.5t-21.5 -53.5q0 -26 13 -38.5t35 -12.5q17 0 32.5 4.5t30.5 12.5l15 -49q-14 -7 -35 -13t-48 -6
q-42 0 -71.5 22t-29.5 64q0 40 26.5 72.5t56.5 49.5z" />
    <glyph glyph-name="aring" unicode="&#xe5;" horiz-adv-x="480" 
d="M175 -10q-45 0 -79 18.5t-53 50.5t-19 73t18 71t49 50t69 31.5t79 16.5t78 6q0 70 -27.5 91.5t-79.5 21.5q-28 0 -59 -8.5t-70 -35.5l-13 73q29 23 73 37t93 14q62 0 100 -22t55.5 -73t17.5 -140v-100q0 -35 3 -58t15 -34t38 -11h9l-14 -72h-7q-43 0 -67 8.5t-36.5 24.5
t-22.5 39q-28 -32 -65.5 -52t-84.5 -20zM192 62q36 0 69.5 18t55.5 48v117q-72 -3 -116 -14.5t-64.5 -34t-20.5 -59.5q0 -40 21 -57.5t55 -17.5zM234 568q-52 0 -78 30.5t-26 69.5q0 38 26.5 69t77.5 31q52 0 78 -31t26 -69q0 -39 -26 -69.5t-78 -30.5zM234 612q22 0 39 15
t17 41q0 25 -17 40.5t-39 15.5t-39 -15.5t-17 -40.5q0 -26 17 -41t39 -15z" />
    <glyph glyph-name="aringacute" unicode="&#x1fb;" horiz-adv-x="480" 
d="M175 -10q-45 0 -79 18.5t-53 50.5t-19 73t18 71t49 50t69 31.5t79 16.5t78 6q0 70 -27.5 91.5t-79.5 21.5q-28 0 -59 -8.5t-70 -35.5l-13 73q29 23 73 37t93 14q62 0 100 -22t55.5 -73t17.5 -140v-100q0 -35 3 -58t15 -34t38 -11h9l-14 -72h-7q-43 0 -67 8.5t-36.5 24.5
t-22.5 39q-28 -32 -65.5 -52t-84.5 -20zM192 62q36 0 69.5 18t55.5 48v117q-72 -3 -116 -14.5t-64.5 -34t-20.5 -59.5q0 -40 21 -57.5t55 -17.5zM234 568q-52 0 -78 30.5t-26 69.5q0 38 26.5 69t77.5 31q52 0 78 -31t26 -69q0 -39 -26 -69.5t-78 -30.5zM234 612q22 0 39 15
t17 41q0 25 -17 40.5t-39 15.5t-39 -15.5t-17 -40.5q0 -26 17 -41t39 -15zM141 807v58l187 95v-95z" />
    <glyph glyph-name="atilde" unicode="&#xe3;" horiz-adv-x="480" 
d="M175 -10q-45 0 -79 18.5t-53 50.5t-19 73t18 71t49 50t69 31.5t79 16.5t78 6q0 70 -27.5 91.5t-79.5 21.5q-28 0 -59 -8.5t-70 -35.5l-13 73q29 23 73 37t93 14q62 0 100 -22t55.5 -73t17.5 -140v-100q0 -35 3 -58t15 -34t38 -11h9l-14 -72h-7q-43 0 -67 8.5t-36.5 24.5
t-22.5 39q-28 -32 -65.5 -52t-84.5 -20zM192 62q36 0 69.5 18t55.5 48v117q-72 -3 -116 -14.5t-64.5 -34t-20.5 -59.5q0 -40 21 -57.5t55 -17.5zM314 580q-25 0 -48.5 12l-45.5 23.5t-43 11.5q-34 0 -34 -39h-75q2 54 24 82.5t62 28.5q25 0 48.5 -11.5t45.5 -23.5t43 -12
q34 0 34 39h75q-2 -54 -24 -82.5t-62 -28.5z" />
    <glyph glyph-name="ae" unicode="&#xe6;" horiz-adv-x="780" 
d="M185 -10q-49 0 -85 18.5t-56 50.5t-20 73q0 56 30.5 90.5t79.5 52.5t105 25t106 7h312q0 48 -26.5 80.5t-82.5 32.5q-60 0 -97 -41t-37 -121q0 -71 24 -112t63 -58.5t84 -17.5q31 0 63.5 7.5t67.5 21.5l12 -71q-28 -16 -66 -27t-88 -11q-83 0 -140 35.5t-86 94t-29 129.5
v44q0 62 -23 94.5t-86 32.5q-28 0 -59 -8.5t-70 -35.5l-13 73q29 23 73 37t93 14q71 0 111 -29t54 -101l-48 -6q25 60 78.5 98t126.5 38q62 0 105 -27t66 -74t23 -106q0 -11 -1 -23t-3 -25h-418q-114 0 -163 -26.5t-49 -81.5q0 -40 24 -57.5t62 -17.5q46 0 85 24t65 67
l30 -42q-28 -52 -81.5 -86.5t-115.5 -34.5z" />
    <glyph glyph-name="aeacute" unicode="&#x1fd;" horiz-adv-x="780" 
d="M185 -10q-49 0 -85 18.5t-56 50.5t-20 73q0 56 30.5 90.5t79.5 52.5t105 25t106 7h312q0 48 -26.5 80.5t-82.5 32.5q-60 0 -97 -41t-37 -121q0 -71 24 -112t63 -58.5t84 -17.5q31 0 63.5 7.5t67.5 21.5l12 -71q-28 -16 -66 -27t-88 -11q-83 0 -140 35.5t-86 94t-29 129.5
v44q0 62 -23 94.5t-86 32.5q-28 0 -59 -8.5t-70 -35.5l-13 73q29 23 73 37t93 14q71 0 111 -29t54 -101l-48 -6q25 60 78.5 98t126.5 38q62 0 105 -27t66 -74t23 -106q0 -11 -1 -23t-3 -25h-418q-114 0 -163 -26.5t-49 -81.5q0 -40 24 -57.5t62 -17.5q46 0 85 24t65 67
l30 -42q-28 -52 -81.5 -86.5t-115.5 -34.5zM312 576v61l187 110v-98z" />
    <glyph glyph-name="b" unicode="b" horiz-adv-x="555" 
d="M302 -10q-52 0 -100 24.5t-67 73.5l22 16l-17 -104h-80v750h90v-356l-19 14q25 40 71.5 66t99.5 26q68 0 118 -36t76.5 -94t26.5 -125q0 -71 -29.5 -129t-79.5 -92t-112 -34zM291 70q43 0 74.5 24t48.5 63.5t17 87.5q0 50 -17 89.5t-48.5 62.5t-74.5 23q-39 0 -72 -19
t-53.5 -58t-20.5 -98q0 -61 20.5 -100t53.5 -57t72 -18z" />
    <glyph glyph-name="c" unicode="c" horiz-adv-x="454" 
d="M286 -10q-83 0 -139.5 34t-85 91t-28.5 127q0 73 27.5 131.5t85.5 92.5t147 34q38 0 72.5 -8t61.5 -21l-14 -79q-28 13 -58.5 20.5t-63.5 7.5q-81 0 -123.5 -46t-42.5 -128q0 -80 40.5 -128.5t123.5 -48.5q34 0 65.5 8t59.5 22l12 -72q-20 -14 -58.5 -25.5t-81.5 -11.5z
" />
    <glyph glyph-name="cacute" unicode="&#x107;" horiz-adv-x="454" 
d="M286 -10q-83 0 -139.5 34t-85 91t-28.5 127q0 73 27.5 131.5t85.5 92.5t147 34q38 0 72.5 -8t61.5 -21l-14 -79q-28 13 -58.5 20.5t-63.5 7.5q-81 0 -123.5 -46t-42.5 -128q0 -80 40.5 -128.5t123.5 -48.5q34 0 65.5 8t59.5 22l12 -72q-20 -14 -58.5 -25.5t-81.5 -11.5z
M179 576v61l187 110v-98z" />
    <glyph glyph-name="ccaron" unicode="&#x10d;" horiz-adv-x="454" 
d="M286 -10q-83 0 -139.5 34t-85 91t-28.5 127q0 73 27.5 131.5t85.5 92.5t147 34q38 0 72.5 -8t61.5 -21l-14 -79q-28 13 -58.5 20.5t-63.5 7.5q-81 0 -123.5 -46t-42.5 -128q0 -80 40.5 -128.5t123.5 -48.5q34 0 65.5 8t59.5 22l12 -72q-20 -14 -58.5 -25.5t-81.5 -11.5z
M272 558l-127 110v61l127 -80l127 80v-61z" />
    <glyph glyph-name="ccedilla" unicode="&#xe7;" horiz-adv-x="454" 
d="M286 -10q-83 0 -139.5 34t-85 91t-28.5 127q0 73 27.5 131.5t85.5 92.5t147 34q38 0 72.5 -8t61.5 -21l-14 -79q-28 13 -58.5 20.5t-63.5 7.5q-81 0 -123.5 -46t-42.5 -128q0 -80 40.5 -128.5t123.5 -48.5q34 0 65.5 8t59.5 22l12 -72q-20 -14 -58.5 -25.5t-81.5 -11.5z
M268 -79l-33 15q12 4 24 7t25 3q41 0 64 -22t23 -59q0 -44 -31 -67.5t-75 -23.5q-26 0 -45 6t-33 13l15 49q15 -8 30.5 -12.5t32.5 -4.5q22 0 35 9.5t13 28.5q0 18 -12 29t-38 11q-11 0 -22 -1.5t-24 -6.5l26 105h50z" />
    <glyph glyph-name="uni1E09" unicode="&#x1e09;" horiz-adv-x="454" 
d="M286 -10q-83 0 -139.5 34t-85 91t-28.5 127q0 73 27.5 131.5t85.5 92.5t147 34q38 0 72.5 -8t61.5 -21l-14 -79q-28 13 -58.5 20.5t-63.5 7.5q-81 0 -123.5 -46t-42.5 -128q0 -80 40.5 -128.5t123.5 -48.5q34 0 65.5 8t59.5 22l12 -72q-20 -14 -58.5 -25.5t-81.5 -11.5z
M268 -79l-33 15q12 4 24 7t25 3q41 0 64 -22t23 -59q0 -44 -31 -67.5t-75 -23.5q-26 0 -45 6t-33 13l15 49q15 -8 30.5 -12.5t32.5 -4.5q22 0 35 9.5t13 28.5q0 18 -12 29t-38 11q-11 0 -22 -1.5t-24 -6.5l26 105h50zM179 576v61l187 110v-98z" />
    <glyph glyph-name="ccircumflex" unicode="&#x109;" horiz-adv-x="454" 
d="M286 -10q-83 0 -139.5 34t-85 91t-28.5 127q0 73 27.5 131.5t85.5 92.5t147 34q38 0 72.5 -8t61.5 -21l-14 -79q-28 13 -58.5 20.5t-63.5 7.5q-81 0 -123.5 -46t-42.5 -128q0 -80 40.5 -128.5t123.5 -48.5q34 0 65.5 8t59.5 22l12 -72q-20 -14 -58.5 -25.5t-81.5 -11.5z
M145 564v61l127 110l127 -110v-61l-127 80z" />
    <glyph glyph-name="cdotaccent" unicode="&#x10b;" horiz-adv-x="454" 
d="M286 -10q-83 0 -139.5 34t-85 91t-28.5 127q0 73 27.5 131.5t85.5 92.5t147 34q38 0 72.5 -8t61.5 -21l-14 -79q-28 13 -58.5 20.5t-63.5 7.5q-81 0 -123.5 -46t-42.5 -128q0 -80 40.5 -128.5t123.5 -48.5q34 0 65.5 8t59.5 22l12 -72q-20 -14 -58.5 -25.5t-81.5 -11.5z
M224 591v90h96v-90h-96z" />
    <glyph glyph-name="d" unicode="d" horiz-adv-x="555" 
d="M255 -10q-63 0 -113.5 34t-80 91.5t-29.5 128.5q0 68 27 126t77 94t119 36q49 0 95 -21t74 -71l-19 -13v355h90v-750h-80l-17 104l23 -16q-22 -49 -67.5 -73.5t-98.5 -24.5zM271 70q34 0 67 17.5t55 56t22 100.5q0 58 -22 97t-55 59t-67 20q-46 0 -79 -23t-50.5 -63
t-17.5 -90q0 -48 17.5 -87.5t50.5 -63t79 -23.5z" />
    <glyph glyph-name="eth" unicode="&#xf0;" horiz-adv-x="517" 
d="M249 -12q-69 0 -118.5 30.5t-76 80t-26.5 106.5q0 59 27.5 109.5t76 81t111.5 30.5q54 0 91 -22t52 -53l-9 -9q-5 70 -33 135.5t-79 112.5t-124 64l15 47q74 -7 134 -48t103.5 -104t67 -139t23.5 -153q0 -63 -17.5 -112.5t-49.5 -84.5t-75 -53.5t-93 -18.5zM253 71
q59 0 94.5 39t35.5 98t-35 97t-94 38q-42 0 -72 -19t-46 -49.5t-16 -64.5q0 -57 36 -98t97 -41zM174 499l-33 54l254 147l32 -54z" />
    <glyph glyph-name="dcaron" unicode="&#x10f;" horiz-adv-x="621" 
d="M255 -10q-63 0 -113.5 34t-80 91.5t-29.5 128.5q0 68 27 126t77 94t119 36q49 0 95 -21t74 -71l-19 -13v355h90v-750h-80l-17 104l23 -16q-22 -49 -67.5 -73.5t-98.5 -24.5zM271 70q34 0 67 17.5t55 56t22 100.5q0 58 -22 97t-55 59t-67 20q-46 0 -79 -23t-50.5 -63
t-17.5 -90q0 -48 17.5 -87.5t50.5 -63t79 -23.5zM545 583v167h94l-28 -167h-66z" />
    <glyph glyph-name="dcroat" unicode="&#x111;" horiz-adv-x="555" 
d="M255 587v70h316v-70h-316zM255 -10q-63 0 -113.5 34t-80 91.5t-29.5 128.5q0 68 27 126t77 94t119 36q49 0 95 -21t74 -71l-19 -13v355h90v-750h-80l-17 104l23 -16q-22 -49 -67.5 -73.5t-98.5 -24.5zM271 70q34 0 67 17.5t55 56t22 100.5q0 58 -22 97t-55 59t-67 20
q-46 0 -79 -23t-50.5 -63t-17.5 -90q0 -48 17.5 -87.5t50.5 -63t79 -23.5z" />
    <glyph glyph-name="uni1E0D" unicode="&#x1e0d;" horiz-adv-x="555" 
d="M255 -10q-63 0 -113.5 34t-80 91.5t-29.5 128.5q0 68 27 126t77 94t119 36q49 0 95 -21t74 -71l-19 -13v355h90v-750h-80l-17 104l23 -16q-22 -49 -67.5 -73.5t-98.5 -24.5zM271 70q34 0 67 17.5t55 56t22 100.5q0 58 -22 97t-55 59t-67 20q-46 0 -79 -23t-50.5 -63
t-17.5 -90q0 -48 17.5 -87.5t50.5 -63t79 -23.5zM230 -171v90h96v-90h-96z" />
    <glyph glyph-name="uni1E0F" unicode="&#x1e0f;" horiz-adv-x="555" 
d="M255 -10q-63 0 -113.5 34t-80 91.5t-29.5 128.5q0 68 27 126t77 94t119 36q49 0 95 -21t74 -71l-19 -13v355h90v-750h-80l-17 104l23 -16q-22 -49 -67.5 -73.5t-98.5 -24.5zM271 70q34 0 67 17.5t55 56t22 100.5q0 58 -22 97t-55 59t-67 20q-46 0 -79 -23t-50.5 -63
t-17.5 -90q0 -48 17.5 -87.5t50.5 -63t79 -23.5zM118 -162v71h320v-71h-320z" />
    <glyph glyph-name="uni01C6" unicode="&#x1c6;" horiz-adv-x="1026" 
d="M255 -10q-63 0 -113.5 34t-80 91.5t-29.5 128.5q0 68 27 126t77 94t119 36q49 0 95 -21t74 -71l-19 -13v355h90v-750h-80l-17 104l23 -16q-22 -49 -67.5 -73.5t-98.5 -24.5zM271 70q34 0 67 17.5t55 56t22 100.5q0 58 -22 97t-55 59t-67 20q-46 0 -79 -23t-50.5 -63
t-17.5 -90q0 -48 17.5 -87.5t50.5 -63t79 -23.5zM577 0l303 456l11 -45h-298v79h408l-303 -456l-11 45h309v-79h-419zM796 568l-127 110v61l127 -80l127 80v-61z" />
    <glyph glyph-name="e" unicode="e" horiz-adv-x="512" 
d="M296 -10q-86 0 -145.5 35.5t-89.5 94t-30 129.5q0 69 28.5 126t82 91t129.5 34q61 0 108.5 -24t75 -70.5t27.5 -112.5q0 -11 -1 -23t-3 -25h-355q7 -68 33 -106t65 -53.5t86 -15.5q34 0 71 7t70 22l12 -71q-28 -13 -69.5 -25.5t-94.5 -12.5zM131 307h258q0 35 -13 60
t-39.5 39t-67.5 14q-60 0 -92.5 -30t-45.5 -83z" />
    <glyph glyph-name="eacute" unicode="&#xe9;" horiz-adv-x="512" 
d="M296 -10q-86 0 -145.5 35.5t-89.5 94t-30 129.5q0 69 28.5 126t82 91t129.5 34q61 0 108.5 -24t75 -70.5t27.5 -112.5q0 -11 -1 -23t-3 -25h-355q7 -68 33 -106t65 -53.5t86 -15.5q34 0 71 7t70 22l12 -71q-28 -13 -69.5 -25.5t-94.5 -12.5zM131 307h258q0 35 -13 60
t-39.5 39t-67.5 14q-60 0 -92.5 -30t-45.5 -83zM185 576v61l187 110v-98z" />
    <glyph glyph-name="ebreve" unicode="&#x115;" horiz-adv-x="512" 
d="M296 -10q-86 0 -145.5 35.5t-89.5 94t-30 129.5q0 69 28.5 126t82 91t129.5 34q61 0 108.5 -24t75 -70.5t27.5 -112.5q0 -11 -1 -23t-3 -25h-355q7 -68 33 -106t65 -53.5t86 -15.5q34 0 71 7t70 22l12 -71q-28 -13 -69.5 -25.5t-94.5 -12.5zM131 307h258q0 35 -13 60
t-39.5 39t-67.5 14q-60 0 -92.5 -30t-45.5 -83zM278 576q-50 0 -82.5 18t-48 47t-15.5 62h80q0 -31 19.5 -46t46.5 -15t46.5 15t19.5 46h80q0 -33 -15.5 -62t-48 -47t-82.5 -18z" />
    <glyph glyph-name="ecaron" unicode="&#x11b;" horiz-adv-x="512" 
d="M296 -10q-86 0 -145.5 35.5t-89.5 94t-30 129.5q0 69 28.5 126t82 91t129.5 34q61 0 108.5 -24t75 -70.5t27.5 -112.5q0 -11 -1 -23t-3 -25h-355q7 -68 33 -106t65 -53.5t86 -15.5q34 0 71 7t70 22l12 -71q-28 -13 -69.5 -25.5t-94.5 -12.5zM131 307h258q0 35 -13 60
t-39.5 39t-67.5 14q-60 0 -92.5 -30t-45.5 -83zM278 558l-127 110v61l127 -80l127 80v-61z" />
    <glyph glyph-name="uni1E1D" unicode="&#x1e1d;" horiz-adv-x="512" 
d="M296 -10q-86 0 -145.5 35.5t-89.5 94t-30 129.5q0 69 28.5 126t82 91t129.5 34q61 0 108.5 -24t75 -70.5t27.5 -112.5q0 -11 -1 -23t-3 -25h-355q7 -68 33 -106t65 -53.5t86 -15.5q34 0 71 7t70 22l12 -71q-28 -13 -69.5 -25.5t-94.5 -12.5zM131 307h258q0 35 -13 60
t-39.5 39t-67.5 14q-60 0 -92.5 -30t-45.5 -83zM259 -79l-33 15q12 4 24 7t25 3q41 0 64 -22t23 -59q0 -44 -31 -67.5t-75 -23.5q-26 0 -45 6t-33 13l15 49q15 -8 30.5 -12.5t32.5 -4.5q22 0 35 9.5t13 28.5q0 18 -12 29t-38 11q-11 0 -22 -1.5t-24 -6.5l26 105h50zM278 576
q-50 0 -82.5 18t-48 47t-15.5 62h80q0 -31 19.5 -46t46.5 -15t46.5 15t19.5 46h80q0 -33 -15.5 -62t-48 -47t-82.5 -18z" />
    <glyph glyph-name="ecircumflex" unicode="&#xea;" horiz-adv-x="512" 
d="M296 -10q-86 0 -145.5 35.5t-89.5 94t-30 129.5q0 69 28.5 126t82 91t129.5 34q61 0 108.5 -24t75 -70.5t27.5 -112.5q0 -11 -1 -23t-3 -25h-355q7 -68 33 -106t65 -53.5t86 -15.5q34 0 71 7t70 22l12 -71q-28 -13 -69.5 -25.5t-94.5 -12.5zM131 307h258q0 35 -13 60
t-39.5 39t-67.5 14q-60 0 -92.5 -30t-45.5 -83zM151 564v61l127 110l127 -110v-61l-127 80z" />
    <glyph glyph-name="uni1EBF" unicode="&#x1ebf;" horiz-adv-x="512" 
d="M296 -10q-86 0 -145.5 35.5t-89.5 94t-30 129.5q0 69 28.5 126t82 91t129.5 34q61 0 108.5 -24t75 -70.5t27.5 -112.5q0 -11 -1 -23t-3 -25h-355q7 -68 33 -106t65 -53.5t86 -15.5q34 0 71 7t70 22l12 -71q-28 -13 -69.5 -25.5t-94.5 -12.5zM131 307h258q0 35 -13 60
t-39.5 39t-67.5 14q-60 0 -92.5 -30t-45.5 -83zM151 543v61l127 90l127 -90v-61l-127 66zM353 689l66 117h98l-98 -117h-66z" />
    <glyph glyph-name="uni1EC7" unicode="&#x1ec7;" horiz-adv-x="512" 
d="M296 -10q-86 0 -145.5 35.5t-89.5 94t-30 129.5q0 69 28.5 126t82 91t129.5 34q61 0 108.5 -24t75 -70.5t27.5 -112.5q0 -11 -1 -23t-3 -25h-355q7 -68 33 -106t65 -53.5t86 -15.5q34 0 71 7t70 22l12 -71q-28 -13 -69.5 -25.5t-94.5 -12.5zM131 307h258q0 35 -13 60
t-39.5 39t-67.5 14q-60 0 -92.5 -30t-45.5 -83zM151 564v61l127 110l127 -110v-61l-127 80zM208 -171v90h96v-90h-96z" />
    <glyph glyph-name="uni1EC1" unicode="&#x1ec1;" horiz-adv-x="512" 
d="M296 -10q-86 0 -145.5 35.5t-89.5 94t-30 129.5q0 69 28.5 126t82 91t129.5 34q61 0 108.5 -24t75 -70.5t27.5 -112.5q0 -11 -1 -23t-3 -25h-355q7 -68 33 -106t65 -53.5t86 -15.5q34 0 71 7t70 22l12 -71q-28 -13 -69.5 -25.5t-94.5 -12.5zM131 307h258q0 35 -13 60
t-39.5 39t-67.5 14q-60 0 -92.5 -30t-45.5 -83zM151 543v61l127 90l127 -90v-61l-127 66zM367 689l-87 117h95l56 -117h-64z" />
    <glyph glyph-name="uni1EC3" unicode="&#x1ec3;" horiz-adv-x="512" 
d="M296 -10q-86 0 -145.5 35.5t-89.5 94t-30 129.5q0 69 28.5 126t82 91t129.5 34q61 0 108.5 -24t75 -70.5t27.5 -112.5q0 -11 -1 -23t-3 -25h-355q7 -68 33 -106t65 -53.5t86 -15.5q34 0 71 7t70 22l12 -71q-28 -13 -69.5 -25.5t-94.5 -12.5zM131 307h258q0 35 -13 60
t-39.5 39t-67.5 14q-60 0 -92.5 -30t-45.5 -83zM151 543v61l127 90l127 -90v-61l-127 66zM374 662l-9 40q17 6 26 15.5t9 23.5q0 17 -11 24.5t-30 7.5q-16 0 -31.5 -5.5t-31.5 -13.5l-17 51q17 9 37 14t43 5q41 0 70 -20t29 -57q0 -33 -20 -54t-64 -31z" />
    <glyph glyph-name="uni1EC5" unicode="&#x1ec5;" horiz-adv-x="512" 
d="M296 -10q-86 0 -145.5 35.5t-89.5 94t-30 129.5q0 69 28.5 126t82 91t129.5 34q61 0 108.5 -24t75 -70.5t27.5 -112.5q0 -11 -1 -23t-3 -25h-355q7 -68 33 -106t65 -53.5t86 -15.5q34 0 71 7t70 22l12 -71q-28 -13 -69.5 -25.5t-94.5 -12.5zM131 307h258q0 35 -13 60
t-39.5 39t-67.5 14q-60 0 -92.5 -30t-45.5 -83zM151 543v61l127 90l127 -90v-61l-127 66zM361 735q-23 0 -48 10.5l-49 20.5t-43 10q-34 0 -34 -36h-65q0 49 19 74.5t54 25.5q23 0 48 -10l49 -20.5t43 -10.5q34 0 34 36h65q0 -49 -19 -74.5t-54 -25.5z" />
    <glyph glyph-name="uni0205" unicode="&#x205;" horiz-adv-x="512" 
d="M296 -10q-86 0 -145.5 35.5t-89.5 94t-30 129.5q0 69 28.5 126t82 91t129.5 34q61 0 108.5 -24t75 -70.5t27.5 -112.5q0 -11 -1 -23t-3 -25h-355q7 -68 33 -106t65 -53.5t86 -15.5q34 0 71 7t70 22l12 -71q-28 -13 -69.5 -25.5t-94.5 -12.5zM131 307h258q0 35 -13 60
t-39.5 39t-67.5 14q-60 0 -92.5 -30t-45.5 -83zM382 578h-66l-98 167h98zM242 578h-66l-103 167h98z" />
    <glyph glyph-name="edieresis" unicode="&#xeb;" horiz-adv-x="512" 
d="M296 -10q-86 0 -145.5 35.5t-89.5 94t-30 129.5q0 69 28.5 126t82 91t129.5 34q61 0 108.5 -24t75 -70.5t27.5 -112.5q0 -11 -1 -23t-3 -25h-355q7 -68 33 -106t65 -53.5t86 -15.5q34 0 71 7t70 22l12 -71q-28 -13 -69.5 -25.5t-94.5 -12.5zM131 307h258q0 35 -13 60
t-39.5 39t-67.5 14q-60 0 -92.5 -30t-45.5 -83zM331 591v80h86v-80h-86zM139 591v80h86v-80h-86z" />
    <glyph glyph-name="edotaccent" unicode="&#x117;" horiz-adv-x="512" 
d="M296 -10q-86 0 -145.5 35.5t-89.5 94t-30 129.5q0 69 28.5 126t82 91t129.5 34q61 0 108.5 -24t75 -70.5t27.5 -112.5q0 -11 -1 -23t-3 -25h-355q7 -68 33 -106t65 -53.5t86 -15.5q34 0 71 7t70 22l12 -71q-28 -13 -69.5 -25.5t-94.5 -12.5zM131 307h258q0 35 -13 60
t-39.5 39t-67.5 14q-60 0 -92.5 -30t-45.5 -83zM230 591v90h96v-90h-96z" />
    <glyph glyph-name="uni1EB9" unicode="&#x1eb9;" horiz-adv-x="512" 
d="M296 -10q-86 0 -145.5 35.5t-89.5 94t-30 129.5q0 69 28.5 126t82 91t129.5 34q61 0 108.5 -24t75 -70.5t27.5 -112.5q0 -11 -1 -23t-3 -25h-355q7 -68 33 -106t65 -53.5t86 -15.5q34 0 71 7t70 22l12 -71q-28 -13 -69.5 -25.5t-94.5 -12.5zM131 307h258q0 35 -13 60
t-39.5 39t-67.5 14q-60 0 -92.5 -30t-45.5 -83zM208 -171v90h96v-90h-96z" />
    <glyph glyph-name="egrave" unicode="&#xe8;" horiz-adv-x="512" 
d="M296 -10q-86 0 -145.5 35.5t-89.5 94t-30 129.5q0 69 28.5 126t82 91t129.5 34q61 0 108.5 -24t75 -70.5t27.5 -112.5q0 -11 -1 -23t-3 -25h-355q7 -68 33 -106t65 -53.5t86 -15.5q34 0 71 7t70 22l12 -71q-28 -13 -69.5 -25.5t-94.5 -12.5zM131 307h258q0 35 -13 60
t-39.5 39t-67.5 14q-60 0 -92.5 -30t-45.5 -83zM371 576l-187 73v98l187 -110v-61z" />
    <glyph glyph-name="uni1EBB" unicode="&#x1ebb;" horiz-adv-x="512" 
d="M296 -10q-86 0 -145.5 35.5t-89.5 94t-30 129.5q0 69 28.5 126t82 91t129.5 34q61 0 108.5 -24t75 -70.5t27.5 -112.5q0 -11 -1 -23t-3 -25h-355q7 -68 33 -106t65 -53.5t86 -15.5q34 0 71 7t70 22l12 -71q-28 -13 -69.5 -25.5t-94.5 -12.5zM131 307h258q0 35 -13 60
t-39.5 39t-67.5 14q-60 0 -92.5 -30t-45.5 -83zM293 525l-34 33q23 23 33.5 36t10.5 31t-11 27t-30 9q-16 0 -31.5 -5.5t-31.5 -13.5l-17 51q16 9 36.5 14t43.5 5q41 0 70 -22t29 -62q0 -32 -16.5 -54.5t-51.5 -48.5z" />
    <glyph glyph-name="uni0207" unicode="&#x207;" horiz-adv-x="512" 
d="M296 -10q-86 0 -145.5 35.5t-89.5 94t-30 129.5q0 69 28.5 126t82 91t129.5 34q61 0 108.5 -24t75 -70.5t27.5 -112.5q0 -11 -1 -23t-3 -25h-355q7 -68 33 -106t65 -53.5t86 -15.5q34 0 71 7t70 22l12 -71q-28 -13 -69.5 -25.5t-94.5 -12.5zM131 307h258q0 35 -13 60
t-39.5 39t-67.5 14q-60 0 -92.5 -30t-45.5 -83zM278 703q50 0 82.5 -18t48 -47t15.5 -62h-80q0 31 -19.5 46t-46.5 15t-46.5 -15t-19.5 -46h-80q0 33 15.5 62t48 47t82.5 18z" />
    <glyph glyph-name="emacron" unicode="&#x113;" horiz-adv-x="512" 
d="M296 -10q-86 0 -145.5 35.5t-89.5 94t-30 129.5q0 69 28.5 126t82 91t129.5 34q61 0 108.5 -24t75 -70.5t27.5 -112.5q0 -11 -1 -23t-3 -25h-355q7 -68 33 -106t65 -53.5t86 -15.5q34 0 71 7t70 22l12 -71q-28 -13 -69.5 -25.5t-94.5 -12.5zM131 307h258q0 35 -13 60
t-39.5 39t-67.5 14q-60 0 -92.5 -30t-45.5 -83zM118 591v71h320v-71h-320z" />
    <glyph glyph-name="uni1E17" unicode="&#x1e17;" horiz-adv-x="512" 
d="M296 -10q-86 0 -145.5 35.5t-89.5 94t-30 129.5q0 69 28.5 126t82 91t129.5 34q61 0 108.5 -24t75 -70.5t27.5 -112.5q0 -11 -1 -23t-3 -25h-355q7 -68 33 -106t65 -53.5t86 -15.5q34 0 71 7t70 22l12 -71q-28 -13 -69.5 -25.5t-94.5 -12.5zM131 307h258q0 35 -13 60
t-39.5 39t-67.5 14q-60 0 -92.5 -30t-45.5 -83zM118 583v68h320v-68h-320zM185 726v58l187 95v-95z" />
    <glyph glyph-name="uni1E15" unicode="&#x1e15;" horiz-adv-x="512" 
d="M296 -10q-86 0 -145.5 35.5t-89.5 94t-30 129.5q0 69 28.5 126t82 91t129.5 34q61 0 108.5 -24t75 -70.5t27.5 -112.5q0 -11 -1 -23t-3 -25h-355q7 -68 33 -106t65 -53.5t86 -15.5q34 0 71 7t70 22l12 -71q-28 -13 -69.5 -25.5t-94.5 -12.5zM131 307h258q0 35 -13 60
t-39.5 39t-67.5 14q-60 0 -92.5 -30t-45.5 -83zM118 583v68h320v-68h-320zM371 726l-187 58v95l187 -95v-58z" />
    <glyph glyph-name="eogonek" unicode="&#x119;" horiz-adv-x="512" 
d="M296 -10q-86 0 -145.5 35.5t-89.5 94t-30 129.5q0 69 28.5 126t82 91t129.5 34q61 0 108.5 -24t75 -70.5t27.5 -112.5q0 -11 -1 -23t-3 -25h-355q7 -68 33 -106t65 -53.5t86 -15.5q34 0 71 7t70 22l12 -71q-28 -13 -69.5 -25.5t-94.5 -12.5zM131 307h258q0 35 -13 60
t-39.5 39t-67.5 14q-60 0 -92.5 -30t-45.5 -83zM407 28h53q-35 -27 -56.5 -52.5t-21.5 -53.5q0 -26 13 -38.5t35 -12.5q17 0 32.5 4.5t30.5 12.5l15 -49q-14 -7 -35 -13t-48 -6q-42 0 -71.5 22t-29.5 64q0 40 26.5 72.5t56.5 49.5z" />
    <glyph glyph-name="uni1EBD" unicode="&#x1ebd;" horiz-adv-x="512" 
d="M296 -10q-86 0 -145.5 35.5t-89.5 94t-30 129.5q0 69 28.5 126t82 91t129.5 34q61 0 108.5 -24t75 -70.5t27.5 -112.5q0 -11 -1 -23t-3 -25h-355q7 -68 33 -106t65 -53.5t86 -15.5q34 0 71 7t70 22l12 -71q-28 -13 -69.5 -25.5t-94.5 -12.5zM131 307h258q0 35 -13 60
t-39.5 39t-67.5 14q-60 0 -92.5 -30t-45.5 -83zM358 580q-25 0 -48.5 12l-45.5 23.5t-43 11.5q-34 0 -34 -39h-75q2 54 24 82.5t62 28.5q25 0 48.5 -11.5t45.5 -23.5t43 -12q34 0 34 39h75q-2 -54 -24 -82.5t-62 -28.5z" />
    <glyph glyph-name="uni0259" unicode="&#x259;" horiz-adv-x="512" 
d="M216 500q86 0 145.5 -35.5t89.5 -94t30 -129.5q0 -69 -28.5 -126t-82 -91t-129.5 -34q-61 0 -108.5 24t-75 70.5t-27.5 112.5q0 11 1 23t3 25h355q-7 68 -33 106t-65 53.5t-86 15.5q-34 0 -71 -7t-70 -22l-12 71q28 13 69.5 25.5t94.5 12.5zM381 183h-258q0 -35 13 -60
t39.5 -39t67.5 -14q60 0 92.5 30t45.5 83z" />
    <glyph glyph-name="f" unicode="f" horiz-adv-x="331" 
d="M95 0v420h-85l12 70h73v116q0 65 35 104.5t103 39.5q25 0 43.5 -3.5t34.5 -9.5l-14 -76q-12 5 -23.5 7t-26.5 2q-29 0 -45.5 -16t-16.5 -54v-110h132v-70h-132v-420h-90z" />
    <glyph glyph-name="g" unicode="g" horiz-adv-x="498" 
d="M259 -250q-67 0 -119.5 16.5t-83 49t-30.5 80.5q0 40 22.5 68.5t62.5 46.5q-24 12 -36 27.5t-12 34.5q0 23 13.5 41t44.5 30q-41 26 -63 69t-22 96t24 96.5t69 69t109 25.5q34 0 64 -10t56 -28q22 13 53 21.5t69 8.5h4h4l-11 -60h-11.5h-11.5q-5 0 -23 -1.5t-33 -5.5
q20 -24 31.5 -54t11.5 -62q0 -56 -24.5 -100.5t-69.5 -70t-109 -25.5q-18 0 -34.5 2.5t-31.5 6.5q-23 -8 -23 -26q0 -11 13 -19.5t42 -12.5l131 -21q79 -13 122.5 -46t43.5 -95q0 -51 -30 -84.5t-84.5 -50.5t-127.5 -17zM267 -170q69 0 106 18t37 52q0 27 -23 42.5t-67 23.5
l-140 24q-27 -13 -47.5 -33t-20.5 -47q0 -42 42 -61t113 -19zM238 185q57 0 87 34t30 89q0 52 -30 86t-87 34t-86.5 -34t-29.5 -86q0 -55 29.5 -89t86.5 -34z" />
    <glyph glyph-name="gbreve" unicode="&#x11f;" horiz-adv-x="498" 
d="M259 -250q-67 0 -119.5 16.5t-83 49t-30.5 80.5q0 40 22.5 68.5t62.5 46.5q-24 12 -36 27.5t-12 34.5q0 23 13.5 41t44.5 30q-41 26 -63 69t-22 96t24 96.5t69 69t109 25.5q34 0 64 -10t56 -28q22 13 53 21.5t69 8.5h4h4l-11 -60h-11.5h-11.5q-5 0 -23 -1.5t-33 -5.5
q20 -24 31.5 -54t11.5 -62q0 -56 -24.5 -100.5t-69.5 -70t-109 -25.5q-18 0 -34.5 2.5t-31.5 6.5q-23 -8 -23 -26q0 -11 13 -19.5t42 -12.5l131 -21q79 -13 122.5 -46t43.5 -95q0 -51 -30 -84.5t-84.5 -50.5t-127.5 -17zM267 -170q69 0 106 18t37 52q0 27 -23 42.5t-67 23.5
l-140 24q-27 -13 -47.5 -33t-20.5 -47q0 -42 42 -61t113 -19zM238 185q57 0 87 34t30 89q0 52 -30 86t-87 34t-86.5 -34t-29.5 -86q0 -55 29.5 -89t86.5 -34zM253 576q-50 0 -82.5 18t-48 47t-15.5 62h80q0 -31 19.5 -46t46.5 -15t46.5 15t19.5 46h80q0 -33 -15.5 -62
t-48 -47t-82.5 -18z" />
    <glyph glyph-name="gcaron" unicode="&#x1e7;" horiz-adv-x="498" 
d="M259 -250q-67 0 -119.5 16.5t-83 49t-30.5 80.5q0 40 22.5 68.5t62.5 46.5q-24 12 -36 27.5t-12 34.5q0 23 13.5 41t44.5 30q-41 26 -63 69t-22 96t24 96.5t69 69t109 25.5q34 0 64 -10t56 -28q22 13 53 21.5t69 8.5h4h4l-11 -60h-11.5h-11.5q-5 0 -23 -1.5t-33 -5.5
q20 -24 31.5 -54t11.5 -62q0 -56 -24.5 -100.5t-69.5 -70t-109 -25.5q-18 0 -34.5 2.5t-31.5 6.5q-23 -8 -23 -26q0 -11 13 -19.5t42 -12.5l131 -21q79 -13 122.5 -46t43.5 -95q0 -51 -30 -84.5t-84.5 -50.5t-127.5 -17zM267 -170q69 0 106 18t37 52q0 27 -23 42.5t-67 23.5
l-140 24q-27 -13 -47.5 -33t-20.5 -47q0 -42 42 -61t113 -19zM238 185q57 0 87 34t30 89q0 52 -30 86t-87 34t-86.5 -34t-29.5 -86q0 -55 29.5 -89t86.5 -34zM253 558l-127 110v61l127 -80l127 80v-61z" />
    <glyph glyph-name="gcircumflex" unicode="&#x11d;" horiz-adv-x="498" 
d="M259 -250q-67 0 -119.5 16.5t-83 49t-30.5 80.5q0 40 22.5 68.5t62.5 46.5q-24 12 -36 27.5t-12 34.5q0 23 13.5 41t44.5 30q-41 26 -63 69t-22 96t24 96.5t69 69t109 25.5q34 0 64 -10t56 -28q22 13 53 21.5t69 8.5h4h4l-11 -60h-11.5h-11.5q-5 0 -23 -1.5t-33 -5.5
q20 -24 31.5 -54t11.5 -62q0 -56 -24.5 -100.5t-69.5 -70t-109 -25.5q-18 0 -34.5 2.5t-31.5 6.5q-23 -8 -23 -26q0 -11 13 -19.5t42 -12.5l131 -21q79 -13 122.5 -46t43.5 -95q0 -51 -30 -84.5t-84.5 -50.5t-127.5 -17zM267 -170q69 0 106 18t37 52q0 27 -23 42.5t-67 23.5
l-140 24q-27 -13 -47.5 -33t-20.5 -47q0 -42 42 -61t113 -19zM238 185q57 0 87 34t30 89q0 52 -30 86t-87 34t-86.5 -34t-29.5 -86q0 -55 29.5 -89t86.5 -34zM126 564v61l127 110l127 -110v-61l-127 80z" />
    <glyph glyph-name="gcommaaccent" unicode="&#x123;" horiz-adv-x="498" 
d="M259 -250q-67 0 -119.5 16.5t-83 49t-30.5 80.5q0 40 22.5 68.5t62.5 46.5q-24 12 -36 27.5t-12 34.5q0 23 13.5 41t44.5 30q-41 26 -63 69t-22 96t24 96.5t69 69t109 25.5q34 0 64 -10t56 -28q22 13 53 21.5t69 8.5h4h4l-11 -60h-11.5h-11.5q-5 0 -23 -1.5t-33 -5.5
q20 -24 31.5 -54t11.5 -62q0 -56 -24.5 -100.5t-69.5 -70t-109 -25.5q-18 0 -34.5 2.5t-31.5 6.5q-23 -8 -23 -26q0 -11 13 -19.5t42 -12.5l131 -21q79 -13 122.5 -46t43.5 -95q0 -51 -30 -84.5t-84.5 -50.5t-127.5 -17zM267 -170q69 0 106 18t37 52q0 27 -23 42.5t-67 23.5
l-140 24q-27 -13 -47.5 -33t-20.5 -47q0 -42 42 -61t113 -19zM238 185q57 0 87 34t30 89q0 52 -30 86t-87 34t-86.5 -34t-29.5 -86q0 -55 29.5 -89t86.5 -34zM251 789h57l-36 -107h35v-106h-108v96z" />
    <glyph glyph-name="gdotaccent" unicode="&#x121;" horiz-adv-x="498" 
d="M259 -250q-67 0 -119.5 16.5t-83 49t-30.5 80.5q0 40 22.5 68.5t62.5 46.5q-24 12 -36 27.5t-12 34.5q0 23 13.5 41t44.5 30q-41 26 -63 69t-22 96t24 96.5t69 69t109 25.5q34 0 64 -10t56 -28q22 13 53 21.5t69 8.5h4h4l-11 -60h-11.5h-11.5q-5 0 -23 -1.5t-33 -5.5
q20 -24 31.5 -54t11.5 -62q0 -56 -24.5 -100.5t-69.5 -70t-109 -25.5q-18 0 -34.5 2.5t-31.5 6.5q-23 -8 -23 -26q0 -11 13 -19.5t42 -12.5l131 -21q79 -13 122.5 -46t43.5 -95q0 -51 -30 -84.5t-84.5 -50.5t-127.5 -17zM267 -170q69 0 106 18t37 52q0 27 -23 42.5t-67 23.5
l-140 24q-27 -13 -47.5 -33t-20.5 -47q0 -42 42 -61t113 -19zM238 185q57 0 87 34t30 89q0 52 -30 86t-87 34t-86.5 -34t-29.5 -86q0 -55 29.5 -89t86.5 -34zM205 591v90h96v-90h-96z" />
    <glyph glyph-name="uni1E21" unicode="&#x1e21;" horiz-adv-x="498" 
d="M259 -250q-67 0 -119.5 16.5t-83 49t-30.5 80.5q0 40 22.5 68.5t62.5 46.5q-24 12 -36 27.5t-12 34.5q0 23 13.5 41t44.5 30q-41 26 -63 69t-22 96t24 96.5t69 69t109 25.5q34 0 64 -10t56 -28q22 13 53 21.5t69 8.5h4h4l-11 -60h-11.5h-11.5q-5 0 -23 -1.5t-33 -5.5
q20 -24 31.5 -54t11.5 -62q0 -56 -24.5 -100.5t-69.5 -70t-109 -25.5q-18 0 -34.5 2.5t-31.5 6.5q-23 -8 -23 -26q0 -11 13 -19.5t42 -12.5l131 -21q79 -13 122.5 -46t43.5 -95q0 -51 -30 -84.5t-84.5 -50.5t-127.5 -17zM267 -170q69 0 106 18t37 52q0 27 -23 42.5t-67 23.5
l-140 24q-27 -13 -47.5 -33t-20.5 -47q0 -42 42 -61t113 -19zM238 185q57 0 87 34t30 89q0 52 -30 86t-87 34t-86.5 -34t-29.5 -86q0 -55 29.5 -89t86.5 -34zM93 591v71h320v-71h-320z" />
    <glyph glyph-name="h" unicode="h" horiz-adv-x="542" 
d="M60 0v750h91v-345l-32 2q35 43 74.5 68t101.5 25q63 0 105.5 -28.5t64 -79.5t21.5 -119v-273h-90v262q0 81 -30 119.5t-91 38.5q-47 0 -82.5 -25t-56.5 -67l15 55v-383h-91z" />
    <glyph glyph-name="hbar" unicode="&#x127;" horiz-adv-x="542" 
d="M60 0v750h91v-337h-17q28 45 68.5 66t99.5 21q67 0 107.5 -30t58.5 -84t18 -124v-262h-90v262q0 87 -26 122.5t-91 35.5q-53 0 -87 -22t-56 -70l15 66v-394h-91zM-16 587v70h317v-70h-317z" />
    <glyph glyph-name="uni1E2B" unicode="&#x1e2b;" horiz-adv-x="542" 
d="M60 0v750h91v-345l-32 2q35 43 74.5 68t101.5 25q63 0 105.5 -28.5t64 -79.5t21.5 -119v-273h-90v262q0 81 -30 119.5t-91 38.5q-47 0 -82.5 -25t-56.5 -67l15 55v-383h-91zM274 -218q-50 0 -82.5 18t-48 47t-15.5 62h80q0 -31 19.5 -46t46.5 -15t46.5 15t19.5 46h80
q0 -33 -15.5 -62t-48 -47t-82.5 -18z" />
    <glyph glyph-name="hcircumflex" unicode="&#x125;" horiz-adv-x="542" 
d="M60 0v750h91v-345l-32 2q35 43 74.5 68t101.5 25q63 0 105.5 -28.5t64 -79.5t21.5 -119v-273h-90v262q0 81 -30 119.5t-91 38.5q-47 0 -82.5 -25t-56.5 -67l15 55v-383h-91zM-21 783v61l127 90l127 -90v-61l-127 66z" />
    <glyph glyph-name="uni1E25" unicode="&#x1e25;" horiz-adv-x="542" 
d="M60 0v750h91v-345l-32 2q35 43 74.5 68t101.5 25q63 0 105.5 -28.5t64 -79.5t21.5 -119v-273h-90v262q0 81 -30 119.5t-91 38.5q-47 0 -82.5 -25t-56.5 -67l15 55v-383h-91zM226 -171v90h96v-90h-96z" />
    <glyph glyph-name="i" unicode="i" horiz-adv-x="212" 
d="M61 0v490h90v-490h-90zM61 600v100h90v-100h-90z" />
    <glyph glyph-name="dotlessi" unicode="&#x131;" horiz-adv-x="212" 
d="M61 0v490h90v-490h-90z" />
    <glyph glyph-name="iacute" unicode="&#xed;" horiz-adv-x="212" 
d="M61 0v490h90v-490h-90zM13 576v61l187 110v-98z" />
    <glyph glyph-name="ibreve" unicode="&#x12d;" horiz-adv-x="212" 
d="M61 0v490h90v-490h-90zM106 576q-50 0 -82.5 18t-48 47t-15.5 62h80q0 -31 19.5 -46t46.5 -15t46.5 15t19.5 46h80q0 -33 -15.5 -62t-48 -47t-82.5 -18z" />
    <glyph glyph-name="icircumflex" unicode="&#xee;" horiz-adv-x="212" 
d="M61 0v490h90v-490h-90zM-21 564v61l127 110l127 -110v-61l-127 80z" />
    <glyph glyph-name="uni0209" unicode="&#x209;" horiz-adv-x="212" 
d="M61 0v490h90v-490h-90zM210 578h-66l-98 167h98zM70 578h-66l-103 167h98z" />
    <glyph glyph-name="idieresis" unicode="&#xef;" horiz-adv-x="212" 
d="M61 0v490h90v-490h-90zM159 591v80h86v-80h-86zM-33 591v80h86v-80h-86z" />
    <glyph glyph-name="uni1E2F" unicode="&#x1e2f;" horiz-adv-x="212" 
d="M61 0v490h90v-490h-90zM-33 584v75h86v-75h-86zM159 584v75h86v-75h-86zM13 714v58l187 95v-95z" />
    <glyph glyph-name="i.locl" horiz-adv-x="212" 
d="M61 0v490h90v-490h-90zM58 591v90h96v-90h-96z" />
    <glyph glyph-name="uni1ECB" unicode="&#x1ecb;" horiz-adv-x="212" 
d="M61 0v490h90v-490h-90zM61 600v100h90v-100h-90zM58 -171v90h96v-90h-96z" />
    <glyph glyph-name="igrave" unicode="&#xec;" horiz-adv-x="212" 
d="M61 0v490h90v-490h-90zM199 576l-187 73v98l187 -110v-61z" />
    <glyph glyph-name="uni1EC9" unicode="&#x1ec9;" horiz-adv-x="212" 
d="M61 0v490h90v-490h-90zM121 525l-34 33q23 23 33.5 36t10.5 31t-11 27t-30 9q-16 0 -31.5 -5.5t-31.5 -13.5l-17 51q16 9 36.5 14t43.5 5q41 0 70 -22t29 -62q0 -32 -16.5 -54.5t-51.5 -48.5z" />
    <glyph glyph-name="uni020B" unicode="&#x20b;" horiz-adv-x="212" 
d="M61 0v490h90v-490h-90zM106 703q50 0 82.5 -18t48 -47t15.5 -62h-80q0 31 -19.5 46t-46.5 15t-46.5 -15t-19.5 -46h-80q0 33 15.5 62t48 47t82.5 18z" />
    <glyph glyph-name="ij" unicode="&#x133;" horiz-adv-x="424" 
d="M61 0v490h90v-490h-90zM61 600v100h90v-100h-90zM210 -242l-10 69q30 3 45.5 11.5t21.5 29t6 59.5v563h90v-597q0 -47 -20 -74t-48.5 -39.5t-54.5 -16.5zM273 600v100h90v-100h-90z" />
    <glyph glyph-name="imacron" unicode="&#x12b;" horiz-adv-x="212" 
d="M61 0v490h90v-490h-90zM-54 591v71h320v-71h-320z" />
    <glyph glyph-name="iogonek" unicode="&#x12f;" horiz-adv-x="212" 
d="M61 0v490h90v-490h-90zM61 600v100h90v-100h-90zM98 0h53q-35 -27 -56.5 -52.5t-21.5 -53.5q0 -26 13 -38.5t35 -12.5q17 0 32.5 4.5t30.5 12.5l15 -49q-14 -7 -35 -13t-48 -6q-42 0 -71.5 22t-29.5 64q0 40 26.5 72.5t56.5 49.5z" />
    <glyph glyph-name="itilde" unicode="&#x129;" horiz-adv-x="212" 
d="M61 0v490h90v-490h-90zM186 580q-25 0 -48.5 12l-45.5 23.5t-43 11.5q-34 0 -34 -39h-75q2 54 24 82.5t62 28.5q25 0 48.5 -11.5t45.5 -23.5t43 -12q34 0 34 39h75q-2 -54 -24 -82.5t-62 -28.5z" />
    <glyph glyph-name="j" unicode="j" horiz-adv-x="212" 
d="M-2 -242l-10 69q30 3 45.5 11.5t21.5 29t6 59.5v563h90v-597q0 -47 -20 -74t-48.5 -39.5t-54.5 -16.5zM61 600v100h90v-100h-90z" />
    <glyph glyph-name="uni0237" unicode="&#x237;" horiz-adv-x="212" 
d="M-2 -242l-10 69q30 3 45.5 11.5t21.5 29t6 59.5v563h90v-597q0 -47 -20 -74t-48.5 -39.5t-54.5 -16.5z" />
    <glyph glyph-name="jcircumflex" unicode="&#x135;" horiz-adv-x="212" 
d="M-2 -242l-10 69q30 3 45.5 11.5t21.5 29t6 59.5v563h90v-597q0 -47 -20 -74t-48.5 -39.5t-54.5 -16.5zM-21 564v61l127 110l127 -110v-61l-127 80z" />
    <glyph glyph-name="k" unicode="k" horiz-adv-x="448" 
d="M60 0v750h90v-481l180 221h110l-195 -228l200 -262h-110l-185 249v-249h-90z" />
    <glyph glyph-name="kcommaaccent" unicode="&#x137;" horiz-adv-x="448" 
d="M60 0v750h90v-481l180 221h110l-195 -228l200 -262h-110l-185 249v-249h-90zM246 -304h-57l36 107h-35v106h108v-96z" />
    <glyph glyph-name="kgreenlandic" unicode="&#x138;" horiz-adv-x="502" 
d="M61 0v490h90v-228l230 228h110l-252 -236l257 -254h-110l-235 242v-242h-90z" />
    <glyph glyph-name="l" unicode="l" horiz-adv-x="236" 
d="M187 -10q-47 0 -75 17t-40 44t-12 57v642h90v-590q0 -42 5.5 -63t22 -28t51.5 -7l-13 -72h-29z" />
    <glyph glyph-name="lacute" unicode="&#x13a;" horiz-adv-x="236" 
d="M187 -10q-47 0 -75 17t-40 44t-12 57v642h90v-590q0 -42 5.5 -63t22 -28t51.5 -7l-13 -72h-29zM12 814v58l187 95v-95z" />
    <glyph glyph-name="lcaron" unicode="&#x13e;" horiz-adv-x="278" 
d="M187 -10q-47 0 -75 17t-40 44t-12 57v642h90v-590q0 -42 5.5 -63t22 -28t51.5 -7l-13 -72h-29zM200 583v167h94l-28 -167h-66z" />
    <glyph glyph-name="lcommaaccent" unicode="&#x13c;" horiz-adv-x="236" 
d="M187 -10q-47 0 -75 17t-40 44t-12 57v642h90v-590q0 -42 5.5 -63t22 -28t51.5 -7l-13 -72h-29zM153 -304h-57l36 107h-35v106h108v-96z" />
    <glyph glyph-name="ldot" unicode="&#x140;" horiz-adv-x="281" 
d="M187 -10q-47 0 -75 17t-40 44t-12 57v642h90v-590q0 -42 5.5 -63t22 -28t51.5 -7l-13 -72h-29zM201 370v90h90v-90h-90z" />
    <glyph glyph-name="uni1E37" unicode="&#x1e37;" horiz-adv-x="236" 
d="M187 -10q-47 0 -75 17t-40 44t-12 57v642h90v-590q0 -42 5.5 -63t22 -28t51.5 -7l-13 -72h-29zM102 -171v90h96v-90h-96z" />
    <glyph glyph-name="uni01C9" unicode="&#x1c9;" horiz-adv-x="448" 
d="M187 -10q-47 0 -75 17t-40 44t-12 57v642h90v-590q0 -42 5.5 -63t22 -28t51.5 -7l-13 -72h-29zM234 -242l-10 69q30 3 45.5 11.5t21.5 29t6 59.5v563h90v-597q0 -47 -20 -74t-48.5 -39.5t-54.5 -16.5zM297 600v100h90v-100h-90z" />
    <glyph glyph-name="uni1E3B" unicode="&#x1e3b;" horiz-adv-x="236" 
d="M187 -10q-47 0 -75 17t-40 44t-12 57v642h90v-590q0 -42 5.5 -63t22 -28t51.5 -7l-13 -72h-29zM-10 -162v71h320v-71h-320z" />
    <glyph glyph-name="lslash" unicode="&#x142;" horiz-adv-x="236" 
d="M187 -10q-47 0 -75 17t-40 44t-12 57v642h90v-590q0 -42 5.5 -63t22 -28t51.5 -7l-13 -72h-29zM-10 396v68l240 64v-68z" />
    <glyph glyph-name="m" unicode="m" horiz-adv-x="877" 
d="M61 0v490h70l18 -94l-34 16q46 50 89.5 69t91.5 19q36 0 69.5 -12t60 -41t42.5 -81l-25 11q22 57 67.5 90t122.5 33q61 0 103 -23t63.5 -69.5t21.5 -118.5v-289h-90v288q0 69 -27 100.5t-88 31.5q-43 0 -69 -13t-39 -34t-17.5 -44.5t-4.5 -44.5v-284h-90v270
q0 60 -14.5 92.5t-40.5 45t-60 12.5q-49 0 -88 -22t-53 -69l11 49v-378h-90z" />
    <glyph glyph-name="uni1E43" unicode="&#x1e43;" horiz-adv-x="877" 
d="M61 0v490h70l18 -94l-34 16q46 50 89.5 69t91.5 19q36 0 69.5 -12t60 -41t42.5 -81l-25 11q22 57 67.5 90t122.5 33q61 0 103 -23t63.5 -69.5t21.5 -118.5v-289h-90v288q0 69 -27 100.5t-88 31.5q-43 0 -69 -13t-39 -34t-17.5 -44.5t-4.5 -44.5v-284h-90v270
q0 60 -14.5 92.5t-40.5 45t-60 12.5q-49 0 -88 -22t-53 -69l11 49v-378h-90zM393 -171v90h96v-90h-96z" />
    <glyph glyph-name="n" unicode="n" horiz-adv-x="559" 
d="M61 0v490h70l18 -94l-35 15q50 55 97 72t92 17q107 0 153.5 -62t46.5 -168v-270h-90v270q0 78 -29 114t-99 36q-49 0 -90.5 -22t-54.5 -69l11 55v-384h-90z" />
    <glyph glyph-name="nacute" unicode="&#x144;" horiz-adv-x="559" 
d="M61 0v490h70l18 -94l-35 15q50 55 97 72t92 17q107 0 153.5 -62t46.5 -168v-270h-90v270q0 78 -29 114t-99 36q-49 0 -90.5 -22t-54.5 -69l11 55v-384h-90zM201 576v61l187 110v-98z" />
    <glyph glyph-name="napostrophe" unicode="&#x149;" horiz-adv-x="695" 
d="M111 487h-57l36 107h-35v106h108v-96zM197 0v490h70l18 -94l-35 15q50 55 97 72t92 17q107 0 153.5 -62t46.5 -168v-270h-90v270q0 78 -29 114t-99 36q-49 0 -90.5 -22t-54.5 -69l11 55v-384h-90z" />
    <glyph glyph-name="ncaron" unicode="&#x148;" horiz-adv-x="559" 
d="M61 0v490h70l18 -94l-35 15q50 55 97 72t92 17q107 0 153.5 -62t46.5 -168v-270h-90v270q0 78 -29 114t-99 36q-49 0 -90.5 -22t-54.5 -69l11 55v-384h-90zM294 558l-127 110v61l127 -80l127 80v-61z" />
    <glyph glyph-name="ncommaaccent" unicode="&#x146;" horiz-adv-x="559" 
d="M61 0v490h70l18 -94l-35 15q50 55 97 72t92 17q107 0 153.5 -62t46.5 -168v-270h-90v270q0 78 -29 114t-99 36q-49 0 -90.5 -22t-54.5 -69l11 55v-384h-90zM285 -304h-57l36 107h-35v106h108v-96z" />
    <glyph glyph-name="uni1E45" unicode="&#x1e45;" horiz-adv-x="559" 
d="M61 0v490h70l18 -94l-35 15q50 55 97 72t92 17q107 0 153.5 -62t46.5 -168v-270h-90v270q0 78 -29 114t-99 36q-49 0 -90.5 -22t-54.5 -69l11 55v-384h-90zM246 591v90h96v-90h-96z" />
    <glyph glyph-name="uni1E47" unicode="&#x1e47;" horiz-adv-x="559" 
d="M61 0v490h70l18 -94l-35 15q50 55 97 72t92 17q107 0 153.5 -62t46.5 -168v-270h-90v270q0 78 -29 114t-99 36q-49 0 -90.5 -22t-54.5 -69l11 55v-384h-90zM234 -171v90h96v-90h-96z" />
    <glyph glyph-name="eng" unicode="&#x14b;" horiz-adv-x="559" 
d="M503 24q0 -68 -26 -113.5t-72 -67.5t-105 -22q-21 0 -41.5 3t-39.5 8l13 78q36 -9 74 -9q48 0 77.5 28t29.5 85v256q0 78 -29 114t-99 36q-42 0 -78.5 -15.5t-55.5 -48.5v-356h-90v490h70l10 -52q42 38 82.5 50t79.5 12q107 0 153.5 -62t46.5 -168v-246z" />
    <glyph glyph-name="uni01CC" unicode="&#x1cc;" horiz-adv-x="771" 
d="M61 0v490h70l18 -94l-35 15q50 55 97 72t92 17q107 0 153.5 -62t46.5 -168v-270h-90v270q0 78 -29 114t-99 36q-49 0 -90.5 -22t-54.5 -69l11 55v-384h-90zM557 -242l-10 69q30 3 45.5 11.5t21.5 29t6 59.5v563h90v-597q0 -47 -20 -74t-48.5 -39.5t-54.5 -16.5zM620 600
v100h90v-100h-90z" />
    <glyph glyph-name="uni1E49" unicode="&#x1e49;" horiz-adv-x="559" 
d="M61 0v490h70l18 -94l-35 15q50 55 97 72t92 17q107 0 153.5 -62t46.5 -168v-270h-90v270q0 78 -29 114t-99 36q-49 0 -90.5 -22t-54.5 -69l11 55v-384h-90zM122 -162v71h320v-71h-320z" />
    <glyph glyph-name="ntilde" unicode="&#xf1;" horiz-adv-x="559" 
d="M61 0v490h70l18 -94l-35 15q50 55 97 72t92 17q107 0 153.5 -62t46.5 -168v-270h-90v270q0 78 -29 114t-99 36q-49 0 -90.5 -22t-54.5 -69l11 55v-384h-90zM374 580q-25 0 -48.5 12l-45.5 23.5t-43 11.5q-34 0 -34 -39h-75q2 54 24 82.5t62 28.5q25 0 48.5 -11.5
t45.5 -23.5t43 -12q34 0 34 39h75q-2 -54 -24 -82.5t-62 -28.5z" />
    <glyph glyph-name="o" unicode="o" horiz-adv-x="550" 
d="M275 -10q-77 0 -131.5 34t-83 92t-28.5 129t28.5 129t83 92t131.5 34t131 -34t83 -92t29 -129t-29 -129t-83 -92t-131 -34zM275 70q73 0 112 46t39 129t-39 129t-112 46t-112 -46t-39 -129t39 -129t112 -46z" />
    <glyph glyph-name="oacute" unicode="&#xf3;" horiz-adv-x="550" 
d="M275 -10q-77 0 -131.5 34t-83 92t-28.5 129t28.5 129t83 92t131.5 34t131 -34t83 -92t29 -129t-29 -129t-83 -92t-131 -34zM275 70q73 0 112 46t39 129t-39 129t-112 46t-112 -46t-39 -129t39 -129t112 -46zM182 576v61l187 110v-98z" />
    <glyph glyph-name="obreve" unicode="&#x14f;" horiz-adv-x="550" 
d="M275 -10q-77 0 -131.5 34t-83 92t-28.5 129t28.5 129t83 92t131.5 34t131 -34t83 -92t29 -129t-29 -129t-83 -92t-131 -34zM275 70q73 0 112 46t39 129t-39 129t-112 46t-112 -46t-39 -129t39 -129t112 -46zM275 576q-50 0 -82.5 18t-48 47t-15.5 62h80q0 -31 19.5 -46
t46.5 -15t46.5 15t19.5 46h80q0 -33 -15.5 -62t-48 -47t-82.5 -18z" />
    <glyph glyph-name="ocircumflex" unicode="&#xf4;" horiz-adv-x="550" 
d="M275 -10q-77 0 -131.5 34t-83 92t-28.5 129t28.5 129t83 92t131.5 34t131 -34t83 -92t29 -129t-29 -129t-83 -92t-131 -34zM275 70q73 0 112 46t39 129t-39 129t-112 46t-112 -46t-39 -129t39 -129t112 -46zM148 564v61l127 110l127 -110v-61l-127 80z" />
    <glyph glyph-name="uni1ED1" unicode="&#x1ed1;" horiz-adv-x="550" 
d="M275 -10q-77 0 -131.5 34t-83 92t-28.5 129t28.5 129t83 92t131.5 34t131 -34t83 -92t29 -129t-29 -129t-83 -92t-131 -34zM275 70q73 0 112 46t39 129t-39 129t-112 46t-112 -46t-39 -129t39 -129t112 -46zM148 543v61l127 90l127 -90v-61l-127 66zM350 689l66 117h98
l-98 -117h-66z" />
    <glyph glyph-name="uni1ED9" unicode="&#x1ed9;" horiz-adv-x="550" 
d="M275 -10q-77 0 -131.5 34t-83 92t-28.5 129t28.5 129t83 92t131.5 34t131 -34t83 -92t29 -129t-29 -129t-83 -92t-131 -34zM275 70q73 0 112 46t39 129t-39 129t-112 46t-112 -46t-39 -129t39 -129t112 -46zM148 564v61l127 110l127 -110v-61l-127 80zM227 -171v90h96
v-90h-96z" />
    <glyph glyph-name="uni1ED3" unicode="&#x1ed3;" horiz-adv-x="550" 
d="M275 -10q-77 0 -131.5 34t-83 92t-28.5 129t28.5 129t83 92t131.5 34t131 -34t83 -92t29 -129t-29 -129t-83 -92t-131 -34zM275 70q73 0 112 46t39 129t-39 129t-112 46t-112 -46t-39 -129t39 -129t112 -46zM148 543v61l127 90l127 -90v-61l-127 66zM364 689l-87 117h95
l56 -117h-64z" />
    <glyph glyph-name="uni1ED5" unicode="&#x1ed5;" horiz-adv-x="550" 
d="M275 -10q-77 0 -131.5 34t-83 92t-28.5 129t28.5 129t83 92t131.5 34t131 -34t83 -92t29 -129t-29 -129t-83 -92t-131 -34zM275 70q73 0 112 46t39 129t-39 129t-112 46t-112 -46t-39 -129t39 -129t112 -46zM148 543v61l127 90l127 -90v-61l-127 66zM371 662l-9 40
q17 6 26 15.5t9 23.5q0 17 -11 24.5t-30 7.5q-16 0 -31.5 -5.5t-31.5 -13.5l-17 51q17 9 37 14t43 5q41 0 70 -20t29 -57q0 -33 -20 -54t-64 -31z" />
    <glyph glyph-name="uni1ED7" unicode="&#x1ed7;" horiz-adv-x="550" 
d="M275 -10q-77 0 -131.5 34t-83 92t-28.5 129t28.5 129t83 92t131.5 34t131 -34t83 -92t29 -129t-29 -129t-83 -92t-131 -34zM275 70q73 0 112 46t39 129t-39 129t-112 46t-112 -46t-39 -129t39 -129t112 -46zM148 543v61l127 90l127 -90v-61l-127 66zM358 735
q-23 0 -48 10.5l-49 20.5t-43 10q-34 0 -34 -36h-65q0 49 19 74.5t54 25.5q23 0 48 -10l49 -20.5t43 -10.5q34 0 34 36h65q0 -49 -19 -74.5t-54 -25.5z" />
    <glyph glyph-name="uni020D" unicode="&#x20d;" horiz-adv-x="550" 
d="M275 -10q-77 0 -131.5 34t-83 92t-28.5 129t28.5 129t83 92t131.5 34t131 -34t83 -92t29 -129t-29 -129t-83 -92t-131 -34zM275 70q73 0 112 46t39 129t-39 129t-112 46t-112 -46t-39 -129t39 -129t112 -46zM379 578h-66l-98 167h98zM239 578h-66l-103 167h98z" />
    <glyph glyph-name="odieresis" unicode="&#xf6;" horiz-adv-x="550" 
d="M275 -10q-77 0 -131.5 34t-83 92t-28.5 129t28.5 129t83 92t131.5 34t131 -34t83 -92t29 -129t-29 -129t-83 -92t-131 -34zM275 70q73 0 112 46t39 129t-39 129t-112 46t-112 -46t-39 -129t39 -129t112 -46zM328 591v80h86v-80h-86zM136 591v80h86v-80h-86z" />
    <glyph glyph-name="uni022B" unicode="&#x22b;" horiz-adv-x="550" 
d="M275 -10q-77 0 -131.5 34t-83 92t-28.5 129t28.5 129t83 92t131.5 34t131 -34t83 -92t29 -129t-29 -129t-83 -92t-131 -34zM275 70q73 0 112 46t39 129t-39 129t-112 46t-112 -46t-39 -129t39 -129t112 -46zM136 584v75h86v-75h-86zM328 584v75h86v-75h-86zM115 743v68
h320v-68h-320z" />
    <glyph glyph-name="uni0231" unicode="&#x231;" horiz-adv-x="550" 
d="M275 -10q-77 0 -131.5 34t-83 92t-28.5 129t28.5 129t83 92t131.5 34t131 -34t83 -92t29 -129t-29 -129t-83 -92t-131 -34zM275 70q73 0 112 46t39 129t-39 129t-112 46t-112 -46t-39 -129t39 -129t112 -46zM227 581v90h96v-90h-96zM115 749v68h320v-68h-320z" />
    <glyph glyph-name="uni1ECD" unicode="&#x1ecd;" horiz-adv-x="550" 
d="M275 -10q-77 0 -131.5 34t-83 92t-28.5 129t28.5 129t83 92t131.5 34t131 -34t83 -92t29 -129t-29 -129t-83 -92t-131 -34zM275 70q73 0 112 46t39 129t-39 129t-112 46t-112 -46t-39 -129t39 -129t112 -46zM227 -171v90h96v-90h-96z" />
    <glyph glyph-name="ograve" unicode="&#xf2;" horiz-adv-x="550" 
d="M275 -10q-77 0 -131.5 34t-83 92t-28.5 129t28.5 129t83 92t131.5 34t131 -34t83 -92t29 -129t-29 -129t-83 -92t-131 -34zM275 70q73 0 112 46t39 129t-39 129t-112 46t-112 -46t-39 -129t39 -129t112 -46zM368 576l-187 73v98l187 -110v-61z" />
    <glyph glyph-name="uni1ECF" unicode="&#x1ecf;" horiz-adv-x="550" 
d="M275 -10q-77 0 -131.5 34t-83 92t-28.5 129t28.5 129t83 92t131.5 34t131 -34t83 -92t29 -129t-29 -129t-83 -92t-131 -34zM275 70q73 0 112 46t39 129t-39 129t-112 46t-112 -46t-39 -129t39 -129t112 -46zM290 525l-34 33q23 23 33.5 36t10.5 31t-11 27t-30 9
q-16 0 -31.5 -5.5t-31.5 -13.5l-17 51q16 9 36.5 14t43.5 5q41 0 70 -22t29 -62q0 -32 -16.5 -54.5t-51.5 -48.5z" />
    <glyph glyph-name="ohorn" unicode="&#x1a1;" horiz-adv-x="550" 
d="M275 -10q-77 0 -131.5 34t-83 92t-28.5 129t28.5 129t83 92t131.5 34t131 -34t83 -92t29 -129t-29 -129t-83 -92t-131 -34zM275 70q73 0 112 46t39 129t-39 129t-112 46t-112 -46t-39 -129t39 -129t112 -46zM339 421v69q38 0 59 17t21 57h86q0 -38 -22 -70.5t-59.5 -52.5
t-84.5 -20z" />
    <glyph glyph-name="uni1EDB" unicode="&#x1edb;" horiz-adv-x="550" 
d="M275 -10q-77 0 -131.5 34t-83 92t-28.5 129t28.5 129t83 92t131.5 34t131 -34t83 -92t29 -129t-29 -129t-83 -92t-131 -34zM275 70q73 0 112 46t39 129t-39 129t-112 46t-112 -46t-39 -129t39 -129t112 -46zM339 421v69q38 0 59 17t21 57h86q0 -38 -22 -70.5t-59.5 -52.5
t-84.5 -20zM182 576v61l187 110v-98z" />
    <glyph glyph-name="uni1EE3" unicode="&#x1ee3;" horiz-adv-x="550" 
d="M275 -10q-77 0 -131.5 34t-83 92t-28.5 129t28.5 129t83 92t131.5 34t131 -34t83 -92t29 -129t-29 -129t-83 -92t-131 -34zM275 70q73 0 112 46t39 129t-39 129t-112 46t-112 -46t-39 -129t39 -129t112 -46zM339 421v69q38 0 59 17t21 57h86q0 -38 -22 -70.5t-59.5 -52.5
t-84.5 -20zM227 -171v90h96v-90h-96z" />
    <glyph glyph-name="uni1EDD" unicode="&#x1edd;" horiz-adv-x="550" 
d="M275 -10q-77 0 -131.5 34t-83 92t-28.5 129t28.5 129t83 92t131.5 34t131 -34t83 -92t29 -129t-29 -129t-83 -92t-131 -34zM275 70q73 0 112 46t39 129t-39 129t-112 46t-112 -46t-39 -129t39 -129t112 -46zM339 421v69q38 0 59 17t21 57h86q0 -38 -22 -70.5t-59.5 -52.5
t-84.5 -20zM368 576l-187 73v98l187 -110v-61z" />
    <glyph glyph-name="uni1EDF" unicode="&#x1edf;" horiz-adv-x="550" 
d="M275 -10q-77 0 -131.5 34t-83 92t-28.5 129t28.5 129t83 92t131.5 34t131 -34t83 -92t29 -129t-29 -129t-83 -92t-131 -34zM275 70q73 0 112 46t39 129t-39 129t-112 46t-112 -46t-39 -129t39 -129t112 -46zM339 421v69q38 0 59 17t21 57h86q0 -38 -22 -70.5t-59.5 -52.5
t-84.5 -20zM290 525l-34 33q23 23 33.5 36t10.5 31t-11 27t-30 9q-16 0 -31.5 -5.5t-31.5 -13.5l-17 51q16 9 36.5 14t43.5 5q41 0 70 -22t29 -62q0 -32 -16.5 -54.5t-51.5 -48.5z" />
    <glyph glyph-name="uni1EE1" unicode="&#x1ee1;" horiz-adv-x="550" 
d="M275 -10q-77 0 -131.5 34t-83 92t-28.5 129t28.5 129t83 92t131.5 34t131 -34t83 -92t29 -129t-29 -129t-83 -92t-131 -34zM275 70q73 0 112 46t39 129t-39 129t-112 46t-112 -46t-39 -129t39 -129t112 -46zM339 421v69q38 0 59 17t21 57h86q0 -38 -22 -70.5t-59.5 -52.5
t-84.5 -20zM355 580q-25 0 -48.5 12l-45.5 23.5t-43 11.5q-34 0 -34 -39h-75q2 54 24 82.5t62 28.5q25 0 48.5 -11.5t45.5 -23.5t43 -12q34 0 34 39h75q-2 -54 -24 -82.5t-62 -28.5z" />
    <glyph glyph-name="ohungarumlaut" unicode="&#x151;" horiz-adv-x="550" 
d="M275 -10q-77 0 -131.5 34t-83 92t-28.5 129t28.5 129t83 92t131.5 34t131 -34t83 -92t29 -129t-29 -129t-83 -92t-131 -34zM275 70q73 0 112 46t39 129t-39 129t-112 46t-112 -46t-39 -129t39 -129t112 -46zM311 578l83 167h98l-115 -167h-66zM171 578l78 167h98
l-110 -167h-66z" />
    <glyph glyph-name="uni020F" unicode="&#x20f;" horiz-adv-x="550" 
d="M275 -10q-77 0 -131.5 34t-83 92t-28.5 129t28.5 129t83 92t131.5 34t131 -34t83 -92t29 -129t-29 -129t-83 -92t-131 -34zM275 70q73 0 112 46t39 129t-39 129t-112 46t-112 -46t-39 -129t39 -129t112 -46zM275 703q50 0 82.5 -18t48 -47t15.5 -62h-80q0 31 -19.5 46
t-46.5 15t-46.5 -15t-19.5 -46h-80q0 33 15.5 62t48 47t82.5 18z" />
    <glyph glyph-name="omacron" unicode="&#x14d;" horiz-adv-x="550" 
d="M275 -10q-77 0 -131.5 34t-83 92t-28.5 129t28.5 129t83 92t131.5 34t131 -34t83 -92t29 -129t-29 -129t-83 -92t-131 -34zM275 70q73 0 112 46t39 129t-39 129t-112 46t-112 -46t-39 -129t39 -129t112 -46zM115 591v71h320v-71h-320z" />
    <glyph glyph-name="uni1E53" unicode="&#x1e53;" horiz-adv-x="550" 
d="M275 -10q-77 0 -131.5 34t-83 92t-28.5 129t28.5 129t83 92t131.5 34t131 -34t83 -92t29 -129t-29 -129t-83 -92t-131 -34zM275 70q73 0 112 46t39 129t-39 129t-112 46t-112 -46t-39 -129t39 -129t112 -46zM115 583v68h320v-68h-320zM182 726v58l187 95v-95z" />
    <glyph glyph-name="uni1E51" unicode="&#x1e51;" horiz-adv-x="550" 
d="M275 -10q-77 0 -131.5 34t-83 92t-28.5 129t28.5 129t83 92t131.5 34t131 -34t83 -92t29 -129t-29 -129t-83 -92t-131 -34zM275 70q73 0 112 46t39 129t-39 129t-112 46t-112 -46t-39 -129t39 -129t112 -46zM115 583v68h320v-68h-320zM368 726l-187 58v95l187 -95v-58z
" />
    <glyph glyph-name="uni01EB" unicode="&#x1eb;" horiz-adv-x="550" 
d="M275 -10q-77 0 -131.5 34t-83 92t-28.5 129t28.5 129t83 92t131.5 34t131 -34t83 -92t29 -129t-29 -129t-83 -92t-131 -34zM275 70q73 0 112 46t39 129t-39 129t-112 46t-112 -46t-39 -129t39 -129t112 -46zM295 0h53q-35 -27 -56.5 -52.5t-21.5 -53.5q0 -26 13 -38.5
t35 -12.5q17 0 32.5 4.5t30.5 12.5l15 -49q-14 -7 -35 -13t-48 -6q-42 0 -71.5 22t-29.5 64q0 40 26.5 72.5t56.5 49.5z" />
    <glyph glyph-name="oslash" unicode="&#xf8;" horiz-adv-x="550" 
d="M411 530h81l-353 -570h-81zM275 -10q-77 0 -131.5 34t-83 92t-28.5 129t28.5 129t83 92t131.5 34t131 -34t83 -92t29 -129t-29 -129t-83 -92t-131 -34zM275 70q73 0 112 46t39 129t-39 129t-112 46t-112 -46t-39 -129t39 -129t112 -46z" />
    <glyph glyph-name="oslashacute" unicode="&#x1ff;" horiz-adv-x="550" 
d="M411 530h81l-353 -570h-81zM275 -10q-77 0 -131.5 34t-83 92t-28.5 129t28.5 129t83 92t131.5 34t131 -34t83 -92t29 -129t-29 -129t-83 -92t-131 -34zM275 70q73 0 112 46t39 129t-39 129t-112 46t-112 -46t-39 -129t39 -129t112 -46zM182 576v61l187 110v-98z" />
    <glyph glyph-name="otilde" unicode="&#xf5;" horiz-adv-x="550" 
d="M275 -10q-77 0 -131.5 34t-83 92t-28.5 129t28.5 129t83 92t131.5 34t131 -34t83 -92t29 -129t-29 -129t-83 -92t-131 -34zM275 70q73 0 112 46t39 129t-39 129t-112 46t-112 -46t-39 -129t39 -129t112 -46zM355 580q-25 0 -48.5 12l-45.5 23.5t-43 11.5q-34 0 -34 -39
h-75q2 54 24 82.5t62 28.5q25 0 48.5 -11.5t45.5 -23.5t43 -12q34 0 34 39h75q-2 -54 -24 -82.5t-62 -28.5z" />
    <glyph glyph-name="uni1E4D" unicode="&#x1e4d;" horiz-adv-x="550" 
d="M275 -10q-77 0 -131.5 34t-83 92t-28.5 129t28.5 129t83 92t131.5 34t131 -34t83 -92t29 -129t-29 -129t-83 -92t-131 -34zM275 70q73 0 112 46t39 129t-39 129t-112 46t-112 -46t-39 -129t39 -129t112 -46zM358 578q-23 0 -48 10l-49 20.5t-43 10.5q-34 0 -34 -36h-65
q0 49 19 74.5t54 25.5q23 0 48 -10.5l49 -20.5t43 -10q34 0 34 36h65q0 -49 -19 -74.5t-54 -25.5zM182 730v58l187 95v-95z" />
    <glyph glyph-name="uni1E4F" unicode="&#x1e4f;" horiz-adv-x="550" 
d="M275 -10q-77 0 -131.5 34t-83 92t-28.5 129t28.5 129t83 92t131.5 34t131 -34t83 -92t29 -129t-29 -129t-83 -92t-131 -34zM275 70q73 0 112 46t39 129t-39 129t-112 46t-112 -46t-39 -129t39 -129t112 -46zM358 578q-23 0 -48 10l-49 20.5t-43 10.5q-34 0 -34 -36h-65
q0 49 19 74.5t54 25.5q23 0 48 -10.5l49 -20.5t43 -10q34 0 34 36h65q0 -49 -19 -74.5t-54 -25.5zM136 760v75h86v-75h-86zM328 760v75h86v-75h-86z" />
    <glyph glyph-name="uni022D" unicode="&#x22d;" horiz-adv-x="550" 
d="M275 -10q-77 0 -131.5 34t-83 92t-28.5 129t28.5 129t83 92t131.5 34t131 -34t83 -92t29 -129t-29 -129t-83 -92t-131 -34zM275 70q73 0 112 46t39 129t-39 129t-112 46t-112 -46t-39 -129t39 -129t112 -46zM358 578q-23 0 -48 10l-49 20.5t-43 10.5q-34 0 -34 -36h-65
q0 49 19 74.5t54 25.5q23 0 48 -10.5l49 -20.5t43 -10q34 0 34 36h65q0 -49 -19 -74.5t-54 -25.5zM115 759v68h320v-68h-320z" />
    <glyph glyph-name="oe" unicode="&#x153;" horiz-adv-x="902" 
d="M275 -10q-77 0 -131.5 34t-83 92t-28.5 129t28.5 129t83 92t131.5 34q73 0 125.5 -35t80.5 -93l-26 -3q27 59 79.5 95t126.5 36q61 0 108.5 -24t75 -70.5t27.5 -112.5q0 -11 -1 -23t-3 -25h-355q7 -68 33 -106t65 -53.5t86 -15.5q34 0 71 7t70 22l12 -71
q-28 -13 -69.5 -25.5t-94.5 -12.5q-88 0 -146.5 39.5t-86.5 103.5l35 -1q-26 -64 -80.5 -103t-132.5 -39zM275 70q73 0 112 46t39 129t-39 129t-112 46t-112 -46t-39 -129t39 -129t112 -46zM521 307h258q0 35 -13 60t-39.5 39t-67.5 14q-60 0 -92.5 -30t-45.5 -83z" />
    <glyph glyph-name="p" unicode="p" horiz-adv-x="557" 
d="M61 -242v732h70l16 -112l-25 18q31 48 76.5 76t111.5 28q67 0 115 -34t73.5 -92t25.5 -129t-24 -129t-71.5 -92t-118.5 -34q-58 0 -105.5 24t-68.5 73l15 18v-347h-90zM293 70q65 0 102 46t37 129t-37 129t-102 46q-41 0 -74 -19t-53 -58t-20 -98q0 -61 20 -100t53 -57
t74 -18z" />
    <glyph glyph-name="thorn" unicode="&#xfe;" horiz-adv-x="581" 
d="M60 -241v991h90v-355l-20 10q37 49 84 72t104 23q72 0 123.5 -35t79 -93t27.5 -127t-26.5 -127t-78 -93t-125.5 -35q-64 0 -111 24t-72 71l15 14v-340h-90zM303 62q76 0 115 52t39 131q0 78 -39 126.5t-115 48.5q-49 0 -85 -21t-55.5 -60t-19.5 -94t19.5 -96t55.5 -64
t85 -23z" />
    <glyph glyph-name="q" unicode="q" horiz-adv-x="557" 
d="M406 -242v347l15 -18q-20 -49 -65.5 -73t-103.5 -24q-72 0 -121 34t-73.5 92t-24.5 129q0 67 26 125t74.5 94t117.5 36t111 -27t73 -77l-25 -18l16 112h70v-732h-90zM264 70q40 0 73.5 18t53.5 57t20 100q0 89 -43 132t-104 43q-65 0 -102 -46t-37 -129t37 -129t102 -46z
" />
    <glyph glyph-name="r" unicode="r" horiz-adv-x="316" 
d="M61 0v490h74l11 -81q38 47 72 69t73 22q13 0 23 -3l-9 -99q-7 2 -14 2.5t-16 0.5q-39 0 -72 -17.5t-46 -37.5v-346h-96z" />
    <glyph glyph-name="racute" unicode="&#x155;" horiz-adv-x="316" 
d="M61 0v490h74l11 -81q38 47 72 69t73 22q13 0 23 -3l-9 -99q-7 2 -14 2.5t-16 0.5q-39 0 -72 -17.5t-46 -37.5v-346h-96zM118 576v61l187 110v-98z" />
    <glyph glyph-name="rcaron" unicode="&#x159;" horiz-adv-x="316" 
d="M61 0v490h74l11 -81q38 47 72 69t73 22q13 0 23 -3l-9 -99q-7 2 -14 2.5t-16 0.5q-39 0 -72 -17.5t-46 -37.5v-346h-96zM211 558l-127 110v61l127 -80l127 80v-61z" />
    <glyph glyph-name="rcommaaccent" unicode="&#x157;" horiz-adv-x="316" 
d="M61 0v490h74l11 -81q38 47 72 69t73 22q13 0 23 -3l-9 -99q-7 2 -14 2.5t-16 0.5q-39 0 -72 -17.5t-46 -37.5v-346h-96zM112 -304h-57l36 107h-35v106h108v-96z" />
    <glyph glyph-name="uni0211" unicode="&#x211;" horiz-adv-x="316" 
d="M61 0v490h74l11 -81q38 47 72 69t73 22q13 0 23 -3l-9 -99q-7 2 -14 2.5t-16 0.5q-39 0 -72 -17.5t-46 -37.5v-346h-96zM315 578h-66l-98 167h98zM175 578h-66l-103 167h98z" />
    <glyph glyph-name="uni1E5B" unicode="&#x1e5b;" horiz-adv-x="316" 
d="M61 0v490h74l11 -81q38 47 72 69t73 22q13 0 23 -3l-9 -99q-7 2 -14 2.5t-16 0.5q-39 0 -72 -17.5t-46 -37.5v-346h-96zM61 -171v90h96v-90h-96z" />
    <glyph glyph-name="uni0213" unicode="&#x213;" horiz-adv-x="316" 
d="M61 0v490h74l11 -81q38 47 72 69t73 22q13 0 23 -3l-9 -99q-7 2 -14 2.5t-16 0.5q-39 0 -72 -17.5t-46 -37.5v-346h-96zM211 703q50 0 82.5 -18t48 -47t15.5 -62h-80q0 31 -19.5 46t-46.5 15t-46.5 -15t-19.5 -46h-80q0 33 15.5 62t48 47t82.5 18z" />
    <glyph glyph-name="uni1E5F" unicode="&#x1e5f;" horiz-adv-x="316" 
d="M61 0v490h74l11 -81q38 47 72 69t73 22q13 0 23 -3l-9 -99q-7 2 -14 2.5t-16 0.5q-39 0 -72 -17.5t-46 -37.5v-346h-96zM-51 -162v71h320v-71h-320z" />
    <glyph glyph-name="s" unicode="s" horiz-adv-x="414" 
d="M200 -10q-65 0 -108 15.5t-60 27.5l11 87q16 -14 56.5 -32t96.5 -18q47 0 72.5 16t25.5 45q0 25 -16 41t-39 25t-43 15q-34 9 -69.5 23t-60 41.5t-24.5 76.5q0 37 18 71t58.5 55t107.5 21q49 0 79.5 -10.5t53.5 -21.5l-11 -82q-22 18 -50.5 30.5t-69.5 12.5
q-42 0 -68.5 -15.5t-26.5 -50.5t28 -49.5t86 -31.5q18 -5 42 -14.5t46 -25.5t37 -42t15 -64q0 -32 -15.5 -66t-56 -57t-115.5 -23z" />
    <glyph glyph-name="sacute" unicode="&#x15b;" horiz-adv-x="414" 
d="M200 -10q-65 0 -108 15.5t-60 27.5l11 87q16 -14 56.5 -32t96.5 -18q47 0 72.5 16t25.5 45q0 25 -16 41t-39 25t-43 15q-34 9 -69.5 23t-60 41.5t-24.5 76.5q0 37 18 71t58.5 55t107.5 21q49 0 79.5 -10.5t53.5 -21.5l-11 -82q-22 18 -50.5 30.5t-69.5 12.5
q-42 0 -68.5 -15.5t-26.5 -50.5t28 -49.5t86 -31.5q18 -5 42 -14.5t46 -25.5t37 -42t15 -64q0 -32 -15.5 -66t-56 -57t-115.5 -23zM129 576v61l187 110v-98z" />
    <glyph glyph-name="uni1E65" unicode="&#x1e65;" horiz-adv-x="414" 
d="M200 -10q-65 0 -108 15.5t-60 27.5l11 87q16 -14 56.5 -32t96.5 -18q47 0 72.5 16t25.5 45q0 25 -16 41t-39 25t-43 15q-34 9 -69.5 23t-60 41.5t-24.5 76.5q0 37 18 71t58.5 55t107.5 21q49 0 79.5 -10.5t53.5 -21.5l-11 -82q-22 18 -50.5 30.5t-69.5 12.5
q-42 0 -68.5 -15.5t-26.5 -50.5t28 -49.5t86 -31.5q18 -5 42 -14.5t46 -25.5t37 -42t15 -64q0 -32 -15.5 -66t-56 -57t-115.5 -23zM129 554v58l187 95v-95zM174 753v90h96v-90h-96z" />
    <glyph glyph-name="scaron" unicode="&#x161;" horiz-adv-x="414" 
d="M200 -10q-65 0 -108 15.5t-60 27.5l11 87q16 -14 56.5 -32t96.5 -18q47 0 72.5 16t25.5 45q0 25 -16 41t-39 25t-43 15q-34 9 -69.5 23t-60 41.5t-24.5 76.5q0 37 18 71t58.5 55t107.5 21q49 0 79.5 -10.5t53.5 -21.5l-11 -82q-22 18 -50.5 30.5t-69.5 12.5
q-42 0 -68.5 -15.5t-26.5 -50.5t28 -49.5t86 -31.5q18 -5 42 -14.5t46 -25.5t37 -42t15 -64q0 -32 -15.5 -66t-56 -57t-115.5 -23zM222 558l-127 110v61l127 -80l127 80v-61z" />
    <glyph glyph-name="uni1E67" unicode="&#x1e67;" horiz-adv-x="414" 
d="M200 -10q-65 0 -108 15.5t-60 27.5l11 87q16 -14 56.5 -32t96.5 -18q47 0 72.5 16t25.5 45q0 25 -16 41t-39 25t-43 15q-34 9 -69.5 23t-60 41.5t-24.5 76.5q0 37 18 71t58.5 55t107.5 21q49 0 79.5 -10.5t53.5 -21.5l-11 -82q-22 18 -50.5 30.5t-69.5 12.5
q-42 0 -68.5 -15.5t-26.5 -50.5t28 -49.5t86 -31.5q18 -5 42 -14.5t46 -25.5t37 -42t15 -64q0 -32 -15.5 -66t-56 -57t-115.5 -23zM95 720v-61l127 -90l127 90v61l-127 -66zM174 766v90h96v-90h-96z" />
    <glyph glyph-name="scedilla" unicode="&#x15f;" horiz-adv-x="414" 
d="M200 -10q-65 0 -108 15.5t-60 27.5l11 87q16 -14 56.5 -32t96.5 -18q47 0 72.5 16t25.5 45q0 25 -16 41t-39 25t-43 15q-34 9 -69.5 23t-60 41.5t-24.5 76.5q0 37 18 71t58.5 55t107.5 21q49 0 79.5 -10.5t53.5 -21.5l-11 -82q-22 18 -50.5 30.5t-69.5 12.5
q-42 0 -68.5 -15.5t-26.5 -50.5t28 -49.5t86 -31.5q18 -5 42 -14.5t46 -25.5t37 -42t15 -64q0 -32 -15.5 -66t-56 -57t-115.5 -23zM211 -79l-33 15q12 4 24 7t25 3q41 0 64 -22t23 -59q0 -44 -31 -67.5t-75 -23.5q-26 0 -45 6t-33 13l15 49q15 -8 30.5 -12.5t32.5 -4.5
q22 0 35 9.5t13 28.5q0 18 -12 29t-38 11q-11 0 -22 -1.5t-24 -6.5l26 105h50z" />
    <glyph glyph-name="scircumflex" unicode="&#x15d;" horiz-adv-x="414" 
d="M200 -10q-65 0 -108 15.5t-60 27.5l11 87q16 -14 56.5 -32t96.5 -18q47 0 72.5 16t25.5 45q0 25 -16 41t-39 25t-43 15q-34 9 -69.5 23t-60 41.5t-24.5 76.5q0 37 18 71t58.5 55t107.5 21q49 0 79.5 -10.5t53.5 -21.5l-11 -82q-22 18 -50.5 30.5t-69.5 12.5
q-42 0 -68.5 -15.5t-26.5 -50.5t28 -49.5t86 -31.5q18 -5 42 -14.5t46 -25.5t37 -42t15 -64q0 -32 -15.5 -66t-56 -57t-115.5 -23zM95 564v61l127 110l127 -110v-61l-127 80z" />
    <glyph glyph-name="scommaaccent" unicode="&#x219;" horiz-adv-x="414" 
d="M200 -10q-65 0 -108 15.5t-60 27.5l11 87q16 -14 56.5 -32t96.5 -18q47 0 72.5 16t25.5 45q0 25 -16 41t-39 25t-43 15q-34 9 -69.5 23t-60 41.5t-24.5 76.5q0 37 18 71t58.5 55t107.5 21q49 0 79.5 -10.5t53.5 -21.5l-11 -82q-22 18 -50.5 30.5t-69.5 12.5
q-42 0 -68.5 -15.5t-26.5 -50.5t28 -49.5t86 -31.5q18 -5 42 -14.5t46 -25.5t37 -42t15 -64q0 -32 -15.5 -66t-56 -57t-115.5 -23zM211 -304h-57l36 107h-35v106h108v-96z" />
    <glyph glyph-name="uni1E61" unicode="&#x1e61;" horiz-adv-x="414" 
d="M200 -10q-65 0 -108 15.5t-60 27.5l11 87q16 -14 56.5 -32t96.5 -18q47 0 72.5 16t25.5 45q0 25 -16 41t-39 25t-43 15q-34 9 -69.5 23t-60 41.5t-24.5 76.5q0 37 18 71t58.5 55t107.5 21q49 0 79.5 -10.5t53.5 -21.5l-11 -82q-22 18 -50.5 30.5t-69.5 12.5
q-42 0 -68.5 -15.5t-26.5 -50.5t28 -49.5t86 -31.5q18 -5 42 -14.5t46 -25.5t37 -42t15 -64q0 -32 -15.5 -66t-56 -57t-115.5 -23zM174 591v90h96v-90h-96z" />
    <glyph glyph-name="uni1E63" unicode="&#x1e63;" horiz-adv-x="414" 
d="M200 -10q-65 0 -108 15.5t-60 27.5l11 87q16 -14 56.5 -32t96.5 -18q47 0 72.5 16t25.5 45q0 25 -16 41t-39 25t-43 15q-34 9 -69.5 23t-60 41.5t-24.5 76.5q0 37 18 71t58.5 55t107.5 21q49 0 79.5 -10.5t53.5 -21.5l-11 -82q-22 18 -50.5 30.5t-69.5 12.5
q-42 0 -68.5 -15.5t-26.5 -50.5t28 -49.5t86 -31.5q18 -5 42 -14.5t46 -25.5t37 -42t15 -64q0 -32 -15.5 -66t-56 -57t-115.5 -23zM160 -171v90h96v-90h-96z" />
    <glyph glyph-name="uni1E69" unicode="&#x1e69;" horiz-adv-x="414" 
d="M200 -10q-65 0 -108 15.5t-60 27.5l11 87q16 -14 56.5 -32t96.5 -18q47 0 72.5 16t25.5 45q0 25 -16 41t-39 25t-43 15q-34 9 -69.5 23t-60 41.5t-24.5 76.5q0 37 18 71t58.5 55t107.5 21q49 0 79.5 -10.5t53.5 -21.5l-11 -82q-22 18 -50.5 30.5t-69.5 12.5
q-42 0 -68.5 -15.5t-26.5 -50.5t28 -49.5t86 -31.5q18 -5 42 -14.5t46 -25.5t37 -42t15 -64q0 -32 -15.5 -66t-56 -57t-115.5 -23zM174 591v90h96v-90h-96zM160 -171v90h96v-90h-96z" />
    <glyph glyph-name="germandbls" unicode="&#xdf;" horiz-adv-x="577" 
d="M346 -14q-28 0 -53 3t-51 11v70q26 -7 51.5 -10.5t53.5 -3.5q53 0 83.5 23.5t30.5 64.5q0 36 -18.5 59t-45.5 40l-53.5 34t-45 40t-18.5 58q0 36 18 63.5t57 67.5q24 25 36.5 43.5t12.5 47.5q0 39 -26 63t-76 24q-62 0 -92.5 -35t-30.5 -97v-552h-86v420h-75l8 70h67v60
q0 108 58.5 161t152.5 53q85 0 136 -40.5t51 -110.5q0 -31 -7.5 -54t-20.5 -40.5t-27 -33.5l-48.5 -55.5t-17.5 -43.5q0 -24 18.5 -41.5t45 -34t53.5 -36.5t45.5 -50t18.5 -75q0 -55 -29 -91.5t-76 -54t-100 -17.5z" />
    <glyph glyph-name="t" unicode="t" horiz-adv-x="337" 
d="M230 -10q-46 0 -74.5 17t-41 44t-12.5 56v313h-84l8 70h76v121l90 9v-130h129v-70h-129v-258q0 -47 5.5 -68t27.5 -26.5t70 -5.5h23l-7 -72h-81z" />
    <glyph glyph-name="tbar" unicode="&#x167;" horiz-adv-x="337" 
d="M230 -10q-46 0 -74.5 17t-41 44t-12.5 56v313h-84l8 70h76v121l90 9v-130h129v-70h-129v-258q0 -47 5.5 -68t27.5 -26.5t70 -5.5h23l-7 -72h-81zM18 242v63h298v-63h-298z" />
    <glyph glyph-name="tcaron" unicode="&#x165;" horiz-adv-x="337" 
d="M230 -10q-46 0 -74.5 17t-41 44t-12.5 56v313h-84l8 70h76v121l90 9v-130h129v-70h-129v-258q0 -47 5.5 -68t27.5 -26.5t70 -5.5h23l-7 -72h-81zM242 541v167h94l-28 -167h-66z" />
    <glyph glyph-name="tcommaaccent" unicode="&#x163;" horiz-adv-x="337" 
d="M230 -10q-46 0 -74.5 17t-41 44t-12.5 56v313h-84l8 70h76v121l90 9v-130h129v-70h-129v-258q0 -47 5.5 -68t27.5 -26.5t70 -5.5h23l-7 -72h-81zM231 -79l-33 15q12 4 24 7t25 3q41 0 64 -22t23 -59q0 -44 -31 -67.5t-75 -23.5q-26 0 -45 6t-33 13l15 49
q15 -8 30.5 -12.5t32.5 -4.5q22 0 35 9.5t13 28.5q0 18 -12 29t-38 11q-11 0 -22 -1.5t-24 -6.5l26 105h50z" />
    <glyph glyph-name="uni021B" unicode="&#x21b;" horiz-adv-x="337" 
d="M230 -10q-46 0 -74.5 17t-41 44t-12.5 56v313h-84l8 70h76v121l90 9v-130h129v-70h-129v-258q0 -47 5.5 -68t27.5 -26.5t70 -5.5h23l-7 -72h-81zM231 -304h-57l36 107h-35v106h108v-96z" />
    <glyph glyph-name="uni1E97" unicode="&#x1e97;" horiz-adv-x="337" 
d="M230 -10q-46 0 -74.5 17t-41 44t-12.5 56v313h-84l8 70h76v121l90 9v-130h129v-70h-129v-258q0 -47 5.5 -68t27.5 -26.5t70 -5.5h23l-7 -72h-81zM200 713v80h86v-80h-86zM8 713v80h86v-80h-86z" />
    <glyph glyph-name="uni1E6D" unicode="&#x1e6d;" horiz-adv-x="337" 
d="M230 -10q-46 0 -74.5 17t-41 44t-12.5 56v313h-84l8 70h76v121l90 9v-130h129v-70h-129v-258q0 -47 5.5 -68t27.5 -26.5t70 -5.5h23l-7 -72h-81zM180 -171v90h96v-90h-96z" />
    <glyph glyph-name="uni1E6F" unicode="&#x1e6f;" horiz-adv-x="337" 
d="M230 -10q-46 0 -74.5 17t-41 44t-12.5 56v313h-84l8 70h76v121l90 9v-130h129v-70h-129v-258q0 -47 5.5 -68t27.5 -26.5t70 -5.5h23l-7 -72h-81zM68 -162v71h320v-71h-320z" />
    <glyph glyph-name="u" unicode="u" horiz-adv-x="524" 
d="M237 -10q-57 0 -97.5 23t-62 71t-21.5 121v285h90v-260q0 -78 26.5 -119t87.5 -41q41 0 76.5 20t49.5 64l-13 -49v385h90v-490h-80l-18 96l24 -16q-25 -46 -60 -68t-92 -22z" />
    <glyph glyph-name="uacute" unicode="&#xfa;" horiz-adv-x="524" 
d="M237 -10q-57 0 -97.5 23t-62 71t-21.5 121v285h90v-260q0 -78 26.5 -119t87.5 -41q41 0 76.5 20t49.5 64l-13 -49v385h90v-490h-80l-18 96l24 -16q-25 -46 -60 -68t-92 -22zM169 576v61l187 110v-98z" />
    <glyph glyph-name="ubreve" unicode="&#x16d;" horiz-adv-x="524" 
d="M237 -10q-57 0 -97.5 23t-62 71t-21.5 121v285h90v-260q0 -78 26.5 -119t87.5 -41q41 0 76.5 20t49.5 64l-13 -49v385h90v-490h-80l-18 96l24 -16q-25 -46 -60 -68t-92 -22zM262 576q-50 0 -82.5 18t-48 47t-15.5 62h80q0 -31 19.5 -46t46.5 -15t46.5 15t19.5 46h80
q0 -33 -15.5 -62t-48 -47t-82.5 -18z" />
    <glyph glyph-name="ucircumflex" unicode="&#xfb;" horiz-adv-x="524" 
d="M237 -10q-57 0 -97.5 23t-62 71t-21.5 121v285h90v-260q0 -78 26.5 -119t87.5 -41q41 0 76.5 20t49.5 64l-13 -49v385h90v-490h-80l-18 96l24 -16q-25 -46 -60 -68t-92 -22zM135 564v61l127 110l127 -110v-61l-127 80z" />
    <glyph glyph-name="uni0215" unicode="&#x215;" horiz-adv-x="524" 
d="M237 -10q-57 0 -97.5 23t-62 71t-21.5 121v285h90v-260q0 -78 26.5 -119t87.5 -41q41 0 76.5 20t49.5 64l-13 -49v385h90v-490h-80l-18 96l24 -16q-25 -46 -60 -68t-92 -22zM366 578h-66l-98 167h98zM226 578h-66l-103 167h98z" />
    <glyph glyph-name="udieresis" unicode="&#xfc;" horiz-adv-x="524" 
d="M237 -10q-57 0 -97.5 23t-62 71t-21.5 121v285h90v-260q0 -78 26.5 -119t87.5 -41q41 0 76.5 20t49.5 64l-13 -49v385h90v-490h-80l-18 96l24 -16q-25 -46 -60 -68t-92 -22zM315 591v80h86v-80h-86zM123 591v80h86v-80h-86z" />
    <glyph glyph-name="uni1EE5" unicode="&#x1ee5;" horiz-adv-x="524" 
d="M237 -10q-57 0 -97.5 23t-62 71t-21.5 121v285h90v-260q0 -78 26.5 -119t87.5 -41q41 0 76.5 20t49.5 64l-13 -49v385h90v-490h-80l-18 96l24 -16q-25 -46 -60 -68t-92 -22zM214 -171v90h96v-90h-96z" />
    <glyph glyph-name="ugrave" unicode="&#xf9;" horiz-adv-x="524" 
d="M237 -10q-57 0 -97.5 23t-62 71t-21.5 121v285h90v-260q0 -78 26.5 -119t87.5 -41q41 0 76.5 20t49.5 64l-13 -49v385h90v-490h-80l-18 96l24 -16q-25 -46 -60 -68t-92 -22zM355 576l-187 73v98l187 -110v-61z" />
    <glyph glyph-name="uni1EE7" unicode="&#x1ee7;" horiz-adv-x="524" 
d="M237 -10q-57 0 -97.5 23t-62 71t-21.5 121v285h90v-260q0 -78 26.5 -119t87.5 -41q41 0 76.5 20t49.5 64l-13 -49v385h90v-490h-80l-18 96l24 -16q-25 -46 -60 -68t-92 -22zM277 525l-34 33q23 23 33.5 36t10.5 31t-11 27t-30 9q-16 0 -31.5 -5.5t-31.5 -13.5l-17 51
q16 9 36.5 14t43.5 5q41 0 70 -22t29 -62q0 -32 -16.5 -54.5t-51.5 -48.5z" />
    <glyph glyph-name="uhorn" unicode="&#x1b0;" horiz-adv-x="524" 
d="M237 -10q-57 0 -97.5 23t-62 71t-21.5 121v285h90v-260q0 -78 26.5 -119t87.5 -41q41 0 76.5 20t49.5 64l-13 -49v385h90v-490h-80l-18 96l24 -16q-25 -46 -60 -68t-92 -22zM414 421v69q38 0 59 17t21 57h86q0 -38 -22 -70.5t-59.5 -52.5t-84.5 -20z" />
    <glyph glyph-name="uni1EE9" unicode="&#x1ee9;" horiz-adv-x="524" 
d="M237 -10q-57 0 -97.5 23t-62 71t-21.5 121v285h90v-260q0 -78 26.5 -119t87.5 -41q41 0 76.5 20t49.5 64l-13 -49v385h90v-490h-80l-18 96l24 -16q-25 -46 -60 -68t-92 -22zM414 421v69q38 0 59 17t21 57h86q0 -38 -22 -70.5t-59.5 -52.5t-84.5 -20zM169 576v61l187 110
v-98z" />
    <glyph glyph-name="uni1EF1" unicode="&#x1ef1;" horiz-adv-x="524" 
d="M237 -10q-57 0 -97.5 23t-62 71t-21.5 121v285h90v-260q0 -78 26.5 -119t87.5 -41q41 0 76.5 20t49.5 64l-13 -49v385h90v-490h-80l-18 96l24 -16q-25 -46 -60 -68t-92 -22zM414 421v69q38 0 59 17t21 57h86q0 -38 -22 -70.5t-59.5 -52.5t-84.5 -20zM214 -171v90h96v-90
h-96z" />
    <glyph glyph-name="uni1EEB" unicode="&#x1eeb;" horiz-adv-x="524" 
d="M237 -10q-57 0 -97.5 23t-62 71t-21.5 121v285h90v-260q0 -78 26.5 -119t87.5 -41q41 0 76.5 20t49.5 64l-13 -49v385h90v-490h-80l-18 96l24 -16q-25 -46 -60 -68t-92 -22zM414 421v69q38 0 59 17t21 57h86q0 -38 -22 -70.5t-59.5 -52.5t-84.5 -20zM355 576l-187 73v98
l187 -110v-61z" />
    <glyph glyph-name="uni1EED" unicode="&#x1eed;" horiz-adv-x="524" 
d="M237 -10q-57 0 -97.5 23t-62 71t-21.5 121v285h90v-260q0 -78 26.5 -119t87.5 -41q41 0 76.5 20t49.5 64l-13 -49v385h90v-490h-80l-18 96l24 -16q-25 -46 -60 -68t-92 -22zM414 421v69q38 0 59 17t21 57h86q0 -38 -22 -70.5t-59.5 -52.5t-84.5 -20zM277 525l-34 33
q23 23 33.5 36t10.5 31t-11 27t-30 9q-16 0 -31.5 -5.5t-31.5 -13.5l-17 51q16 9 36.5 14t43.5 5q41 0 70 -22t29 -62q0 -32 -16.5 -54.5t-51.5 -48.5z" />
    <glyph glyph-name="uni1EEF" unicode="&#x1eef;" horiz-adv-x="524" 
d="M237 -10q-57 0 -97.5 23t-62 71t-21.5 121v285h90v-260q0 -78 26.5 -119t87.5 -41q41 0 76.5 20t49.5 64l-13 -49v385h90v-490h-80l-18 96l24 -16q-25 -46 -60 -68t-92 -22zM414 421v69q38 0 59 17t21 57h86q0 -38 -22 -70.5t-59.5 -52.5t-84.5 -20zM342 580
q-25 0 -48.5 12l-45.5 23.5t-43 11.5q-34 0 -34 -39h-75q2 54 24 82.5t62 28.5q25 0 48.5 -11.5t45.5 -23.5t43 -12q34 0 34 39h75q-2 -54 -24 -82.5t-62 -28.5z" />
    <glyph glyph-name="uhungarumlaut" unicode="&#x171;" horiz-adv-x="524" 
d="M237 -10q-57 0 -97.5 23t-62 71t-21.5 121v285h90v-260q0 -78 26.5 -119t87.5 -41q41 0 76.5 20t49.5 64l-13 -49v385h90v-490h-80l-18 96l24 -16q-25 -46 -60 -68t-92 -22zM298 578l83 167h98l-115 -167h-66zM158 578l78 167h98l-110 -167h-66z" />
    <glyph glyph-name="uni0217" unicode="&#x217;" horiz-adv-x="524" 
d="M237 -10q-57 0 -97.5 23t-62 71t-21.5 121v285h90v-260q0 -78 26.5 -119t87.5 -41q41 0 76.5 20t49.5 64l-13 -49v385h90v-490h-80l-18 96l24 -16q-25 -46 -60 -68t-92 -22zM262 703q50 0 82.5 -18t48 -47t15.5 -62h-80q0 31 -19.5 46t-46.5 15t-46.5 -15t-19.5 -46h-80
q0 33 15.5 62t48 47t82.5 18z" />
    <glyph glyph-name="umacron" unicode="&#x16b;" horiz-adv-x="524" 
d="M237 -10q-57 0 -97.5 23t-62 71t-21.5 121v285h90v-260q0 -78 26.5 -119t87.5 -41q41 0 76.5 20t49.5 64l-13 -49v385h90v-490h-80l-18 96l24 -16q-25 -46 -60 -68t-92 -22zM102 591v71h320v-71h-320z" />
    <glyph glyph-name="uni1E7B" unicode="&#x1e7b;" horiz-adv-x="524" 
d="M237 -10q-57 0 -97.5 23t-62 71t-21.5 121v285h90v-260q0 -78 26.5 -119t87.5 -41q41 0 76.5 20t49.5 64l-13 -49v385h90v-490h-80l-18 96l24 -16q-25 -46 -60 -68t-92 -22zM102 583v68h320v-68h-320zM123 756v75h86v-75h-86zM315 756v75h86v-75h-86z" />
    <glyph glyph-name="uogonek" unicode="&#x173;" horiz-adv-x="524" 
d="M237 -10q-57 0 -97.5 23t-62 71t-21.5 121v285h90v-260q0 -78 26.5 -119t87.5 -41q41 0 76.5 20t49.5 64l-13 -49v385h90v-490h-80l-18 96l24 -16q-25 -46 -60 -68t-92 -22zM410 0h53q-35 -27 -56.5 -52.5t-21.5 -53.5q0 -26 13 -38.5t35 -12.5q17 0 32.5 4.5t30.5 12.5
l15 -49q-14 -7 -35 -13t-48 -6q-42 0 -71.5 22t-29.5 64q0 40 26.5 72.5t56.5 49.5z" />
    <glyph glyph-name="uring" unicode="&#x16f;" horiz-adv-x="524" 
d="M237 -10q-57 0 -97.5 23t-62 71t-21.5 121v285h90v-260q0 -78 26.5 -119t87.5 -41q41 0 76.5 20t49.5 64l-13 -49v385h90v-490h-80l-18 96l24 -16q-25 -46 -60 -68t-92 -22zM262 568q-52 0 -78 30.5t-26 69.5q0 38 26.5 69t77.5 31q52 0 78 -31t26 -69q0 -39 -26 -69.5
t-78 -30.5zM262 612q22 0 39 15t17 41q0 25 -17 40.5t-39 15.5t-39 -15.5t-17 -40.5q0 -26 17 -41t39 -15z" />
    <glyph glyph-name="utilde" unicode="&#x169;" horiz-adv-x="524" 
d="M237 -10q-57 0 -97.5 23t-62 71t-21.5 121v285h90v-260q0 -78 26.5 -119t87.5 -41q41 0 76.5 20t49.5 64l-13 -49v385h90v-490h-80l-18 96l24 -16q-25 -46 -60 -68t-92 -22zM342 580q-25 0 -48.5 12l-45.5 23.5t-43 11.5q-34 0 -34 -39h-75q2 54 24 82.5t62 28.5
q25 0 48.5 -11.5t45.5 -23.5t43 -12q34 0 34 39h75q-2 -54 -24 -82.5t-62 -28.5z" />
    <glyph glyph-name="uni1E79" unicode="&#x1e79;" horiz-adv-x="524" 
d="M237 -10q-57 0 -97.5 23t-62 71t-21.5 121v285h90v-260q0 -78 26.5 -119t87.5 -41q41 0 76.5 20t49.5 64l-13 -49v385h90v-490h-80l-18 96l24 -16q-25 -46 -60 -68t-92 -22zM345 578q-23 0 -48 10l-49 20.5t-43 10.5q-34 0 -34 -36h-65q0 49 19 74.5t54 25.5
q23 0 48 -10.5l49 -20.5t43 -10q34 0 34 36h65q0 -49 -19 -74.5t-54 -25.5zM169 730v58l187 95v-95z" />
    <glyph glyph-name="v" unicode="v" horiz-adv-x="492" 
d="M196 0l-187 490h100l137 -391l136 391h101l-186 -490h-101z" />
    <glyph glyph-name="w" unicode="w" horiz-adv-x="725" 
d="M159 0l-147 490h106l94 -391l104 376h93l105 -376l94 391h106l-148 -490h-101l-102 362l-103 -362h-101z" />
    <glyph glyph-name="wacute" unicode="&#x1e83;" horiz-adv-x="725" 
d="M159 0l-147 490h106l94 -391l104 376h93l105 -376l94 391h106l-148 -490h-101l-102 362l-103 -362h-101zM270 576v61l187 110v-98z" />
    <glyph glyph-name="wcircumflex" unicode="&#x175;" horiz-adv-x="725" 
d="M159 0l-147 490h106l94 -391l104 376h93l105 -376l94 391h106l-148 -490h-101l-102 362l-103 -362h-101zM236 564v61l127 110l127 -110v-61l-127 80z" />
    <glyph glyph-name="wdieresis" unicode="&#x1e85;" horiz-adv-x="725" 
d="M159 0l-147 490h106l94 -391l104 376h93l105 -376l94 391h106l-148 -490h-101l-102 362l-103 -362h-101zM416 591v80h86v-80h-86zM224 591v80h86v-80h-86z" />
    <glyph glyph-name="wgrave" unicode="&#x1e81;" horiz-adv-x="725" 
d="M159 0l-147 490h106l94 -391l104 376h93l105 -376l94 391h106l-148 -490h-101l-102 362l-103 -362h-101zM456 576l-187 73v98l187 -110v-61z" />
    <glyph glyph-name="x" unicode="x" horiz-adv-x="474" 
d="M11 0l171 244l-167 246h101l123 -194l113 194h105l-161 -238l167 -252h-101l-124 193l-126 -193h-101z" />
    <glyph glyph-name="y" unicode="y" horiz-adv-x="505" 
d="M98 -242l113 264l-204 468h100l153 -364l138 364h100l-300 -732h-100z" />
    <glyph glyph-name="yacute" unicode="&#xfd;" horiz-adv-x="505" 
d="M98 -242l113 264l-204 468h100l153 -364l138 364h100l-300 -732h-100zM160 576v61l187 110v-98z" />
    <glyph glyph-name="ycircumflex" unicode="&#x177;" horiz-adv-x="505" 
d="M98 -242l113 264l-204 468h100l153 -364l138 364h100l-300 -732h-100zM126 564v61l127 110l127 -110v-61l-127 80z" />
    <glyph glyph-name="ydieresis" unicode="&#xff;" horiz-adv-x="505" 
d="M98 -242l113 264l-204 468h100l153 -364l138 364h100l-300 -732h-100zM306 591v80h86v-80h-86zM114 591v80h86v-80h-86z" />
    <glyph glyph-name="uni1E8F" unicode="&#x1e8f;" horiz-adv-x="505" 
d="M98 -242l113 264l-204 468h100l153 -364l138 364h100l-300 -732h-100zM205 591v90h96v-90h-96z" />
    <glyph glyph-name="uni1EF5" unicode="&#x1ef5;" horiz-adv-x="505" 
d="M98 -242l113 264l-204 468h100l153 -364l138 364h100l-300 -732h-100zM299 -171v90h96v-90h-96z" />
    <glyph glyph-name="ygrave" unicode="&#x1ef3;" horiz-adv-x="505" 
d="M98 -242l113 264l-204 468h100l153 -364l138 364h100l-300 -732h-100zM346 576l-187 73v98l187 -110v-61z" />
    <glyph glyph-name="uni1EF7" unicode="&#x1ef7;" horiz-adv-x="505" 
d="M98 -242l113 264l-204 468h100l153 -364l138 364h100l-300 -732h-100zM268 525l-34 33q23 23 33.5 36t10.5 31t-11 27t-30 9q-16 0 -31.5 -5.5t-31.5 -13.5l-17 51q16 9 36.5 14t43.5 5q41 0 70 -22t29 -62q0 -32 -16.5 -54.5t-51.5 -48.5z" />
    <glyph glyph-name="uni0233" unicode="&#x233;" horiz-adv-x="505" 
d="M98 -242l113 264l-204 468h100l153 -364l138 364h100l-300 -732h-100zM93 591v71h320v-71h-320z" />
    <glyph glyph-name="uni1EF9" unicode="&#x1ef9;" horiz-adv-x="505" 
d="M98 -242l113 264l-204 468h100l153 -364l138 364h100l-300 -732h-100zM333 580q-25 0 -48.5 12l-45.5 23.5t-43 11.5q-34 0 -34 -39h-75q2 54 24 82.5t62 28.5q25 0 48.5 -11.5t45.5 -23.5t43 -12q34 0 34 39h75q-2 -54 -24 -82.5t-62 -28.5z" />
    <glyph glyph-name="z" unicode="z" horiz-adv-x="471" 
d="M22 0l303 456l11 -45h-298v79h408l-303 -456l-11 45h309v-79h-419z" />
    <glyph glyph-name="zacute" unicode="&#x17a;" horiz-adv-x="471" 
d="M22 0l303 456l11 -45h-298v79h408l-303 -456l-11 45h309v-79h-419zM148 586v61l187 110v-98z" />
    <glyph glyph-name="zcaron" unicode="&#x17e;" horiz-adv-x="471" 
d="M22 0l303 456l11 -45h-298v79h408l-303 -456l-11 45h309v-79h-419zM241 568l-127 110v61l127 -80l127 80v-61z" />
    <glyph glyph-name="zdotaccent" unicode="&#x17c;" horiz-adv-x="471" 
d="M22 0l303 456l11 -45h-298v79h408l-303 -456l-11 45h309v-79h-419zM193 601v90h96v-90h-96z" />
    <glyph glyph-name="uni1E93" unicode="&#x1e93;" horiz-adv-x="471" 
d="M22 0l303 456l11 -45h-298v79h408l-303 -456l-11 45h309v-79h-419zM188 -171v90h96v-90h-96z" />
    <glyph glyph-name="iacute_j.loclNLD" horiz-adv-x="424" 
d="M44 576v61l127 100v-98zM255 576v61l127 100v-98zM61 0v490h90v-490h-90zM210 -242l-10 69q30 3 45.5 11.5t21.5 29t6 59.5v563h90v-597q0 -47 -20 -74t-48.5 -39.5t-54.5 -16.5z" />
    <glyph glyph-name="A.sc" horiz-adv-x="534" 
d="M8 0l213 560h93l212 -560h-97l-55 141h-214l-54 -141h-98zM191 229h152l-76 189z" />
    <glyph glyph-name="AE.sc" horiz-adv-x="742" 
d="M-8 0l290 560h415v-89h-259v-135h200v-88h-200v-160h267v-88h-370v138h-175l-74 -138h-94zM203 228h132v241z" />
    <glyph glyph-name="B.sc" horiz-adv-x="534" 
d="M74 0v560h146q69 0 119.5 -10t78.5 -40.5t28 -91.5q0 -37 -9 -65.5t-40 -53.5q55 -19 78 -51t23 -83q0 -50 -18.5 -82.5t-49 -50.5t-67 -25t-73.5 -7h-216zM167 81h95q64 0 101.5 16.5t37.5 68.5q0 53 -33.5 71.5t-80.5 18.5h-120v-175zM167 332h103q20 0 39.5 5t32.5 21
t13 48q0 47 -29.5 60.5t-72.5 13.5h-86v-148z" />
    <glyph glyph-name="C.sc" horiz-adv-x="537" 
d="M335 -11q-85 0 -152 36t-105.5 101.5t-38.5 153.5t38.5 153.5t105.5 101.5t152 36q46 0 90.5 -9t75.5 -24l-10 -87q-36 13 -73 22.5t-83 9.5q-64 0 -107 -26.5t-65 -72.5t-22 -104t22 -104t65.5 -72.5t107.5 -26.5q45 0 82 9.5t73 22.5l10 -88q-32 -14 -76 -23t-90 -9z
" />
    <glyph glyph-name="D.sc" horiz-adv-x="629" 
d="M74 0v560h221q86 0 152.5 -33.5t104.5 -96t38 -150.5t-38 -150.5t-104.5 -96t-152.5 -33.5h-221zM167 88h128q95 0 144 52t49 140t-49 140t-144 52h-128v-384z" />
    <glyph glyph-name="E.sc" horiz-adv-x="490" 
d="M74 0v560h371v-88h-276v-136h217v-88h-217v-160h284v-88h-379z" />
    <glyph glyph-name="F.sc" horiz-adv-x="459" 
d="M74 0v560h364v-88h-271v-136h210v-88h-210v-248h-93z" />
    <glyph glyph-name="G.sc" horiz-adv-x="583" 
d="M330 -11q-83 0 -149 36t-104 101.5t-38 154.5q0 88 38 153t105.5 101t154.5 36q29 0 61.5 -4t63 -11.5t52.5 -16.5l-9 -87q-36 13 -80.5 22t-85.5 9q-68 0 -112 -26.5t-65 -72t-21 -102.5q0 -90 51 -147.5t157 -57.5q19 0 44 2.5t47 8.5v114h-81v79h175v-250
q-23 -11 -58 -21t-73.5 -15.5t-72.5 -5.5z" />
    <glyph glyph-name="H.sc" horiz-adv-x="646" 
d="M74 0v560h93v-223h312v223h93v-560h-93v248h-312v-248h-93z" />
    <glyph glyph-name="I.sc" horiz-adv-x="241" 
d="M74 0v560h93v-560h-93z" />
    <glyph glyph-name="J.sc" horiz-adv-x="241" 
d="M7 -138l-9 66h12q38 0 51 18t13 55v559h93v-582q0 -58 -35 -87t-104 -29h-21z" />
    <glyph glyph-name="K.sc" horiz-adv-x="525" 
d="M410 0l-215 296l215 264h102l-215 -264l215 -296h-102zM74 0v560h93v-560h-93z" />
    <glyph glyph-name="L.sc" horiz-adv-x="440" 
d="M74 0v560h93v-472h261v-88h-354z" />
    <glyph glyph-name="M.sc" horiz-adv-x="712" 
d="M46 0l81 560h78l152 -263l150 263h78l81 -560h-98l-54 392l-157 -269l-159 269l-54 -392h-98z" />
    <glyph glyph-name="N.sc" horiz-adv-x="614" 
d="M74 0v560h96l276 -382v382h94v-560h-78l-295 405v-405h-93z" />
    <glyph glyph-name="O.sc" horiz-adv-x="665" 
d="M332 -11q-85 0 -151 36t-104 101.5t-38 153.5t38 153.5t104 101.5t151 36t151.5 -36t104.5 -101.5t38 -153.5t-38 -153.5t-104.5 -101.5t-151.5 -36zM332 77q64 0 106 26.5t63.5 72.5t21.5 104t-21.5 104t-63.5 72.5t-106 26.5t-106 -26.5t-63.5 -72.5t-21.5 -104
t21.5 -104t63.5 -72.5t106 -26.5z" />
    <glyph glyph-name="OE.sc" horiz-adv-x="921" 
d="M329 -11q-84 0 -149.5 36t-103 101.5t-37.5 153.5t37.5 153.5t103 101.5t149.5 36q52 0 99.5 -15.5t96.5 -47.5v52h351v-88h-258v-136h199v-88h-199v-160h266v-88h-359v52q-49 -32 -96.5 -47.5t-99.5 -15.5zM329 77q63 0 105 26.5t63 72.5t21 104t-21 104t-63 72.5
t-105 26.5t-105.5 -26.5t-63.5 -72.5t-21 -104t21 -104t63.5 -72.5t105.5 -26.5z" />
    <glyph glyph-name="P.sc" horiz-adv-x="510" 
d="M74 0v560h180q68 0 119.5 -12.5t80.5 -50t29 -113.5q0 -58 -18.5 -96.5t-48 -60t-63.5 -30.5t-64 -9h-119v-188h-96zM170 274h104q61 0 87 25.5t26 82.5q0 52 -26.5 75.5t-100.5 23.5h-90v-207z" />
    <glyph glyph-name="Q.sc" horiz-adv-x="665" 
d="M332 -11q-85 0 -151 36t-104 101.5t-38 153.5t38 153.5t104 101.5t151 36t151.5 -36t104.5 -101.5t38 -153.5q0 -52 -15 -97t-44 -84l52 -41l-52 -62l-57 44q-39 -26 -83.5 -38.5t-94.5 -12.5zM332 77q27 0 56 5t53 18l-80 60l51 64l83 -65q21 29 27 59t6 62
q0 58 -22 104t-65.5 72.5t-107.5 26.5q-63 0 -106 -26.5t-64.5 -72.5t-21.5 -104t21.5 -104t63.5 -72.5t106 -26.5z" />
    <glyph glyph-name="R.sc" horiz-adv-x="537" 
d="M74 0v560h204q60 0 106 -15t72.5 -50t26.5 -97q0 -40 -13 -70.5t-36.5 -53t-55.5 -38.5l137 -236h-99l-128 212h-118v-212h-96zM170 300h106q26 0 46.5 6t34.5 17.5t21.5 29t7.5 40.5q0 29 -12 49t-38 30.5t-70 10.5h-96v-183z" />
    <glyph glyph-name="S.sc" horiz-adv-x="511" 
d="M246 -11q-67 0 -118.5 12t-77.5 27l12 107q27 -22 74.5 -40t111.5 -18q52 0 89 15.5t37 54.5q0 29 -20 48t-53.5 31.5t-73.5 24.5q-46 14 -88.5 31t-70 45.5t-27.5 78.5q0 36 20 74t67 64.5t128 26.5q40 0 76.5 -6.5t66 -16t45.5 -18.5l-10 -96q-45 22 -86.5 36t-85.5 14
q-28 0 -56 -6t-47.5 -21t-19.5 -41q0 -24 17 -39t45.5 -26t62.5 -20q37 -11 74.5 -23.5t69 -32t50.5 -50t19 -76.5q0 -23 -8 -50.5t-31.5 -52.5t-69.5 -41t-122 -16z" />
    <glyph glyph-name="T.sc" horiz-adv-x="470" 
d="M188 0v472h-171v88h436v-88h-171v-472h-94z" />
    <glyph glyph-name="U.sc" horiz-adv-x="627" 
d="M314 -11q-84 0 -139 31t-81.5 87t-26.5 132v321h93v-286q0 -53 11.5 -98t44.5 -72t98 -27q64 0 97 27t44.5 72t11.5 98v286h93v-321q0 -76 -26.5 -132t-81 -87t-138.5 -31z" />
    <glyph glyph-name="V.sc" horiz-adv-x="561" 
d="M228 0l-222 560h98l177 -442l175 442h98l-220 -560h-106z" />
    <glyph glyph-name="W.sc" horiz-adv-x="835" 
d="M184 0l-167 560h98l126 -425l141 421h74l145 -414l123 418h98l-174 -560h-93l-136 404l-140 -404h-95z" />
    <glyph glyph-name="X.sc" horiz-adv-x="540" 
d="M14 0l204 279l-200 281h108l146 -205l148 205h103l-205 -270l211 -290h-104l-159 214l-149 -214h-103z" />
    <glyph glyph-name="Y.sc" horiz-adv-x="504" 
d="M204 0v252l-203 308h99l152 -225l152 225h99l-203 -308v-252h-96z" />
    <glyph glyph-name="Z.sc" horiz-adv-x="483" 
d="M15 0l299 472h-261v88h415l-299 -472h261v-88h-415z" />
    <glyph glyph-name="ordfeminine" unicode="&#xaa;" horiz-adv-x="349" 
d="M120 434q-36 0 -61.5 22t-25.5 63q0 30 18 49.5t45.5 30.5t55.5 15.5t49 5.5q-1 21 -13 31.5t-40 10.5q-20 0 -39.5 -5t-43.5 -15l-6 60q27 12 54 17.5t55 5.5q50 0 79.5 -25t29.5 -83v-80q0 -31 5 -36.5t21 -5.5h10l-7 -61h-27q-25 0 -42 9t-25 22q-15 -15 -40 -23
t-52 -8zM148 490q13 0 27 4t27 13v63q-36 -3 -63 -13.5t-27 -35.5q0 -16 10 -23.5t26 -7.5z" />
    <glyph glyph-name="ordmasculine" unicode="&#xba;" horiz-adv-x="370" 
d="M185 434q-48 0 -82 20t-52 53.5t-18 72.5t18 72t52 53t82 20t82 -20t52 -53t18 -72t-18 -72.5t-52 -53.5t-82 -20zM185 494q36 0 55.5 24t19.5 62t-19.5 62t-55.5 24t-55.5 -24t-19.5 -62t19.5 -62t55.5 -24z" />
    <glyph glyph-name="pi" unicode="&#x3c0;" horiz-adv-x="652" 
d="M569 68q16 0 30.5 3t24.5 8v-70q-14 -7 -37.5 -13t-50.5 -6q-58 0 -85.5 34.5t-27.5 101.5v294h-195v-420h-90v420h-118v70h608v-70h-116v-280q0 -72 57 -72z" />
    <glyph glyph-name="zero" unicode="0" horiz-adv-x="698" 
d="M349 -14q-93 0 -159 47.5t-101 131t-35 191.5t37.5 188.5t104 125t153.5 44.5q89 0 155.5 -44.5t103 -125t36.5 -188.5t-35 -191.5t-101 -131t-159 -47.5zM349 72q62 0 105.5 33t66 96.5t22.5 154.5q0 136 -52.5 204t-141.5 68q-84 0 -139 -68t-55 -204
q0 -91 22.5 -154.5t66 -96.5t105.5 -33z" />
    <glyph glyph-name="one" unicode="1" horiz-adv-x="326" 
d="M154 0v563q-36 -29 -59.5 -41.5t-44.5 -19.5l-16 89q27 9 55.5 25.5t52.5 38t39 45.5h65v-700h-92z" />
    <glyph glyph-name="two" unicode="2" horiz-adv-x="524" 
d="M57 1l191 290q32 47 54 86.5t34 72.5t12 63q0 52 -29.5 82.5t-79.5 30.5t-92.5 -21.5t-77.5 -57.5l-12 100q35 28 83.5 48t108.5 20q64 0 107.5 -25.5t65.5 -69t22 -97.5q0 -47 -12.5 -88.5t-37.5 -86.5t-62 -101l-106 -160h245v-86h-414z" />
    <glyph glyph-name="three" unicode="3" horiz-adv-x="541" 
d="M240 -14q-58 0 -107.5 15t-92.5 38l23 88q43 -25 84.5 -40t93.5 -15q65 0 102 32.5t37 84.5q0 58 -40 93t-125 35h-44v86h44q65 0 102.5 30.5t37.5 83.5q0 56 -29 83.5t-83 27.5q-43 0 -80 -16.5t-72 -40.5l-16 97q38 22 83 34t98 12q65 0 110.5 -23.5t69 -65t23.5 -96.5
q0 -68 -39.5 -115t-107.5 -61v23q80 -16 124.5 -60.5t44.5 -123.5q0 -64 -31.5 -110t-86.5 -71t-123 -25z" />
    <glyph glyph-name="four" unicode="4" horiz-adv-x="578" 
d="M365 0v181h-345l372 519h69v-438h90v-81h-90v-181h-96zM160 235l-17 27h222v313l17 -28z" />
    <glyph glyph-name="five" unicode="5" horiz-adv-x="541" 
d="M246 -14q-56 0 -107 14.5t-88 38.5l23 88q37 -20 77 -34.5t90 -14.5q67 0 108.5 37.5t41.5 101.5q0 72 -45 109.5t-117 37.5q-38 0 -72 -5.5t-69 -14.5l43 356h330l-4 -90h-248l-26 -219l-21 41q22 4 47 7t51 3q74 0 127 -29.5t80.5 -80t27.5 -115.5q0 -71 -32.5 -123
t-89 -80t-127.5 -28z" />
    <glyph glyph-name="six" unicode="6" horiz-adv-x="568" 
d="M295 -14q-73 0 -125.5 32.5t-80 91t-27.5 136.5q0 82 27.5 154.5t72.5 133t100 106t110 74.5l65 -61q-44 -22 -85.5 -52t-76.5 -67t-61 -80t-40.5 -91.5t-14.5 -100.5l-32 54q24 48 73.5 76t116.5 28q61 0 108 -28t73.5 -76t26.5 -108q0 -65 -29 -115t-80.5 -78.5
t-120.5 -28.5zM295 68q60 0 96 39.5t36 97.5q0 56 -36 94.5t-96 38.5t-96.5 -38.5t-36.5 -95.5q0 -59 36.5 -97.5t96.5 -38.5z" />
    <glyph glyph-name="seven" unicode="7" horiz-adv-x="503" 
d="M90 0l282 653l26 -43h-358v90h453l-303 -700h-100z" />
    <glyph glyph-name="eight" unicode="8" horiz-adv-x="606" 
d="M303 -14q-75 0 -129.5 27t-84 75.5t-29.5 111.5q0 65 30.5 113.5t85 75.5t127.5 27t127.5 -27t85 -75.5t30.5 -113.5q0 -63 -29.5 -111.5t-84 -75.5t-129.5 -27zM303 72q69 0 107 35t38 93q0 60 -38 99t-107 39t-107 -39t-38 -99q0 -58 38 -93t107 -35zM303 343
q-59 0 -106.5 23t-76 64.5t-28.5 94.5q0 46 21.5 89.5t68 71.5t121.5 28t120.5 -28t66 -71.5t20.5 -89.5q0 -53 -25.5 -94.5t-72 -64.5t-109.5 -23zM303 421q55 0 83.5 30.5t28.5 73.5q0 46 -28.5 74.5t-83.5 28.5t-85.5 -28.5t-30.5 -74.5q0 -43 30.5 -73.5t85.5 -30.5z
" />
    <glyph glyph-name="nine" unicode="9" horiz-adv-x="568" 
d="M206 0l-65 61q41 21 80.5 50t73.5 64.5t59.5 77t40 88t14.5 97.5l32 -54q-24 -48 -73.5 -76t-116.5 -28q-61 0 -108 28t-73.5 76t-26.5 108q0 65 29 115t80.5 78.5t120.5 28.5q73 0 125.5 -32.5t80 -91t27.5 -136.5q0 -80 -26.5 -150t-70.5 -128.5t-97 -103t-106 -72.5z
M273 362q60 0 96.5 38.5t36.5 95.5q0 59 -36.5 97.5t-96.5 38.5t-96 -39.5t-36 -97.5q0 -56 36 -94.5t96 -38.5z" />
    <glyph glyph-name="uni2080" unicode="&#x2080;" horiz-adv-x="392" 
d="M196 -72q-52 0 -89 26t-57 72t-20 105q0 89 46 143t120 54q75 0 120.5 -54t45.5 -143q0 -59 -19.5 -105t-57 -72t-89.5 -26zM196 0q40 0 62 34t22 97t-23 94t-61 31q-36 0 -60 -31t-24 -94t22 -97t62 -34z" />
    <glyph glyph-name="uni2081" unicode="&#x2081;" horiz-adv-x="237" 
d="M98 -58v279q-15 -13 -30 -21t-29 -12l-7 66q24 8 48 25t38 35h55v-372h-75z" />
    <glyph glyph-name="uni2082" unicode="&#x2082;" horiz-adv-x="332" 
d="M37 -58l111 158q27 39 36 59.5t9 42.5t-14 38t-40 16q-29 0 -53 -13t-43 -30l-7 77q20 14 50.5 26t64.5 12q55 0 89.5 -33t34.5 -83q0 -22 -4.5 -41.5t-17.5 -43t-37 -58.5l-81 -116l-9 57h168v-68h-257z" />
    <glyph glyph-name="uni2083" unicode="&#x2083;" horiz-adv-x="357" 
d="M165 -72q-36 0 -67.5 8t-57.5 21l19 68q23 -14 46 -23t51 -9q30 0 47 13.5t17 38.5t-16 40.5t-51 15.5h-28v65h29q27 0 43 13t16 37q0 20 -14.5 33.5t-44.5 13.5q-24 0 -45 -7.5t-40 -20.5l-7 69q22 11 49 17.5t59 6.5q56 0 88 -27.5t32 -71.5q0 -41 -20.5 -64.5
t-50.5 -34.5v12q38 -9 60.5 -34.5t22.5 -65.5q0 -53 -39 -83.5t-98 -30.5z" />
    <glyph glyph-name="uni2084" unicode="&#x2084;" horiz-adv-x="372" 
d="M217 -58v79h-199l209 293h56v-234h49v-59h-49v-79h-66zM119 61l-25 19h123v69v109l24 -21l-52 -76z" />
    <glyph glyph-name="uni2085" unicode="&#x2085;" horiz-adv-x="332" 
d="M152 -72q-30 0 -56 6.5t-51 19.5l19 68q21 -14 42 -21.5t46 -7.5q29 0 47.5 15.5t18.5 43.5t-19 45t-55 17q-21 0 -41 -3t-37 -8l23 211h193l-4 -65h-155l28 42l-17 -140l-25 20q27 8 56 8q64 0 97 -33.5t33 -88.5q0 -62 -40.5 -95.5t-102.5 -33.5z" />
    <glyph glyph-name="uni2086" unicode="&#x2086;" horiz-adv-x="347" 
d="M183 -72q-71 0 -106 39t-35 104q0 59 26 108t69.5 87t94.5 62l45 -48q-42 -18 -80.5 -47.5t-63.5 -68t-25 -84.5l-17 32q13 28 39.5 43.5t61.5 15.5q55 0 89.5 -34.5t34.5 -86.5q0 -53 -37 -87.5t-96 -34.5zM181 -7q26 0 42 16.5t16 40.5t-16 40t-42 16t-42.5 -16
t-16.5 -40q0 -25 16.5 -41t42.5 -16z" />
    <glyph glyph-name="uni2087" unicode="&#x2087;" horiz-adv-x="332" 
d="M67 -58l156 352l21 -39h-202v65h267l-170 -378h-72z" />
    <glyph glyph-name="uni2088" unicode="&#x2088;" horiz-adv-x="314" 
d="M157 -72q-64 0 -100.5 32.5t-36.5 83.5q0 54 38 87t99 33t99 -33t38 -87q0 -51 -37 -83.5t-100 -32.5zM157 -9q29 0 45.5 16.5t16.5 44.5q0 26 -16.5 43t-45.5 17q-30 0 -46 -17t-16 -43q0 -28 16 -44.5t46 -16.5zM157 177q22 0 33.5 13t11.5 31q0 19 -11.5 31.5
t-33.5 12.5t-33.5 -12.5t-11.5 -31.5q0 -18 11.5 -31t33.5 -13zM157 124q-53 0 -84 28t-31 73q0 40 29 71.5t88 31.5q58 0 85.5 -31.5t27.5 -71.5q0 -45 -31 -73t-84 -28z" />
    <glyph glyph-name="uni2089" unicode="&#x2089;" horiz-adv-x="347" 
d="M164 328q71 0 106 -39t35 -104q0 -59 -26.5 -108t-69.5 -87t-94 -62l-45 48q42 18 81 47.5t63.5 68t24.5 84.5l17 -32q-13 -28 -39.5 -43.5t-61.5 -15.5q-55 0 -89.5 34.5t-34.5 86.5q0 53 37 87.5t96 34.5zM166 263q-26 0 -42 -16.5t-16 -40.5t16 -40t42 -16t42.5 16
t16.5 40q0 25 -16.5 41t-42.5 16z" />
    <glyph glyph-name="zero.dnom" horiz-adv-x="392" 
d="M196 -14q-52 0 -89 26t-57 72t-20 105q0 89 46 143t120 54q75 0 120.5 -54t45.5 -143q0 -59 -19.5 -105t-57 -72t-89.5 -26zM196 58q40 0 62 34t22 97t-23 94t-61 31q-36 0 -60 -31t-24 -94t22 -97t62 -34z" />
    <glyph glyph-name="one.dnom" horiz-adv-x="237" 
d="M98 0v279q-15 -13 -30 -21t-29 -12l-7 66q24 8 48 25t38 35h55v-372h-75z" />
    <glyph glyph-name="two.dnom" horiz-adv-x="332" 
d="M37 0l111 158q27 39 36 59.5t9 42.5t-14 38t-40 16q-29 0 -53 -13t-43 -30l-7 77q20 14 50.5 26t64.5 12q55 0 89.5 -33t34.5 -83q0 -22 -4.5 -41.5t-17.5 -43t-37 -58.5l-81 -116l-9 57h168v-68h-257z" />
    <glyph glyph-name="three.dnom" horiz-adv-x="357" 
d="M165 -14q-36 0 -67.5 8t-57.5 21l19 68q23 -14 46 -23t51 -9q30 0 47 13.5t17 38.5t-16 40.5t-51 15.5h-28v65h29q27 0 43 13t16 37q0 20 -14.5 33.5t-44.5 13.5q-24 0 -45 -7.5t-40 -20.5l-7 69q22 11 49 17.5t59 6.5q56 0 88 -27.5t32 -71.5q0 -41 -20.5 -64.5
t-50.5 -34.5v12q38 -9 60.5 -34.5t22.5 -65.5q0 -53 -39 -83.5t-98 -30.5z" />
    <glyph glyph-name="four.dnom" horiz-adv-x="372" 
d="M217 0v79h-199l209 293h56v-234h49v-59h-49v-79h-66zM119 119l-25 19h123v69v109l24 -21l-52 -76z" />
    <glyph glyph-name="five.dnom" horiz-adv-x="332" 
d="M152 -14q-30 0 -56 6.5t-51 19.5l19 68q21 -14 42 -21.5t46 -7.5q29 0 47.5 15.5t18.5 43.5t-19 45t-55 17q-21 0 -41 -3t-37 -8l23 211h193l-4 -65h-155l28 42l-17 -140l-25 20q27 8 56 8q64 0 97 -33.5t33 -88.5q0 -62 -40.5 -95.5t-102.5 -33.5z" />
    <glyph glyph-name="six.dnom" horiz-adv-x="347" 
d="M183 -14q-71 0 -106 39t-35 104q0 59 26 108t69.5 87t94.5 62l45 -48q-42 -18 -80.5 -47.5t-63.5 -68t-25 -84.5l-17 32q13 28 39.5 43.5t61.5 15.5q55 0 89.5 -34.5t34.5 -86.5q0 -53 -37 -87.5t-96 -34.5zM181 51q26 0 42 16.5t16 40.5t-16 40t-42 16t-42.5 -16
t-16.5 -40q0 -25 16.5 -41t42.5 -16z" />
    <glyph glyph-name="seven.dnom" horiz-adv-x="332" 
d="M67 0l156 352l21 -39h-202v65h267l-170 -378h-72z" />
    <glyph glyph-name="eight.dnom" horiz-adv-x="314" 
d="M157 -14q-64 0 -100.5 32.5t-36.5 83.5q0 54 38 87t99 33t99 -33t38 -87q0 -51 -37 -83.5t-100 -32.5zM157 49q29 0 45.5 16.5t16.5 44.5q0 26 -16.5 43t-45.5 17q-30 0 -46 -17t-16 -43q0 -28 16 -44.5t46 -16.5zM157 235q22 0 33.5 13t11.5 31q0 19 -11.5 31.5
t-33.5 12.5t-33.5 -12.5t-11.5 -31.5q0 -18 11.5 -31t33.5 -13zM157 182q-53 0 -84 28t-31 73q0 40 29 71.5t88 31.5q58 0 85.5 -31.5t27.5 -71.5q0 -45 -31 -73t-84 -28z" />
    <glyph glyph-name="nine.dnom" horiz-adv-x="347" 
d="M164 386q71 0 106 -39t35 -104q0 -59 -26.5 -108t-69.5 -87t-94 -62l-45 48q42 18 81 47.5t63.5 68t24.5 84.5l17 -32q-13 -28 -39.5 -43.5t-61.5 -15.5q-55 0 -89.5 34.5t-34.5 86.5q0 53 37 87.5t96 34.5zM166 321q-26 0 -42 -16.5t-16 -40.5t16 -40t42 -16t42.5 16
t16.5 40q0 25 -16.5 41t-42.5 16z" />
    <glyph glyph-name="zero.numr" horiz-adv-x="392" 
d="M196 314q-52 0 -89 26t-57 72t-20 105q0 89 46 143t120 54q75 0 120.5 -54t45.5 -143q0 -59 -19.5 -105t-57 -72t-89.5 -26zM196 386q40 0 62 34t22 97t-23 94t-61 31q-36 0 -60 -31t-24 -94t22 -97t62 -34z" />
    <glyph glyph-name="one.numr" horiz-adv-x="237" 
d="M98 328v279q-15 -13 -30 -21t-29 -12l-7 66q24 8 48 25t38 35h55v-372h-75z" />
    <glyph glyph-name="two.numr" horiz-adv-x="332" 
d="M37 328l111 158q27 39 36 59.5t9 42.5t-14 38t-40 16q-29 0 -53 -13t-43 -30l-7 77q20 14 50.5 26t64.5 12q55 0 89.5 -33t34.5 -83q0 -22 -4.5 -41.5t-17.5 -43t-37 -58.5l-81 -116l-9 57h168v-68h-257z" />
    <glyph glyph-name="three.numr" horiz-adv-x="357" 
d="M165 314q-36 0 -67.5 8t-57.5 21l19 68q23 -14 46 -23t51 -9q30 0 47 13.5t17 38.5t-16 40.5t-51 15.5h-28v65h29q27 0 43 13t16 37q0 20 -14.5 33.5t-44.5 13.5q-24 0 -45 -7.5t-40 -20.5l-7 69q22 11 49 17.5t59 6.5q56 0 88 -27.5t32 -71.5q0 -41 -20.5 -64.5
t-50.5 -34.5v12q38 -9 60.5 -34.5t22.5 -65.5q0 -53 -39 -83.5t-98 -30.5z" />
    <glyph glyph-name="four.numr" horiz-adv-x="372" 
d="M217 328v79h-199l209 293h56v-234h49v-59h-49v-79h-66zM119 447l-25 19h123v69v109l24 -21l-52 -76z" />
    <glyph glyph-name="five.numr" horiz-adv-x="332" 
d="M152 314q-30 0 -56 6.5t-51 19.5l19 68q21 -14 42 -21.5t46 -7.5q29 0 47.5 15.5t18.5 43.5t-19 45t-55 17q-21 0 -41 -3t-37 -8l23 211h193l-4 -65h-155l28 42l-17 -140l-25 20q27 8 56 8q64 0 97 -33.5t33 -88.5q0 -62 -40.5 -95.5t-102.5 -33.5z" />
    <glyph glyph-name="six.numr" horiz-adv-x="347" 
d="M183 314q-71 0 -106 39t-35 104q0 59 26 108t69.5 87t94.5 62l45 -48q-42 -18 -80.5 -47.5t-63.5 -68t-25 -84.5l-17 32q13 28 39.5 43.5t61.5 15.5q55 0 89.5 -34.5t34.5 -86.5q0 -53 -37 -87.5t-96 -34.5zM181 379q26 0 42 16.5t16 40.5t-16 40t-42 16t-42.5 -16
t-16.5 -40q0 -25 16.5 -41t42.5 -16z" />
    <glyph glyph-name="seven.numr" horiz-adv-x="332" 
d="M67 322l156 352l21 -39h-202v65h267l-170 -378h-72z" />
    <glyph glyph-name="eight.numr" horiz-adv-x="314" 
d="M157 314q-64 0 -100.5 32.5t-36.5 83.5q0 54 38 87t99 33t99 -33t38 -87q0 -51 -37 -83.5t-100 -32.5zM157 377q29 0 45.5 16.5t16.5 44.5q0 26 -16.5 43t-45.5 17q-30 0 -46 -17t-16 -43q0 -28 16 -44.5t46 -16.5zM157 563q22 0 33.5 13t11.5 31q0 19 -11.5 31.5
t-33.5 12.5t-33.5 -12.5t-11.5 -31.5q0 -18 11.5 -31t33.5 -13zM157 510q-53 0 -84 28t-31 73q0 40 29 71.5t88 31.5q58 0 85.5 -31.5t27.5 -71.5q0 -45 -31 -73t-84 -28z" />
    <glyph glyph-name="nine.numr" horiz-adv-x="347" 
d="M164 714q71 0 106 -39t35 -104q0 -59 -26.5 -108t-69.5 -87t-94 -62l-45 48q42 18 81 47.5t63.5 68t24.5 84.5l17 -32q-13 -28 -39.5 -43.5t-61.5 -15.5q-55 0 -89.5 34.5t-34.5 86.5q0 53 37 87.5t96 34.5zM166 649q-26 0 -42 -16.5t-16 -40.5t16 -40t42 -16t42.5 16
t16.5 40q0 25 -16.5 41t-42.5 16z" />
    <glyph glyph-name="uni2070" unicode="&#x2070;" horiz-adv-x="392" 
d="M196 372q-52 0 -89 26t-57 72t-20 105q0 89 46 143t120 54q75 0 120.5 -54t45.5 -143q0 -59 -19.5 -105t-57 -72t-89.5 -26zM196 444q40 0 62 34t22 97t-23 94t-61 31q-36 0 -60 -31t-24 -94t22 -97t62 -34z" />
    <glyph glyph-name="uni00B9" unicode="&#xb9;" horiz-adv-x="237" 
d="M98 386v279q-15 -13 -30 -21t-29 -12l-7 66q24 8 48 25t38 35h55v-372h-75z" />
    <glyph glyph-name="uni00B2" unicode="&#xb2;" horiz-adv-x="332" 
d="M37 386l111 158q27 39 36 59.5t9 42.5t-14 38t-40 16q-29 0 -53 -13t-43 -30l-7 77q20 14 50.5 26t64.5 12q55 0 89.5 -33t34.5 -83q0 -22 -4.5 -41.5t-17.5 -43t-37 -58.5l-81 -116l-9 57h168v-68h-257z" />
    <glyph glyph-name="uni00B3" unicode="&#xb3;" horiz-adv-x="357" 
d="M165 372q-36 0 -67.5 8t-57.5 21l19 68q23 -14 46 -23t51 -9q30 0 47 13.5t17 38.5t-16 40.5t-51 15.5h-28v65h29q27 0 43 13t16 37q0 20 -14.5 33.5t-44.5 13.5q-24 0 -45 -7.5t-40 -20.5l-7 69q22 11 49 17.5t59 6.5q56 0 88 -27.5t32 -71.5q0 -41 -20.5 -64.5
t-50.5 -34.5v12q38 -9 60.5 -34.5t22.5 -65.5q0 -53 -39 -83.5t-98 -30.5z" />
    <glyph glyph-name="uni2074" unicode="&#x2074;" horiz-adv-x="372" 
d="M217 386v79h-199l209 293h56v-234h49v-59h-49v-79h-66zM119 505l-25 19h123v69v109l24 -21l-52 -76z" />
    <glyph glyph-name="uni2075" unicode="&#x2075;" horiz-adv-x="332" 
d="M152 372q-30 0 -56 6.5t-51 19.5l19 68q21 -14 42 -21.5t46 -7.5q29 0 47.5 15.5t18.5 43.5t-19 45t-55 17q-21 0 -41 -3t-37 -8l23 211h193l-4 -65h-155l28 42l-17 -140l-25 20q27 8 56 8q64 0 97 -33.5t33 -88.5q0 -62 -40.5 -95.5t-102.5 -33.5z" />
    <glyph glyph-name="uni2076" unicode="&#x2076;" horiz-adv-x="347" 
d="M183 372q-71 0 -106 39t-35 104q0 59 26 108t69.5 87t94.5 62l45 -48q-42 -18 -80.5 -47.5t-63.5 -68t-25 -84.5l-17 32q13 28 39.5 43.5t61.5 15.5q55 0 89.5 -34.5t34.5 -86.5q0 -53 -37 -87.5t-96 -34.5zM181 437q26 0 42 16.5t16 40.5t-16 40t-42 16t-42.5 -16
t-16.5 -40q0 -25 16.5 -41t42.5 -16z" />
    <glyph glyph-name="uni2077" unicode="&#x2077;" horiz-adv-x="332" 
d="M67 386l156 352l21 -39h-202v65h267l-170 -378h-72z" />
    <glyph glyph-name="uni2078" unicode="&#x2078;" horiz-adv-x="314" 
d="M157 372q-64 0 -100.5 32.5t-36.5 83.5q0 54 38 87t99 33t99 -33t38 -87q0 -51 -37 -83.5t-100 -32.5zM157 435q29 0 45.5 16.5t16.5 44.5q0 26 -16.5 43t-45.5 17q-30 0 -46 -17t-16 -43q0 -28 16 -44.5t46 -16.5zM157 621q22 0 33.5 13t11.5 31q0 19 -11.5 31.5
t-33.5 12.5t-33.5 -12.5t-11.5 -31.5q0 -18 11.5 -31t33.5 -13zM157 568q-53 0 -84 28t-31 73q0 40 29 71.5t88 31.5q58 0 85.5 -31.5t27.5 -71.5q0 -45 -31 -73t-84 -28z" />
    <glyph glyph-name="uni2079" unicode="&#x2079;" horiz-adv-x="347" 
d="M164 772q71 0 106 -39t35 -104q0 -59 -26.5 -108t-69.5 -87t-94 -62l-45 48q42 18 81 47.5t63.5 68t24.5 84.5l17 -32q-13 -28 -39.5 -43.5t-61.5 -15.5q-55 0 -89.5 34.5t-34.5 86.5q0 53 37 87.5t96 34.5zM166 707q-26 0 -42 -16.5t-16 -40.5t16 -40t42 -16t42.5 16
t16.5 40q0 25 -16.5 41t-42.5 16z" />
    <glyph glyph-name="fraction" unicode="&#x2044;" horiz-adv-x="87" 
d="M-215 0l403 700h84l-402 -700h-85z" />
    <glyph glyph-name="onehalf" unicode="&#xbd;" horiz-adv-x="679" 
d="M96 328v279q-15 -13 -30 -21t-29 -12l-7 66q24 8 48 25t38 35h55v-372h-75zM50 0l403 700h84l-402 -700h-85zM392 0l111 158q27 39 36 59.5t9 42.5t-14 38t-40 16q-29 0 -53 -13t-43 -30l-7 77q20 14 50.5 26t64.5 12q55 0 89.5 -33t34.5 -83q0 -22 -4.5 -41.5t-17.5 -43
t-37 -58.5l-81 -116l-9 57h168v-68h-257z" />
    <glyph glyph-name="onequarter" unicode="&#xbc;" horiz-adv-x="632" 
d="M96 328v279q-15 -13 -30 -21t-29 -12l-7 66q24 8 48 25t38 35h55v-372h-75zM60 0l403 700h84l-402 -700h-85zM479 0v79h-199l209 293h56v-234h49v-59h-49v-79h-66zM381 119l-25 19h123v69v109l24 -21l-52 -76z" />
    <glyph glyph-name="threequarters" unicode="&#xbe;" horiz-adv-x="704" 
d="M165 314q-36 0 -67.5 8t-57.5 21l19 68q23 -14 46 -23t51 -9q30 0 47 13.5t17 38.5t-16 40.5t-51 15.5h-28v65h29q27 0 43 13t16 37q0 20 -14.5 33.5t-44.5 13.5q-24 0 -45 -7.5t-40 -20.5l-7 69q22 11 49 17.5t59 6.5q56 0 88 -27.5t32 -71.5q0 -41 -20.5 -64.5
t-50.5 -34.5v12q38 -9 60.5 -34.5t22.5 -65.5q0 -53 -39 -83.5t-98 -30.5zM132 0l403 700h84l-402 -700h-85zM551 0v79h-199l209 293h56v-234h49v-59h-49v-79h-66zM453 119l-25 19h123v69v109l24 -21l-52 -76z" />
    <glyph glyph-name="asterisk" unicode="*" horiz-adv-x="427" 
d="M34 477l138 82l-138 81l27 48l130 -89l-5 151h55l-5 -151l130 89l27 -48l-138 -81l138 -82l-27 -48l-130 89l5 -151h-55l5 151l-130 -89z" />
    <glyph glyph-name="backslash" unicode="\" horiz-adv-x="303" 
d="M238 -85l-248 785h95l248 -785h-95z" />
    <glyph glyph-name="periodcentered" unicode="&#xb7;" horiz-adv-x="238" 
d="M57 213v130h124v-130h-124z" />
    <glyph glyph-name="bullet" unicode="&#x2022;" horiz-adv-x="306" 
d="M153 169q-45 0 -77 32t-32 77t32 77t77 32t77 -32t32 -77t-32 -77t-77 -32z" />
    <glyph glyph-name="colon" unicode=":" horiz-adv-x="208" 
d="M50 384v106h108v-106h-108zM50 0v106h108v-106h-108z" />
    <glyph glyph-name="comma" unicode="," horiz-adv-x="216" 
d="M114 -107h-57l36 107h-35v106h108v-96z" />
    <glyph glyph-name="ellipsis" unicode="&#x2026;" horiz-adv-x="604" 
d="M50 0v106h108v-106h-108zM248 0v106h108v-106h-108zM446 0v106h108v-106h-108z" />
    <glyph glyph-name="exclam" unicode="!" horiz-adv-x="242" 
d="M79 172v26l-20 502h124l-20 -502v-26h-84zM67 0v106h108v-106h-108z" />
    <glyph glyph-name="exclamdown" unicode="&#xa1;" horiz-adv-x="242" 
d="M79 328v-26l-20 -502h124l-20 502v26h-84zM67 500v-106h108v106h-108z" />
    <glyph glyph-name="numbersign" unicode="#" horiz-adv-x="704" 
d="M67 -11l86 227h-120l40 91h115l45 115h-126l29 85h129l74 193h81l-75 -193h133l75 193h80l-74 -193h113l-29 -85h-116l-45 -115h128l-41 -91h-122l-86 -227h-81l87 227h-133l-87 -227h-80zM269 307h132l45 115h-132z" />
    <glyph glyph-name="period" unicode="." horiz-adv-x="208" 
d="M50 0v106h108v-106h-108z" />
    <glyph glyph-name="question" unicode="?" horiz-adv-x="462" 
d="M155 172v25q0 43 12 75.5t30.5 59t39.5 51.5q33 41 52 70.5t19 71.5q0 35 -16 58t-41.5 34t-52.5 11q-38 0 -69.5 -11t-59.5 -27l-9 81q30 19 69 31t92 12q63 0 105.5 -24.5t64 -65t21.5 -87.5q0 -39 -12.5 -69t-32 -55.5l-40.5 -51.5q-30 -37 -54 -73t-24 -85v-31h-94z
M148 0v106h108v-106h-108z" />
    <glyph glyph-name="questiondown" unicode="&#xbf;" horiz-adv-x="392" 
d="M292 328v-25q0 -43 -12 -75.5t-30.5 -59t-39.5 -51.5q-33 -41 -52 -70.5t-19 -71.5q0 -35 16 -58t41.5 -34t52.5 -11q38 0 69.5 11t59.5 27l9 -81q-30 -19 -69 -31t-92 -12q-63 0 -105.5 24.5t-64 65t-21.5 87.5q0 39 12.5 69t32 55.5l40.5 51.5q30 37 54 73t24 85v31h94
zM299 500v-106h-108v106h108z" />
    <glyph glyph-name="quotedbl" unicode="&#x22;" horiz-adv-x="322" 
d="M54 490l-18 210h100l-18 -210h-64zM204 490l-18 210h100l-18 -210h-64z" />
    <glyph glyph-name="quotesingle" unicode="'" horiz-adv-x="172" 
d="M54 490l-18 210h100l-18 -210h-64z" />
    <glyph glyph-name="semicolon" unicode=";" horiz-adv-x="216" 
d="M114 -107h-57l36 107h-35v106h108v-96zM58 384v106h108v-106h-108z" />
    <glyph glyph-name="slash" unicode="/" horiz-adv-x="323" 
d="M-10 -85l268 785h95l-268 -785h-95z" />
    <glyph glyph-name="underscore" unicode="_" horiz-adv-x="566" 
d="M3 -122v86h560v-86h-560z" />
    <glyph glyph-name="periodcentered.loclCAT.case" horiz-adv-x="238" 
d="M68 227v102h102v-102h-102z" />
    <glyph glyph-name="periodcentered.loclCAT" horiz-adv-x="238" 
d="M74 233v90h90v-90h-90z" />
    <glyph glyph-name="braceleft" unicode="{" horiz-adv-x="308" 
d="M269 -136q-94 0 -135.5 42t-41.5 108q0 34 4 76.5t4 79.5q0 54 -17 80.5t-63 26.5v60q46 0 63 26.5t17 80.5q0 37 -4 79.5t-4 76.5q0 66 41.5 108t135.5 42h37v-69h-27q-55 0 -84.5 -24.5t-29.5 -86.5q0 -35 4 -78.5t4 -77.5q0 -51 -25 -75.5t-67 -35.5v8
q42 -11 67 -35.5t25 -75.5q0 -34 -4 -77.5t-4 -78.5q0 -62 29.5 -86.5t84.5 -24.5h27v-69h-37z" />
    <glyph glyph-name="braceright" unicode="}" horiz-adv-x="308" 
d="M2 -136v69h27q55 0 84.5 24.5t29.5 86.5q0 35 -4 78.5t-4 77.5q0 51 25 75.5t67 35.5v-8q-42 11 -67 35.5t-25 75.5q0 34 4 77.5t4 78.5q0 62 -29.5 86.5t-84.5 24.5h-27v69h37q94 0 135.5 -42t41.5 -108q0 -34 -4 -76.5t-4 -79.5q0 -54 17 -80.5t63 -26.5v-60
q-46 0 -63 -26.5t-17 -80.5q0 -37 4 -79.5t4 -76.5q0 -66 -41.5 -108t-135.5 -42h-37z" />
    <glyph glyph-name="bracketleft" unicode="[" horiz-adv-x="327" 
d="M70 -135v885h257v-68h-174v-749h174v-68h-257z" />
    <glyph glyph-name="bracketright" unicode="]" horiz-adv-x="327" 
d="M0 -135v68h174v749h-174v68h257v-885h-257z" />
    <glyph glyph-name="parenleft" unicode="(" horiz-adv-x="313" 
d="M204 -136q-37 54 -67.5 118.5t-48.5 144.5t-18 180t18 180t48.5 144.5t67.5 118.5h79q-50 -84 -86.5 -192t-36.5 -251t36.5 -251t86.5 -192h-79z" />
    <glyph glyph-name="parenright" unicode=")" horiz-adv-x="313" 
d="M30 -136q50 84 86.5 192t36.5 251t-36.5 251t-86.5 192h79q37 -54 67.5 -118.5t48.5 -144.5t18 -180t-18 -180t-48.5 -144.5t-67.5 -118.5h-79z" />
    <glyph glyph-name="emdash" unicode="&#x2014;" horiz-adv-x="716" 
d="M0 268v86h716v-86h-716z" />
    <glyph glyph-name="endash" unicode="&#x2013;" horiz-adv-x="544" 
d="M0 268v86h544v-86h-544z" />
    <glyph glyph-name="figuredash" unicode="&#x2012;" horiz-adv-x="698" 
d="M0 268v86h698v-86h-698z" />
    <glyph glyph-name="afii00208" unicode="&#x2015;" horiz-adv-x="716" 
d="M0 268v86h716v-86h-716z" />
    <glyph glyph-name="hyphen" unicode="-" horiz-adv-x="424" 
d="M57 268v86h310v-86h-310z" />
    <glyph glyph-name="uni2010" unicode="&#x2010;" horiz-adv-x="424" 
d="M57 268v86h310v-86h-310z" />
    <glyph glyph-name="uni00AD" unicode="&#xad;" horiz-adv-x="444" 
d="M67 268v86h310v-86h-310z" />
    <glyph glyph-name="guillemotleft" unicode="&#xab;" horiz-adv-x="582" 
d="M173 78l-159 206l159 206h109l-159 -206l159 -206h-109zM433 78l-159 206l159 206h109l-159 -206l159 -206h-109z" />
    <glyph glyph-name="guillemotright" unicode="&#xbb;" horiz-adv-x="583" 
d="M301 78l159 206l-159 206h109l159 -206l-159 -206h-109zM41 78l159 206l-159 206h109l159 -206l-159 -206h-109z" />
    <glyph glyph-name="guilsinglleft" unicode="&#x2039;" horiz-adv-x="322" 
d="M173 78l-159 206l159 206h109l-159 -206l159 -206h-109z" />
    <glyph glyph-name="guilsinglright" unicode="&#x203a;" horiz-adv-x="323" 
d="M41 78l159 206l-159 206h109l159 -206l-159 -206h-109z" />
    <glyph glyph-name="quotedblbase" unicode="&#x201e;" horiz-adv-x="349" 
d="M87 -107h-57l36 107h-35v106h108v-96zM247 -107h-57l36 107h-35v106h108v-96z" />
    <glyph glyph-name="quotedblleft" unicode="&#x201c;" horiz-adv-x="356" 
d="M109 700h57l-36 -107h35v-106h-108v96zM269 700h57l-36 -107h35v-106h-108v96z" />
    <glyph glyph-name="quotedblright" unicode="&#x201d;" horiz-adv-x="349" 
d="M87 487h-57l36 107h-35v106h108v-96zM247 487h-57l36 107h-35v106h108v-96z" />
    <glyph glyph-name="quoteleft" unicode="&#x2018;" horiz-adv-x="196" 
d="M109 700h57l-36 -107h35v-106h-108v96z" />
    <glyph glyph-name="quoteright" unicode="&#x2019;" horiz-adv-x="189" 
d="M87 487h-57l36 107h-35v106h108v-96z" />
    <glyph glyph-name="quotesinglbase" unicode="&#x201a;" horiz-adv-x="189" 
d="M87 -107h-57l36 107h-35v106h108v-96z" />
    <glyph glyph-name="uni2007" unicode="&#x2007;" horiz-adv-x="698" 
 />
    <glyph glyph-name="uni200A" unicode="&#x200a;" horiz-adv-x="100" 
 />
    <glyph glyph-name="uni2008" unicode="&#x2008;" horiz-adv-x="208" 
 />
    <glyph glyph-name="space" unicode=" " horiz-adv-x="225" 
 />
    <glyph glyph-name="uni00A0" unicode="&#xa0;" horiz-adv-x="225" 
 />
    <glyph glyph-name="uni2009" unicode="&#x2009;" horiz-adv-x="200" 
 />
    <glyph glyph-name="uni200B" unicode="&#x200b;" 
 />
    <glyph glyph-name="CR" unicode="&#xd;" horiz-adv-x="225" 
 />
    <glyph glyph-name="uni20B5" unicode="&#x20b5;" horiz-adv-x="616" 
d="M392 -14q-102 0 -182 45t-125.5 126.5t-45.5 192.5t46.5 192.5t127 126.5t183.5 45q53 0 101.5 -11.5t85.5 -29.5l-10 -88q-37 18 -82.5 30.5t-95.5 12.5q-83 0 -139 -37t-84.5 -100t-28.5 -141t28.5 -141t84 -100t137.5 -37q52 0 96 11t84 31l10 -88
q-37 -17 -84.5 -28.5t-106.5 -11.5zM348 -144l10 178h58l10 -178h-78zM358 673l-10 171h78l-10 -171h-58z" />
    <glyph glyph-name="cent" unicode="&#xa2;" horiz-adv-x="454" 
d="M286 -10q-83 0 -139.5 34t-85 91t-28.5 127q0 73 27.5 131.5t85.5 92.5t147 34q38 0 72.5 -8t61.5 -21l-14 -79q-28 13 -58.5 20.5t-63.5 7.5q-81 0 -123.5 -46t-42.5 -128q0 -80 40.5 -128.5t123.5 -48.5q34 0 65.5 8t59.5 22l12 -72q-20 -14 -58.5 -25.5t-81.5 -11.5z
M244 -144l10 178h58l10 -178h-78zM254 459l-10 171h78l-10 -171h-58z" />
    <glyph glyph-name="colonmonetary" unicode="&#x20a1;" horiz-adv-x="616" 
d="M392 -14q-102 0 -182 45t-125.5 126.5t-45.5 192.5t46.5 192.5t127 126.5t183.5 45q53 0 101.5 -11.5t85.5 -29.5l-10 -88q-37 18 -82.5 30.5t-95.5 12.5q-83 0 -139 -37t-84.5 -100t-28.5 -141t28.5 -141t84 -100t137.5 -37q52 0 96 11t84 31l10 -88
q-37 -17 -84.5 -28.5t-106.5 -11.5zM199 -114l130 928h70l-130 -928h-70zM353 -114l130 928h70l-130 -928h-70z" />
    <glyph glyph-name="currency" unicode="&#xa4;" horiz-adv-x="696" 
d="M348 602q76 0 133.5 -34t90 -91.5t32.5 -128.5q0 -73 -33 -130.5t-90.5 -90.5t-132.5 -33q-76 0 -133.5 33.5t-90 91t-32.5 129.5t33 129.5t91 91t132 33.5zM348 520q-54 0 -91 -23t-56 -62t-19 -87t19 -87t56 -62t91 -23t91 23t56 62t19 87t-19 87t-56 62t-91 23z
M88 636l119 -119l-30 -26l-117 117zM181 209l28 -28l-121 -121l-28 28zM514 210l122 -122l-28 -28l-122 122zM608 636l28 -28l-121 -121l-28 28z" />
    <glyph glyph-name="dollar" unicode="$" horiz-adv-x="584" 
d="M280 -14q-44 0 -87 6.5t-80 17t-62 21.5l13 101q27 -13 65.5 -27t82.5 -23.5t90 -9.5q68 0 107.5 25t39.5 77q0 40 -20 65t-60.5 43t-100.5 36q-58 17 -106 40t-77.5 62.5t-29.5 104.5q0 55 28.5 98t84.5 67t137 24q69 0 127 -15t95 -33l-10 -101q-57 34 -109 48.5
t-107 14.5q-61 0 -101.5 -23t-40.5 -75q0 -35 18 -57t53.5 -38t88.5 -32q73 -22 125.5 -50.5t80.5 -69.5t28 -102q0 -45 -17 -81t-51 -61.5t-85 -39t-120 -13.5zM271 -144l10 178h58l10 -178h-78zM281 673l-10 171h78l-10 -171h-58z" />
    <glyph glyph-name="dong" unicode="&#x20ab;" horiz-adv-x="555" 
d="M261 -10q-69 0 -120.5 33t-80 90t-28.5 131q0 68 27 126t77 94t119 36q55 0 97.5 -22t71.5 -60l-19 -23v355h90v-750h-80l-17 104l23 -26q-21 -44 -65.5 -66t-94.5 -22zM79 -131v73h416v-73h-416zM271 70q34 0 67 17.5t55 56t22 100.5q0 58 -22 97t-55 59t-67 20
q-46 0 -79 -23t-50.5 -63t-17.5 -90q0 -48 17.5 -87.5t50.5 -63t79 -23.5zM247 595v63h296v-63h-296z" />
    <glyph glyph-name="Euro" unicode="&#x20ac;" horiz-adv-x="654" 
d="M430 -14q-102 0 -182 45t-125.5 126.5t-45.5 192.5t46.5 192.5t127 126.5t183.5 45q53 0 101.5 -11.5t85.5 -29.5l-10 -88q-37 18 -82.5 30.5t-95.5 12.5q-83 0 -139 -37t-84.5 -100t-28.5 -141t28.5 -141t84 -100t137.5 -37q52 0 96 11t84 31l10 -88
q-37 -17 -84.5 -28.5t-106.5 -11.5zM-10 230v74h509v-74h-509zM-10 402v74h509v-74h-509z" />
    <glyph glyph-name="florin" unicode="&#x192;" horiz-adv-x="341" 
d="M12 420l8 70h319l-8 -70h-319zM130 60q-16 -103 -67 -153.5t-131 -50.5q-21 0 -38 2.5t-32 8.5l7 83q24 -8 52 -8q48 0 75.5 26t37.5 89l73 453q17 103 68 153.5t130 50.5q21 0 38 -2.5t32 -8.5l-7 -83q-11 4 -24.5 6t-27.5 2q-48 0 -75.5 -26.5t-37.5 -88.5z" />
    <glyph glyph-name="franc" unicode="&#x20a3;" horiz-adv-x="543" 
d="M100 0v700h427v-86h-332v-205h256v-86h-256v-323h-95zM20 138v74h379v-74h-379z" />
    <glyph glyph-name="uni20B2" unicode="&#x20b2;" horiz-adv-x="672" 
d="M382 -14q-97 0 -174.5 45t-123 127t-45.5 193t46.5 192.5t128.5 126t187 44.5q56 0 107.5 -12t89.5 -28l-9 -83q-41 16 -87 26.5t-98 10.5q-90 0 -147.5 -37t-85.5 -100t-28 -141q0 -80 28.5 -143t87.5 -99t150 -36q23 0 56 4t61 15v174h-110v86h205v-312
q-41 -23 -102 -38t-137 -15zM362 -144l10 178h58l10 -178h-78zM372 673l-10 171h78l-10 -171h-58z" />
    <glyph glyph-name="uni20AD" unicode="&#x20ad;" horiz-adv-x="597" 
d="M464 0l-259 371l259 329h115l-266 -327l269 -373h-118zM100 0v700h95v-700h-95zM20 334v72h519v-72h-519z" />
    <glyph glyph-name="lira" unicode="&#x20a4;" horiz-adv-x="520" 
d="M155 49l-22 41h356v-90h-439q24 55 41 103t28 99t18 116l19 182q10 99 57 156.5t141 57.5q36 0 67.5 -9t62.5 -26l-10 -101q-28 24 -55 37t-58 13q-50 0 -77 -32.5t-33 -87.5l-19 -182q-7 -65 -16.5 -111t-23.5 -84.5t-37 -81.5zM60 386v74h366v-74h-366zM60 236v74h366
v-74h-366z" />
    <glyph glyph-name="uni20BA" unicode="&#x20ba;" horiz-adv-x="562" 
d="M195 700v-614h31q99 0 150 57.5t51 173.5v28h95v-28q0 -109 -37.5 -179t-105.5 -104t-160 -34h-119v700h95zM20 296v79l456 140v-79zM20 446v79l456 140v-79z" />
    <glyph glyph-name="uni20BC" unicode="&#x20bc;" horiz-adv-x="694" 
d="M360 584q98 0 162.5 -36.5t96 -104t31.5 -160.5v-283h-95v257q0 46 -7.5 89t-28 77.5t-59 54.5t-100.5 20t-100.5 -20t-59 -54.5t-28 -77.5t-7.5 -89v-257h-95v283q0 93 31.5 160.5t96 104t162.5 36.5zM313 0v700h95v-700h-95z" />
    <glyph glyph-name="uni20A6" unicode="&#x20a6;" horiz-adv-x="773" 
d="M113 0v700h103l345 -524v524h96v-700h-81l-368 553v-553h-95zM40 336v74h693v-74h-693z" />
    <glyph glyph-name="peseta" unicode="&#x20a7;" horiz-adv-x="1269" 
d="M80 0v700h216q69 0 121.5 -22.5t81.5 -72.5t29 -132q0 -81 -29 -131t-81.5 -73.5t-121.5 -23.5h-116v-245h-100zM180 330h102q74 0 110.5 34.5t36.5 107.5t-35 108t-112 35h-102v-285zM772 -10q-46 0 -74.5 17t-41 44t-12.5 56v313h-84l8 70h76v121l90 9v-130h129v-70
h-129v-258q0 -47 5.5 -68t27 -26.5t70.5 -5.5h23l-7 -72h-81zM1055 -10q-65 0 -108 15.5t-60 27.5l11 87q10 -10 32 -21.5t53 -20t68 -8.5q47 0 72.5 16t25.5 45q0 25 -16 41t-39 25t-43 15q-33 9 -69 23t-60.5 41.5t-24.5 76.5q0 37 18 71t58.5 55t107.5 21q49 0 80 -10.5
t53 -21.5l-11 -82q-22 18 -50.5 30.5t-69.5 12.5q-42 0 -68.5 -15.5t-26.5 -50.5q0 -23 12.5 -36.5t38 -23t63.5 -21.5q41 -13 72.5 -30.5t49.5 -45t18 -70.5q0 -24 -8.5 -50t-29 -47.5t-57 -35t-92.5 -13.5z" />
    <glyph glyph-name="uni20B1" unicode="&#x20b1;" horiz-adv-x="658" 
d="M100 0v700h231q71 0 124 -25t83 -80t30 -146q0 -89 -30 -145.5t-83 -82.5t-124 -26h-131v-195h-100zM200 280h117q78 0 117.5 41t39.5 127q0 85 -37.5 126t-119.5 41h-117v-335zM20 480v72h618v-72h-618zM20 343v72h618v-72h-618z" />
    <glyph glyph-name="uni20BD" unicode="&#x20bd;" horiz-adv-x="592" 
d="M100 0v700h231q71 0 124 -22.5t83 -72.5t30 -132q0 -81 -30 -131t-83 -73.5t-124 -23.5h-311v85h297q76 0 114 34.5t38 107.5t-36.5 108t-115.5 35h-117v-615h-100zM20 108v74h379v-74h-379z" />
    <glyph glyph-name="uni20B9" unicode="&#x20b9;" horiz-adv-x="528" 
d="M40 243v77h123q75 0 116 37t41 113t-41 114.5t-116 38.5h-123v77h459v-77h-166l10 19q36 -28 56 -71t20 -101q0 -74 -30 -125t-84.5 -76.5t-127.5 -25.5h-137zM395 0l-199 284h107l201 -284h-109zM40 433v77h459v-77h-459z" />
    <glyph glyph-name="sterling" unicode="&#xa3;" horiz-adv-x="520" 
d="M50 0q24 55 41 103t28 99t18 116l19 182q10 99 57 156.5t141 57.5q36 0 67.5 -9t62.5 -26l-10 -101q-28 24 -55 37t-58 13q-50 0 -77 -32.5t-33 -87.5l-19 -182q-7 -65 -16.5 -111t-23.5 -84.5t-37 -81.5l-22 41h356v-90h-439zM60 316v74h366v-74h-366z" />
    <glyph glyph-name="uni20A9" unicode="&#x20a9;" horiz-adv-x="955" 
d="M200 0l-146 700h107l117 -634h-42l198 620h86l194 -620h-36l116 634h107l-155 -700h-100l-189 615h40l-197 -615h-100zM24 332v74h907v-74h-907z" />
    <glyph glyph-name="yen" unicode="&#xa5;" horiz-adv-x="567" 
d="M236 0v303l-247 397h108l208 -340h-44l208 340h108l-246 -397v-303h-95zM84 147v74h399v-74h-399zM84 287v74h399v-74h-399z" />
    <glyph glyph-name="uni2219" unicode="&#x2219;" horiz-adv-x="238" 
d="M57 213v130h124v-130h-124z" />
    <glyph glyph-name="uni2215" unicode="&#x2215;" horiz-adv-x="323" 
d="M-10 -85l268 785h95l-268 -785h-95z" />
    <glyph glyph-name="plus" unicode="+" horiz-adv-x="442" 
d="M181 110v133h-135v76h135v133h80v-133h135v-76h-135v-133h-80z" />
    <glyph glyph-name="minus" unicode="&#x2212;" horiz-adv-x="442" 
d="M46 243v76h350v-76h-350z" />
    <glyph glyph-name="multiply" unicode="&#xd7;" horiz-adv-x="406" 
d="M86 107l-52 52l286 296l52 -52zM320 107l-286 296l52 52l286 -296z" />
    <glyph glyph-name="divide" unicode="&#xf7;" horiz-adv-x="482" 
d="M46 243v76h390v-76h-390zM191 59v100h100v-100h-100zM191 403v100h100v-100h-100z" />
    <glyph glyph-name="equal" unicode="=" horiz-adv-x="442" 
d="M46 318v76h350v-76h-350zM46 160v76h350v-76h-350z" />
    <glyph glyph-name="notequal" unicode="&#x2260;" horiz-adv-x="442" 
d="M76 100l210 354h80l-210 -354h-80zM46 318v76h350v-76h-350zM46 160v76h350v-76h-350z" />
    <glyph glyph-name="greater" unicode="&#x3e;" horiz-adv-x="417" 
d="M26 75l355 163v86l-355 163v-86l279 -120l-279 -120v-86z" />
    <glyph glyph-name="less" unicode="&#x3c;" horiz-adv-x="417" 
d="M391 75l-355 163v86l355 163v-86l-279 -120l279 -120v-86z" />
    <glyph glyph-name="greaterequal" unicode="&#x2265;" horiz-adv-x="432" 
d="M26 168l370 135v82l-370 135v-82l274 -94l-274 -94v-82zM396 60v72h-370v-72h370z" />
    <glyph glyph-name="lessequal" unicode="&#x2264;" horiz-adv-x="432" 
d="M406 168l-370 135v82l370 135v-82l-274 -94l274 -94v-82zM36 60v72h370v-72h-370z" />
    <glyph glyph-name="plusminus" unicode="&#xb1;" horiz-adv-x="462" 
d="M196 176v136h-140v72h140v136h70v-136h140v-72h-140v-136h-70zM56 60v72h350v-72h-350z" />
    <glyph glyph-name="approxequal" unicode="&#x2248;" horiz-adv-x="462" 
d="M315 294q-35 0 -59 12l-46 23.5t-50 11.5q-39 0 -39 -43h-75q2 61 28 93t73 32q35 0 60.5 -11.5t47 -23.5t47.5 -12q39 0 39 43h75q-2 -61 -28 -93t-73 -32zM315 142q-35 0 -59 12l-46 23.5t-50 11.5q-39 0 -39 -43h-75q2 61 28 93t73 32q35 0 60.5 -12t47 -23.5
t47.5 -11.5q39 0 39 43h75q-2 -61 -28 -93t-73 -32z" />
    <glyph glyph-name="asciitilde" unicode="~" horiz-adv-x="462" 
d="M315 294q-35 0 -59 12l-46 23.5t-50 11.5q-39 0 -39 -43h-75q2 61 28 93t73 32q35 0 60.5 -11.5t47 -23.5t47.5 -12q39 0 39 43h75q-2 -61 -28 -93t-73 -32z" />
    <glyph glyph-name="logicalnot" unicode="&#xac;" horiz-adv-x="522" 
d="M396 151v179h-350v76h430v-255h-80z" />
    <glyph glyph-name="infinity" unicode="&#x221e;" horiz-adv-x="733" 
d="M220 176q-52 0 -92.5 23t-64 63t-23.5 90t23.5 90t64 63t92.5 23q50 0 89.5 -23t62.5 -63t23 -90t-23 -90t-62.5 -63t-89.5 -23zM227 262q41 0 67 25t26 65t-26 65t-67 25t-67 -25t-26 -65t26 -65t67 -25zM513 176q-50 0 -89.5 23t-62.5 63t-23 90t23 90t62.5 63t89.5 23
q51 0 92 -23t64.5 -63t23.5 -90t-23.5 -90t-64.5 -63t-92 -23zM506 262q40 0 66.5 25t26.5 65t-26.5 65t-66.5 25t-66.5 -25t-26.5 -65t26.5 -65t66.5 -25z" />
    <glyph glyph-name="emptyset" unicode="&#x2205;" horiz-adv-x="522" 
d="M261 62q-61 0 -111 29.5t-79.5 79.5t-29.5 111q0 60 29.5 110t79.5 80t111 30t110.5 -30t79.5 -80t30 -110q0 -61 -30 -111t-79.5 -79.5t-110.5 -29.5zM261 142q39 0 70 18.5t48.5 50t17.5 71.5t-17.5 71.5t-48.5 50t-70 18.5t-70 -18.5t-48.5 -50t-17.5 -71.5
t17.5 -71.5t48.5 -50t70 -18.5zM76 50l-42 42l412 422l42 -42z" />
    <glyph glyph-name="integral" unicode="&#x222b;" horiz-adv-x="403" 
d="M89 -214q-23 0 -42.5 3.5t-36.5 10.5l7 85q10 -3 21 -5t24 -2q39 0 58.5 22t21.5 67l24 593q3 75 43.5 114.5t104.5 39.5q22 0 42 -3.5t37 -10.5l-7 -85q-10 3 -21 5t-24 2q-39 0 -59 -22t-21 -67l-24 -593q-3 -75 -43 -114.5t-105 -39.5z" />
    <glyph glyph-name="uni2126" unicode="&#x2126;" horiz-adv-x="835" 
d="M60 0v86h187q-74 45 -118 121t-44 184q0 95 39.5 168t114 114t178.5 41t178.5 -41t114 -114t39.5 -168q0 -108 -43 -183.5t-120 -121.5h189v-86h-297v91q85 50 126 118.5t41 178.5q0 76 -28 130.5t-79 83.5t-121 29t-121 -30t-79 -85t-28 -129q0 -73 20 -127t57 -95
t89 -74v-91h-295z" />
    <glyph glyph-name="uni2206" unicode="&#x2206;" horiz-adv-x="660" 
d="M30 0v43l250 657h100l250 -658v-42h-600zM130 46l-28 40h456l-28 -40l-212 561h24z" />
    <glyph glyph-name="product" unicode="&#x220f;" horiz-adv-x="708" 
d="M115 -200v810h-100v90h678v-90h-100v-810h-95v810h-288v-810h-95z" />
    <glyph glyph-name="summation" unicode="&#x2211;" horiz-adv-x="600" 
d="M20 -200v40l315 407l-315 407v46h560v-90h-463l17 44l312 -404l-312 -404l-17 44h473v-90h-570z" />
    <glyph glyph-name="radical" unicode="&#x221a;" horiz-adv-x="766" 
d="M253 -200l-156 451l55 -41h-137v90h163l133 -387h-21l253 787h208v-90h-182l55 41l-276 -851h-95z" />
    <glyph glyph-name="uni00B5" unicode="&#xb5;" horiz-adv-x="608" 
d="M80 -242v732h89v-278q0 -68 27.5 -105.5t89.5 -37.5q40 0 68.5 15t52.5 43v363h87v-320q0 -34 3.5 -58t14 -37t29.5 -13h22l-16 -72h-26q-39 0 -66 18t-41 55q-27 -35 -58.5 -54.5t-75.5 -19.5q-35 0 -63.5 10t-48.5 28v-269h-88z" />
    <glyph glyph-name="partialdiff" unicode="&#x2202;" horiz-adv-x="567" 
d="M212 -10q-58 0 -97 25.5t-59 70.5t-20 103q0 55 15.5 110t46.5 100.5t77.5 73t107.5 27.5q58 0 94.5 -23t58.5 -55l-6 -113q-19 49 -51.5 80t-80.5 31q-42 0 -74 -21t-53.5 -54.5t-32 -73t-10.5 -76.5q0 -62 25 -93.5t68 -31.5q40 0 72.5 24t57 64.5t41 91.5t25 106.5
t8.5 108.5q0 52 -12.5 92.5t-41.5 63.5t-80 23q-29 0 -62 -8t-62 -23v84q31 13 65 20t66 7q81 0 129 -34.5t69 -95t21 -140.5q0 -60 -10.5 -124.5t-33.5 -125t-58.5 -109t-86 -77t-116.5 -28.5z" />
    <glyph glyph-name="percent" unicode="%" horiz-adv-x="899" 
d="M206 314q-52 0 -89 26t-57 72t-20 105q0 89 46 143t120 54q75 0 120.5 -54t45.5 -143q0 -59 -19.5 -105t-57 -72t-89.5 -26zM206 386q40 0 62 34t22 97t-23 94t-61 31q-36 0 -60 -31t-24 -94t22 -97t62 -34zM207 0l403 700h84l-402 -700h-85zM693 -14q-52 0 -89 26
t-57 72t-20 105q0 89 46 143t120 54q75 0 120.5 -54t45.5 -143q0 -59 -19.5 -105t-57 -72t-89.5 -26zM693 58q40 0 62 34t22 97t-23 94t-61 31q-36 0 -60 -31t-24 -94t22 -97t62 -34z" />
    <glyph glyph-name="perthousand" unicode="&#x2030;" horiz-adv-x="1299" 
d="M206 314q-52 0 -89 26t-57 72t-20 105q0 89 46 143t120 54q75 0 120.5 -54t45.5 -143q0 -59 -19.5 -105t-57 -72t-89.5 -26zM206 386q40 0 62 34t22 97t-23 94t-61 31q-36 0 -60 -31t-24 -94t22 -97t62 -34zM207 0l403 700h84l-402 -700h-85zM693 -14q-52 0 -89 26
t-57 72t-20 105q0 89 46 143t120 54q75 0 120.5 -54t45.5 -143q0 -59 -19.5 -105t-57 -72t-89.5 -26zM693 58q40 0 62 34t22 97t-23 94t-61 31q-36 0 -60 -31t-24 -94t22 -97t62 -34zM1093 -14q-52 0 -89 26t-57 72t-20 105q0 89 46 143t120 54q75 0 120.5 -54t45.5 -143
q0 -59 -19.5 -105t-57 -72t-89.5 -26zM1093 58q40 0 62 34t22 97t-23 94t-61 31q-36 0 -60 -31t-24 -94t22 -97t62 -34z" />
    <glyph glyph-name="lozenge" unicode="&#x25ca;" horiz-adv-x="564" 
d="M252 0l-240 350l240 350h60l240 -350l-240 -350h-60zM266 93l174 257l-174 257h32l-174 -257l174 -257h-32z" />
    <glyph glyph-name="at" unicode="@" horiz-adv-x="726" 
d="M298 -87q-114 0 -181 67.5t-67 189.5q0 82 30 151.5t82.5 121.5t120.5 81t144 29q118 0 183.5 -68.5t65.5 -184.5q0 -51 -14 -98t-45 -77.5t-83 -30.5q-19 0 -31 8.5t-12 42.5q0 44 18 99t37 135q-19 19 -49.5 36t-71.5 17q-47 0 -92.5 -24t-82 -64.5t-58.5 -90
t-22 -100.5q0 -29 9 -55t29 -42t53 -16q29 0 62.5 13.5t65 39t52.5 63.5q-1 -5 -2 -14.5t-1 -20.5q0 -16 5 -34.5t18 -31.5t35 -13q16 0 37.5 7.5t43 20t38.5 26.5l3 -3q-32 -53 -81.5 -94t-110.5 -63.5t-128 -22.5zM294 106q-23 0 -33.5 19t-10.5 48q0 41 18 77t46.5 63
t60 42.5t59.5 15.5q8 0 23.5 -3t21.5 -19q-7 -40 -27 -82.5t-47.5 -79t-56.5 -59t-54 -22.5z" />
    <glyph glyph-name="ampersand" unicode="&#x26;" horiz-adv-x="611" 
d="M259 -23q-71 0 -120.5 25t-76 67t-26.5 93q0 38 13 73t41 67t72 64q-44 53 -59.5 94.5t-15.5 75.5q0 52 24.5 89.5t64.5 57.5t89 20q85 0 125 -39.5t40 -98.5q0 -43 -24 -79t-62.5 -68t-82.5 -62l190 -195q11 13 18 38.5t11.5 54.5t6.5 55t3 42h81q-1 -29 -6 -72t-19 -90
t-40 -89l87 -100h-92l-44 46q-47 -39 -92.5 -54t-105.5 -15zM261 45q54 0 90 16.5t61 43.5l-208 208q-35 -25 -58 -62.5t-23 -81.5q0 -34 14.5 -62t45 -45t78.5 -17zM223 406q41 28 69 51.5t42.5 47t14.5 54.5q0 36 -23 55.5t-62 19.5q-38 0 -67 -25t-29 -75
q0 -22 10.5 -54.5t44.5 -73.5z" />
    <glyph glyph-name="paragraph" unicode="&#xb6;" horiz-adv-x="622" 
d="M315 0v243q-99 5 -161 40t-91.5 86t-29.5 105q0 55 30.5 107t94.5 85.5t163 33.5h259v-67h-75v-633h-48v633h-101v-633h-41z" />
    </font>
</defs>
</svg>
